<svg id="Logo" xmlns="http://www.w3.org/2000/svg" width="137.297" height="36.619" viewBox="0 0 137.297 36.619">
  <path id="Path_1" data-name="Path 1" d="M0,16.578V33.157H1.929l.014-9.124.021-9.124,4.078,9.314c3.954,9.028,4.085,9.308,4.264,9.308s.324-.306,4.326-9.185l4.14-9.178.021,8.994.014,8.994h5.029V-.008l-.248.02-.248.02L17.65,12.99c-3.128,7.122-5.7,12.93-5.732,12.9S9.287,20.023,6.124,12.915C.462.162.386,0,.193,0H0Z" transform="translate(0 0.008)" fill="#0072e4"/>
  <path id="Path_2" data-name="Path 2" d="M44.542,18.2V33.626h4.822V2.782H44.542Z" transform="translate(-7.479 -0.46)" fill="#0072e4"/>
  <path id="Path_3" data-name="Path 3" d="M35.4,3.467a2.171,2.171,0,0,0-1.1.606,2.672,2.672,0,0,0-.579.763,1.736,1.736,0,0,0-.22,1.042,1.736,1.736,0,0,0,.22,1.042A2.778,2.778,0,0,0,35.1,8.2a2.464,2.464,0,0,0,1.054.157A1.835,1.835,0,0,0,37.335,8.1a2.545,2.545,0,0,0,1.233-1.192,1.9,1.9,0,0,0,.158-1.035,1.844,1.844,0,0,0-.172-1.055A2.772,2.772,0,0,0,35.4,3.467Z" transform="translate(-5.624 -0.56)" fill="#0072e4"/>
  <path id="Path_4" data-name="Path 4" d="M89.523,8.58v3.1H87.181v1.7h2.342v6.788c0,7.374,0,7.4.386,8.613A7.532,7.532,0,0,0,95.151,33.6a13.912,13.912,0,0,0,3.245.552c.2,0,.22-.02.22-.191s-.028-.2-.393-.279a4.655,4.655,0,0,1-3.465-3.323c-.462-1.423-.468-1.5-.51-10.765l-.028-6.21H98v-1.7H94.345v-6.2H89.523Z" transform="translate(-14.637 -0.914)" fill="#0072e4"/>
  <path id="Path_5" data-name="Path 5" d="M81.157,7.732a15.378,15.378,0,0,0-5,4.01,9.963,9.963,0,0,0-1.405,2.826c-.675,2.506-.165,4.936,1.709,8.143a17.883,17.883,0,0,1,2.019,4.9,7.948,7.948,0,0,1-.1,2.86,7.929,7.929,0,0,1-1.061,2.206c-1.144,1.6-3.348,3.1-6.455,4.405a3.742,3.742,0,0,0-.882.449.393.393,0,0,0,.083.225c.1.136.117.129,1.123-.2a55.97,55.97,0,0,0,6.634-2.526c3.3-1.634,5.25-3.922,5.649-6.632a9.54,9.54,0,0,0-.1-2.758c-.358-1.675-1.033-3.064-2.735-5.617-1.736-2.6-2.391-4.453-2.2-6.2A8.192,8.192,0,0,1,81.7,8.12c.269-.211.517-.409.551-.436.062-.054-.124-.4-.22-.4C82,7.282,81.612,7.487,81.157,7.732Z" transform="translate(-11.749 -1.216)" fill="#0072e4"/>
  <path id="Path_6" data-name="Path 6" d="M61.588,12.184c-3.954.443-6.71,3.091-7.489,7.21a10.271,10.271,0,0,0-.152,2.254,12.963,12.963,0,0,0,.785,4.9,13.718,13.718,0,0,0,6.958,7.476,15.776,15.776,0,0,0,5.277,1.307c.289,0,.3-.007.3-.2s-.028-.211-.393-.313a9.44,9.44,0,0,1-3.789-2.1,12.469,12.469,0,0,1-1.729-2.124,18.215,18.215,0,0,1-2.508-7.347,38.432,38.432,0,0,1,0-5.345c.427-2.744,1.412-4.16,3.1-4.432a2.43,2.43,0,0,1,2.7,1.307,5.328,5.328,0,0,1,.53,2.485A6.734,6.734,0,0,1,64,21.75a6.656,6.656,0,0,1-3.941,2.485c-.234.061-.3.1-.3.225,0,.334.062.347.875.252a12.973,12.973,0,0,0,7.33-3.064,5.083,5.083,0,0,0,1.626-4.221,4.421,4.421,0,0,0-1.495-3.4,6.166,6.166,0,0,0-3.41-1.736A14.5,14.5,0,0,0,61.588,12.184Z" transform="translate(-9.058 -2.032)" fill="#0072e4"/>
  <path id="Path_7" data-name="Path 7" d="M108.518,12.207c-2.611.4-4.843,2.342-6.441,5.59a16.045,16.045,0,0,0-1.591,5.243,19.93,19.93,0,0,0,.034,4,11.1,11.1,0,0,0,2.887,6.216,7.918,7.918,0,0,0,5.773,2.526,8.259,8.259,0,0,0,7.757-3.874,11.883,11.883,0,0,0,1.888-5.536,22.375,22.375,0,0,0-.1-4.017,13.511,13.511,0,0,0-3.761-7.864A7.268,7.268,0,0,0,108.518,12.207Zm1.653,1c1.709.313,2.825,2.056,3.272,5.1a46.5,46.5,0,0,1-.145,12.167c-.441,2.015-1.247,3.323-2.391,3.881a1.87,1.87,0,0,1-1.178.259,2.6,2.6,0,0,1-1.75-.511c-.93-.66-1.66-2.1-2.074-4.1a36.886,36.886,0,0,1,0-12.058c.558-2.819,1.646-4.439,3.217-4.739A2.265,2.265,0,0,1,110.171,13.208Z" transform="translate(-16.857 -2.028)" fill="#0072e4"/>
  <path id="Path_8" data-name="Path 8" d="M136.374,12.161a12.458,12.458,0,0,0-3.451,1.062c-.758.34-.785.354-.785.565v.218l.882-.034c1.867-.075,2.893.47,3.41,1.8l.152.388.021,9.512.014,9.519h4.829l-.028-9.655c-.021-8.531-.034-9.7-.131-10.125a3.658,3.658,0,0,0-3.155-3.207A7.248,7.248,0,0,0,136.374,12.161Z" transform="translate(-22.185 -2.029)" fill="#0072e4"/>
  <path id="Path_9" data-name="Path 9" d="M154.092,12.156a8.292,8.292,0,0,0-5.25,2.322,10.343,10.343,0,0,0-1.585,2.152,12.811,12.811,0,0,0-.806,8.014,13.156,13.156,0,0,0,4.65,7.592,13.546,13.546,0,0,0,5.436,2.683,15.225,15.225,0,0,0,2.645.415c.3,0,.317-.007.317-.2s-.028-.2-.668-.4a8.417,8.417,0,0,1-3.706-2.288,10.919,10.919,0,0,1-2.232-3.132,18.335,18.335,0,0,1-1.915-8.15c-.09-3.411.4-5.6,1.516-6.782a2.952,2.952,0,0,1,2.659-.906c1.4.231,2.108,1.328,2.273,3.5a6.608,6.608,0,0,1-1.819,5.495,6.428,6.428,0,0,1-3.052,1.7c-.282.075-.531.15-.551.163a.562.562,0,0,0,.021.245l.048.218.53-.048c3.465-.313,6.855-1.879,8.239-3.813a4.585,4.585,0,0,0,.978-3,4.375,4.375,0,0,0-.11-1.6,4.8,4.8,0,0,0-1.874-2.785,6.724,6.724,0,0,0-2.887-1.26A17.378,17.378,0,0,0,154.092,12.156Z" transform="translate(-24.54 -2.031)" fill="#0072e4"/>
  <path id="Path_10" data-name="Path 10" d="M33.779,24.129v11.2h4.754v-22.4H33.779Z" transform="translate(-5.671 -2.164)" fill="#0072e4"/>
  <path id="Path_11" data-name="Path 11" d="M125.762,24.129v11.2h4.685v-22.4h-4.685Z" transform="translate(-21.115 -2.164)" fill="#0072e4"/>
</svg>
