<svg width="46" height="42" viewBox="0 0 46 42" fill="none" xmlns="http://www.w3.org/2000/svg">
<g clip-path="url(#clip0_6882_14317)">
<path d="M4.4375 -31.2275C17.4084 -31.2274 29.515 -24.2948 36.0303 -13.126C36.2388 -12.7804 36.12 -12.3266 35.7627 -12.1191C35.4051 -11.9118 34.9478 -12.0302 34.7393 -12.3857C28.4921 -23.0903 16.8819 -29.746 4.4375 -29.7461C-14.8702 -29.7461 -30.5732 -14.1332 -30.5732 5.06445C-30.5732 24.2621 -14.8701 39.875 4.4375 39.875C21.9472 39.8749 36.4971 27.0273 39.0498 10.3086C36.6265 9.78517 34.7989 7.63198 34.7988 5.06445C34.7988 2.11172 37.2227 -0.297852 40.1924 -0.297852C43.1619 -0.297724 45.585 2.2303 45.585 5.06445C45.5849 7.89856 43.3506 10.2294 40.54 10.4072C37.9278 27.8963 22.7418 41.3563 4.4375 41.3564C-15.6846 41.3564 -32.0625 25.0719 -32.0625 5.06445C-32.0625 -14.943 -15.6846 -31.2275 4.4375 -31.2275ZM4.43848 -23.9883C7.35846 -23.9883 9.74281 -21.658 9.82227 -18.7744C14.331 -17.777 18.4824 -15.5356 21.8193 -12.2178C26.4575 -7.606 29.0107 -1.47301 29.0107 5.06445C29.0107 11.6019 26.4575 17.7349 21.8193 22.3467C17.1812 26.9583 11.0133 29.4961 4.43848 29.4961C-2.13634 29.496 -8.30424 26.9584 -12.9424 22.3467C-17.5806 17.7349 -20.1328 11.6019 -20.1328 5.06445C-20.1328 -1.47301 -17.5806 -7.606 -12.9424 -12.2178C-12.6545 -12.504 -12.1777 -12.5038 -11.8896 -12.2178V-12.2275C-11.6016 -11.9412 -11.6016 -11.467 -11.8896 -11.1807C-16.2497 -6.85526 -18.6426 -1.08776 -18.6426 5.05469C-18.6426 11.1971 -16.2398 16.9646 -11.8896 21.29C-7.53954 25.6252 -1.73907 28.0048 4.43848 28.0049C10.616 28.0049 16.4165 25.6153 20.7666 21.29C25.1267 16.9646 27.5205 11.1971 27.5205 5.05469C27.5205 -1.08778 25.1168 -6.85526 20.7666 -11.1807C17.668 -14.2616 13.8344 -16.3352 9.65332 -17.2832C9.04743 -14.9724 6.94128 -13.2637 4.43848 -13.2637C1.46913 -13.2638 -0.95384 -15.6736 -0.954102 -18.626C-0.954102 -21.5786 1.51862 -23.9881 4.43848 -23.9883ZM4.44043 -7.61523C11.4721 -7.61506 17.1924 -1.92719 17.1924 5.06445C17.1923 12.056 11.472 17.744 4.44043 17.7441C-2.5913 17.7441 -8.31238 12.0561 -8.3125 5.06445C-8.3125 -1.9273 -2.59138 -7.61523 4.44043 -7.61523ZM4.44043 -6.13477C-1.76703 -6.13477 -6.82227 -1.10764 -6.82227 5.06445C-6.82214 11.2364 -1.76695 16.2627 4.44043 16.2627C10.6477 16.2625 15.703 11.2363 15.7031 5.06445C15.7031 -1.10753 10.6477 -6.13459 4.44043 -6.13477ZM40.1924 1.19336C38.0372 1.19336 36.2891 2.93128 36.2891 5.07422C36.2891 6.89117 37.55 8.4024 39.2383 8.82715C39.5462 8.90615 39.8646 8.95508 40.1924 8.95508C40.3711 8.95505 40.5498 8.92609 40.7285 8.89648V8.90625C42.6255 8.63961 44.0957 7.02954 44.0957 5.07422C44.0957 2.93135 42.3475 1.19348 40.1924 1.19336ZM4.43848 -22.5078C2.28339 -22.5076 0.535156 -20.7688 0.535156 -18.626C0.535416 -16.4833 2.28355 -14.7453 4.43848 -14.7451C6.21614 -14.7451 7.70592 -15.9402 8.17285 -17.5596C8.27213 -17.9051 8.34174 -18.2509 8.3418 -18.626L8.35156 -18.6162C8.35156 -18.774 8.3226 -18.9126 8.30273 -19.0605C8.0743 -20.9961 6.4348 -22.5078 4.43848 -22.5078Z" fill="url(#paint0_radial_6882_14317)" fill-opacity="0.2"/>
</g>
<defs>
<radialGradient id="paint0_radial_6882_14317" cx="0" cy="0" r="1" gradientUnits="userSpaceOnUse" gradientTransform="translate(6.76123 5.06445) rotate(90) scale(43.7493 46.8012)">
<stop stop-color="#3295DC"/>
<stop offset="1" stop-color="#3295DC" stop-opacity="0"/>
</radialGradient>
<clipPath id="clip0_6882_14317">
<rect width="77.6478" height="72.5838" fill="white" transform="translate(-32.0625 -31.2275)"/>
</clipPath>
</defs>
</svg>
