<svg width="40" height="36" viewBox="0 0 40 36" fill="none" xmlns="http://www.w3.org/2000/svg">
<g clip-path="url(#clip0_6882_14322)">
<path d="M36.5154 0C49.4863 0.000139196 61.5929 6.93265 68.1082 18.1016C68.3167 18.4471 68.1979 18.9009 67.8406 19.1084C67.483 19.3158 67.0257 19.1973 66.8171 18.8418C60.57 8.13717 48.9598 1.48158 36.5154 1.48145C17.2077 1.48145 1.50464 17.0943 1.50464 36.292C1.50476 55.4896 17.2078 71.1025 36.5154 71.1025C54.0252 71.1023 68.5752 58.254 71.1277 41.5352C68.7044 41.0117 66.8768 38.8594 66.8767 36.292C66.8767 33.3393 69.3006 30.9297 72.2703 30.9297C75.2398 30.9299 77.6628 33.4579 77.6628 36.292C77.6627 39.126 75.4284 41.4568 72.6179 41.6348C70.0057 59.1237 54.8196 72.5838 36.5154 72.584C16.3934 72.584 0.0155011 56.2994 0.0153809 36.292C0.0153809 16.2845 16.3933 0 36.5154 0ZM36.5164 7.23828C39.4363 7.23828 41.8207 9.56855 41.9001 12.4521C46.4089 13.4496 50.5602 15.691 53.8972 19.0088C58.5354 23.6206 61.0886 29.7536 61.0886 36.291C61.0886 42.8285 58.5354 48.9615 53.8972 53.5732C49.259 58.1848 43.0911 60.7227 36.5164 60.7227C29.9415 60.7226 23.7736 58.185 19.1355 53.5732C14.4973 48.9615 11.9451 42.8285 11.9451 36.291C11.9451 29.7536 14.4973 23.6206 19.1355 19.0088C19.4234 18.7226 19.9002 18.7228 20.1882 19.0088V18.999C20.4763 19.2854 20.4763 19.7595 20.1882 20.0459C15.8282 24.3713 13.4353 30.1388 13.4353 36.2812C13.4353 42.4237 15.8381 48.1912 20.1882 52.5166C24.5383 56.8518 30.3388 59.2314 36.5164 59.2314C42.6939 59.2314 48.4943 56.8418 52.8445 52.5166C57.2046 48.1912 59.5984 42.4237 59.5984 36.2812C59.5984 30.1388 57.1947 24.3713 52.8445 20.0459C49.7458 16.965 45.9123 14.8914 41.7312 13.9434C41.1253 16.2541 39.0192 17.9629 36.5164 17.9629C33.547 17.9627 31.124 15.553 31.1238 12.6006C31.1238 9.64796 33.5965 7.23845 36.5164 7.23828ZM36.5105 23.6123C43.5422 23.6125 49.2625 29.3004 49.2625 36.292C49.2623 43.2835 43.5421 48.9715 36.5105 48.9717C29.4788 48.9717 23.7577 43.2836 23.7576 36.292C23.7576 29.3002 29.4787 23.6123 36.5105 23.6123ZM36.5105 25.0928C30.303 25.0928 25.2478 30.1199 25.2478 36.292C25.2479 42.464 30.3031 47.4902 36.5105 47.4902C42.7177 47.4901 47.7731 42.4639 47.7732 36.292C47.7732 30.12 42.7178 25.093 36.5105 25.0928ZM72.2703 32.4209C70.115 32.4209 68.3669 34.1588 68.3669 36.3018C68.367 38.1187 69.6279 39.63 71.3162 40.0547C71.6241 40.1337 71.9425 40.1826 72.2703 40.1826C72.4489 40.1826 72.6277 40.1527 72.8064 40.123V40.1328C74.7033 39.8661 76.1735 38.257 76.1736 36.3018C76.1736 34.1589 74.4253 32.4211 72.2703 32.4209ZM36.5164 8.71875C34.3613 8.71891 32.613 10.4577 32.613 12.6006C32.6133 14.7432 34.3614 16.4813 36.5164 16.4814C38.294 16.4814 39.7838 15.2863 40.2507 13.667C40.35 13.3215 40.4196 12.9757 40.4197 12.6006L40.4294 12.6104C40.4294 12.4525 40.4005 12.314 40.3806 12.166C40.1522 10.2304 38.5127 8.71875 36.5164 8.71875Z" fill="url(#paint0_radial_6882_14322)" fill-opacity="0.2"/>
</g>
<defs>
<radialGradient id="paint0_radial_6882_14322" cx="0" cy="0" r="1" gradientUnits="userSpaceOnUse" gradientTransform="translate(38.8391 36.292) rotate(90) scale(43.7493 46.8012)">
<stop stop-color="#3295DC"/>
<stop offset="1" stop-color="#3295DC" stop-opacity="0"/>
</radialGradient>
<clipPath id="clip0_6882_14322">
<rect width="77.6478" height="72.5838" fill="white"/>
</clipPath>
</defs>
</svg>
