<svg width="69" height="82" viewBox="0 0 69 82" fill="none" xmlns="http://www.w3.org/2000/svg">
<path opacity="0.61" d="M-34.894 62.4775C-15.2883 62.4775 0.667465 78.8488 0.66748 98.9668C0.66748 102.569 0.139072 106.14 -0.88623 109.6C-1.04158 110.11 -1.50824 110.444 -2.00537 110.444C-2.11404 110.444 -2.23852 110.428 -2.34717 110.396C-2.96831 110.205 -3.30985 109.536 -3.12354 108.898C-2.16037 105.662 -1.67923 102.315 -1.6792 98.9512C-1.6792 80.1405 -16.5926 64.8528 -34.9087 64.8525C-38.2021 64.8525 -41.4494 65.3466 -44.603 66.335C-45.2244 66.5262 -45.8775 66.1757 -46.064 65.5381C-46.2504 64.9004 -45.908 64.2304 -45.2866 64.0391C-41.9155 62.987 -38.4352 62.4609 -34.9243 62.4609L-34.894 62.4775ZM-34.9116 37.4805C-1.8678 37.4805 25.0083 65.0596 25.0083 98.9668C25.0083 102.41 24.7129 105.949 24.1226 109.456C24.0293 110.03 23.5324 110.444 22.9731 110.444C22.911 110.444 22.8331 110.429 22.771 110.429C22.1343 110.317 21.7152 109.695 21.8237 109.042C22.3985 105.663 22.6782 102.267 22.6782 98.9512C22.6782 66.3671 -3.15724 39.8565 -34.9116 39.8564C-38.1585 39.8564 -41.4521 40.1585 -44.7456 40.7324C-45.3825 40.844 -45.9883 40.4142 -46.0972 39.7607C-46.2059 39.1073 -45.7866 38.4858 -45.1499 38.374C-41.7321 37.7683 -38.2984 37.4648 -34.9272 37.4648L-34.9116 37.4805ZM52.9146 79.3438C61.2726 79.3438 68.062 86.3103 68.062 94.8867C68.062 103.463 61.2726 110.43 52.9146 110.43C44.5566 110.43 37.7681 103.463 37.7681 94.8867C37.7681 86.3104 44.5566 79.3439 52.9146 79.3438ZM-34.9292 87.4736C-28.7616 87.4736 -23.7437 92.6225 -23.7437 98.9512C-23.7437 105.28 -28.7617 110.429 -34.9292 110.429C-41.0966 110.429 -46.1147 105.296 -46.1147 98.9512C-46.1147 92.6066 -41.0966 87.4572 -34.9292 87.457V87.4736ZM-34.9253 74.959C-22.0309 74.959 -11.5445 85.7189 -11.5444 98.9502C-11.5444 102.728 -12.3988 106.363 -14.0767 109.774C-14.2786 110.189 -14.6982 110.428 -15.1177 110.428C-15.304 110.428 -15.4752 110.396 -15.646 110.301C-16.2206 109.998 -16.4537 109.28 -16.1587 108.69C-14.6518 105.63 -13.8745 102.346 -13.8745 98.9502C-13.8746 87.0421 -23.3204 77.3496 -34.9253 77.3496C-38.2342 77.3497 -41.4348 78.1311 -44.4175 79.6934C-44.9922 79.996 -45.6907 79.7567 -45.9858 79.167C-46.281 78.5772 -46.048 77.8595 -45.4731 77.5566C-42.1643 75.8352 -38.6069 74.959 -34.9253 74.959ZM-34.9478 49.9463C-8.6152 49.9463 12.7925 71.9299 12.7925 98.9346C12.7925 102.442 12.42 105.997 11.6743 109.472C11.5656 110.03 11.0678 110.412 10.5396 110.412C10.462 110.412 10.369 110.397 10.2915 110.381C9.67019 110.237 9.26615 109.599 9.40576 108.962C10.1204 105.662 10.478 102.282 10.478 98.9346C10.478 73.2371 -9.88905 52.3379 -34.9321 52.3379C-38.1944 52.3379 -41.4724 52.7043 -44.7036 53.4375C-45.325 53.581 -45.9466 53.1669 -46.0864 52.5293C-46.2262 51.8916 -45.8221 51.2538 -45.2007 51.1104C-41.8141 50.3452 -38.3653 49.9629 -34.9321 49.9629L-34.9478 49.9463ZM-34.9292 89.8643C-39.8072 89.8644 -43.7837 93.9457 -43.7837 98.9512C-43.7836 103.957 -39.8227 108.038 -34.9292 108.038C-30.0511 108.038 -26.0738 103.957 -26.0737 98.9512C-26.0737 93.9456 -30.0511 89.8643 -34.9292 89.8643ZM52.9146 81.7354C45.8461 81.7355 40.0981 87.6335 40.0981 94.8867C40.0982 102.14 45.8461 108.038 52.9146 108.038C59.9832 108.038 65.7319 102.14 65.7319 94.8867C65.7319 87.6334 59.9832 81.7354 52.9146 81.7354ZM52.9233 91.0293C55.0051 91.0293 56.6831 92.7506 56.6831 94.8867C56.6831 97.0229 55.0051 98.7441 52.9233 98.7441C50.8418 98.7439 49.1646 97.0227 49.1646 94.8867C49.1646 92.7508 50.8574 91.0295 52.9233 91.0293ZM52.9233 92.1768C51.4632 92.177 50.2827 93.3884 50.2827 94.8867C50.2827 96.385 51.4632 97.5964 52.9233 97.5967C54.3837 97.5967 55.5649 96.3852 55.5649 94.8867C55.5649 93.3883 54.3837 92.1768 52.9233 92.1768ZM-2.16455 -5.75195C-2.05572 -6.40534 -1.43425 -6.83601 -0.812988 -6.72461C-0.176037 -6.61302 0.244003 -5.99051 0.135254 -5.33691C-0.439529 -1.95743 -0.719238 1.43819 -0.719238 4.75391C-0.719097 37.3379 25.1163 63.8486 56.8706 63.8486C60.1019 63.8486 63.4112 63.5455 66.7046 62.9717C67.3569 62.8603 67.9474 63.2909 68.0562 63.9443C68.1646 64.5977 67.7447 65.2195 67.1079 65.3311C63.6903 65.9368 60.2572 66.2392 56.8862 66.2393L56.8706 66.2236C23.8267 66.2236 -3.05029 38.6446 -3.05029 4.7373C-3.05027 1.2941 -2.75488 -2.24499 -2.16455 -5.75195ZM10.2886 -5.78418C10.4286 -6.42162 11.0346 -6.83583 11.6714 -6.69238C12.2927 -6.54883 12.6969 -5.91103 12.5571 -5.27344C11.8425 -1.97362 11.4849 1.40627 11.4849 4.75391C11.4851 30.4512 31.8521 51.3496 56.895 51.3496C60.1574 51.3496 63.4352 50.9833 66.6665 50.25C67.2879 50.1065 67.9095 50.5215 68.0493 51.1592C68.1889 51.7967 67.7849 52.4337 67.1636 52.5771C63.7769 53.3423 60.3283 53.7256 56.895 53.7256L56.9106 53.7412C30.5782 53.7412 9.17065 31.7584 9.17041 4.75391C9.17041 1.24681 9.54287 -2.30896 10.2886 -5.78418ZM22.8413 -5.91113C23.0278 -6.54868 23.6809 -6.89929 24.3022 -6.70801C24.9236 -6.51667 25.265 -5.8466 25.0786 -5.20898C24.1155 -1.97303 23.6343 1.37481 23.6343 4.73828C23.6344 23.549 38.5486 38.8369 56.8647 38.8369C60.158 38.8369 63.4047 38.3427 66.5581 37.3545C67.1795 37.1632 67.8326 37.5137 68.019 38.1514C68.2053 38.7889 67.863 39.4581 67.2417 39.6494C63.8707 40.7014 60.3911 41.2275 56.8804 41.2275L56.8491 41.2119C37.2434 41.2119 21.2886 24.8397 21.2886 4.72168C21.2886 1.11906 21.816 -2.45198 22.8413 -5.91113ZM36.0405 -6.08691C36.3357 -6.67665 37.0351 -6.91615 37.6099 -6.61328C38.1845 -6.3104 38.4175 -5.59267 38.1226 -5.00293C36.6001 -1.94221 35.8384 1.34182 35.8384 4.7373C35.8384 16.6455 45.2842 26.3379 56.8892 26.3379C60.1981 26.3379 63.3986 25.5564 66.3813 23.9941C66.956 23.6916 67.6545 23.931 67.9497 24.5205C68.2448 25.1102 68.0126 25.8279 67.438 26.1309C64.129 27.8525 60.571 28.7295 56.8892 28.7295C43.9948 28.7295 33.5083 17.9686 33.5083 4.7373C33.5083 0.959226 34.3627 -2.69142 36.0405 -6.08691ZM-30.9673 -6.74023C-22.6092 -6.74022 -15.8198 0.226295 -15.8198 8.80273C-15.82 17.379 -22.6093 24.3457 -30.9673 24.3457C-39.3252 24.3457 -46.1146 17.3631 -46.1147 8.80273C-46.1147 0.242228 -39.3253 -6.74023 -30.9673 -6.74023ZM-30.9673 -4.34961C-38.0359 -4.34961 -43.7837 1.54942 -43.7837 8.80273C-43.7835 16.0559 -38.0358 21.9541 -30.9673 21.9541C-23.8988 21.9541 -18.1511 16.0559 -18.1509 8.80273C-18.1509 1.54943 -23.8987 -4.34959 -30.9673 -4.34961ZM56.8931 -6.74023C63.0605 -6.74023 68.0784 -1.57562 68.0786 4.75293C68.0786 11.0816 63.0606 16.2314 56.8931 16.2314V16.2148C50.7256 16.2148 45.7075 11.066 45.7075 4.7373C45.7075 -1.59134 50.7256 -6.74014 56.8931 -6.74023ZM56.8931 -4.34961C52.015 -4.34952 48.0376 -0.268205 48.0376 4.7373C48.0376 9.74283 52.015 13.8241 56.8931 13.8242C61.7712 13.8242 65.7485 9.74289 65.7485 4.7373C65.7485 -0.26826 61.7867 -4.34961 56.8931 -4.34961ZM-30.9585 4.94434C-28.8767 4.94434 -27.1987 6.66659 -27.1987 8.80273C-27.1989 10.9387 -28.8924 12.6602 -30.9585 12.6602C-33.0401 12.6601 -34.7181 10.9387 -34.7183 8.80273C-34.7183 6.66664 -33.0402 4.94441 -30.9585 4.94434ZM-30.9585 6.09277C-32.4188 6.09285 -33.5991 7.30429 -33.5991 8.80273C-33.599 10.301 -32.4187 11.5126 -30.9585 11.5127C-29.4983 11.5127 -28.317 10.3011 -28.3169 8.80273C-28.3169 7.30425 -29.4982 6.09277 -30.9585 6.09277Z" fill="url(#paint0_radial_6882_14270)" fill-opacity="0.15"/>
<defs>
<radialGradient id="paint0_radial_6882_14270" cx="0" cy="0" r="1" gradientUnits="userSpaceOnUse" gradientTransform="translate(10.9819 51.8425) rotate(90) scale(58.6022 57.0967)">
<stop stop-color="#1C2662"/>
<stop offset="1" stop-color="#394EC8" stop-opacity="0"/>
</radialGradient>
</defs>
</svg>
