<svg width="515" height="133" viewBox="0 0 515 133" fill="none" xmlns="http://www.w3.org/2000/svg">
<path d="M52.4893 1.59619V46.3313C62.7749 46.3398 72.6436 42.2665 79.9286 35.0054C87.2136 27.7444 91.3195 17.889 91.3449 7.60335V1.59619H52.4893Z" fill="#FFCE34"/>
<path d="M91.3437 93.5584V48.8233C81.061 48.8148 71.1957 52.889 63.9157 60.151C56.6358 67.4129 52.537 77.2681 52.52 87.5508V93.5584H91.3437Z" fill="#FFCE34"/>
<path d="M39.2275 93.559C28.6111 91.4169 19.0631 85.6673 12.2039 77.2859C5.34479 68.9046 1.59717 58.4077 1.59717 47.5774C1.59717 36.7471 5.34479 26.2506 12.2039 17.8692C19.0631 9.48787 28.6111 3.73826 39.2275 1.59619V93.559Z" fill="#F57F29"/>
<path d="M157.423 84.6744C144.642 84.6744 134.385 80.744 127.035 73.0113C123.741 69.5649 121.162 65.5009 119.445 61.0533C117.729 56.6058 116.909 51.8624 117.034 47.0967C116.87 36.827 120.762 26.9067 127.866 19.4886C132.093 15.1928 137.176 11.8347 142.786 9.63257C148.396 7.43047 154.407 6.43391 160.427 6.70731C168.019 6.56362 175.538 8.20544 182.379 11.5004C182.514 11.5705 182.627 11.6759 182.705 11.8056C182.784 11.9353 182.826 12.084 182.826 12.2357V28.2128C182.823 28.4025 182.754 28.585 182.632 28.7303C182.51 28.8755 182.342 28.9746 182.155 29.0111H181.996C181.836 29.009 181.681 28.9591 181.55 28.8681C181.419 28.7771 181.318 28.6491 181.261 28.5003C177.394 18.7864 169.853 14.153 158.222 14.153C154.133 13.9895 150.06 14.7691 146.32 16.4314C142.58 18.0937 139.273 20.5937 136.653 23.7388C131.719 29.7234 129.129 37.2988 129.368 45.0519C129.164 53.0083 131.843 60.7703 136.909 66.9083C139.666 70.169 143.132 72.7566 147.042 74.4734C150.951 76.1901 155.202 76.9909 159.468 76.8141C164.034 76.757 168.536 75.7339 172.677 73.8118C176.819 71.8897 180.507 69.1121 183.497 65.6622C183.637 65.5606 183.804 65.5051 183.977 65.503H184.264C184.418 65.5623 184.55 65.6679 184.642 65.8052C184.733 65.9425 184.78 66.105 184.776 66.2699V73.3953C184.778 73.6085 184.698 73.8145 184.552 73.9703C181.019 77.5381 176.784 80.3323 172.113 82.1752C167.443 84.018 162.44 84.8688 157.423 84.6744Z" fill="#6A634D"/>
<path d="M310.641 14.0576C305.744 13.8898 300.865 14.7152 296.296 16.4835C291.727 18.2518 287.563 20.9263 284.055 24.3467C280.662 27.7052 277.993 31.723 276.213 36.1524C274.432 40.5819 273.578 45.329 273.702 50.1013C273.535 54.6733 274.299 59.2317 275.947 63.4996C277.594 67.7675 280.092 71.6563 283.288 74.9297C286.633 78.2017 290.613 80.7542 294.982 82.4303C299.351 84.1064 304.016 84.8706 308.691 84.6756C313.63 84.8464 318.55 83.9979 323.146 82.1837C327.742 80.3695 331.915 77.6284 335.405 74.1307C338.718 70.7688 341.315 66.7702 343.039 62.3766C344.764 57.983 345.58 53.2855 345.438 48.5677C345.631 43.9599 344.86 39.3624 343.175 35.0692C341.491 30.776 338.929 26.8814 335.655 23.6339C332.38 20.3864 328.464 17.8574 324.157 16.2085C319.85 14.5597 315.247 13.827 310.641 14.0576ZM334.542 50.9004C334.841 57.8298 332.474 64.6104 327.928 69.8488C325.769 72.2059 323.127 74.0688 320.182 75.3097C317.237 76.5506 314.059 77.1402 310.864 77.0383C307.298 77.1477 303.753 76.4554 300.49 75.0119C297.227 73.5685 294.33 71.4109 292.012 68.6985C287.032 62.6552 284.46 54.9854 284.79 47.1617C284.444 40.3803 286.734 33.7278 291.181 28.5966C293.391 26.2807 296.072 24.4664 299.043 23.2757C302.014 22.085 305.206 21.546 308.404 21.6949C311.965 21.5592 315.511 22.2202 318.784 23.6298C322.056 25.0395 324.973 27.1623 327.32 29.843C332.224 35.7252 334.774 43.2158 334.478 50.8683" fill="#6A634D"/>
<path d="M371.834 22.6857C371.821 22.5048 371.821 22.3234 371.834 22.1425C372.006 21.0953 372.493 20.1252 373.229 19.3606C373.965 18.596 374.916 18.0729 375.956 17.8606C376.212 17.7936 376.436 17.6381 376.588 17.4216C376.74 17.2051 376.81 16.9417 376.787 16.6782C376.756 16.4011 376.625 16.1447 376.42 15.9566C376.214 15.7684 375.947 15.6615 375.668 15.6555H356.688C356.393 15.6288 356.099 15.7196 355.871 15.9083C355.642 16.097 355.497 16.3679 355.468 16.6627C355.439 16.9575 355.527 17.2522 355.713 17.4824C355.9 17.7126 356.169 17.8596 356.464 17.8919C357.649 18.1275 358.715 18.7651 359.484 19.6967C360.252 20.6283 360.676 21.7968 360.682 23.0045V75.8878C360.676 77.0955 360.252 78.264 359.484 79.1956C358.715 80.1272 357.649 80.7648 356.464 81.0004C356.372 80.9991 356.282 81.0185 356.199 81.0572C356.116 81.0959 356.043 81.1532 355.985 81.2242C355.874 81.3442 355.789 81.485 355.734 81.6388C355.679 81.7926 355.655 81.956 355.665 82.119C355.689 82.4017 355.816 82.6656 356.022 82.8602C356.229 83.0548 356.5 83.1662 356.784 83.1731H375.7C375.997 83.1731 376.281 83.0555 376.491 82.8458C376.701 82.6361 376.818 82.3515 376.818 82.0549C376.838 81.8153 376.766 81.5773 376.618 81.3878C376.471 81.1983 376.257 81.0714 376.02 81.0321C374.823 80.8096 373.742 80.1775 372.961 79.2446C372.179 78.3118 371.747 77.1362 371.738 75.9195V22.9721C371.738 22.9721 371.738 22.78 371.738 22.6846" fill="#6A634D"/>
<path d="M447.946 66.685C447.734 66.5997 447.501 66.5816 447.278 66.633C447.055 66.6844 446.853 66.8029 446.7 66.9724C444.063 70.0146 440.812 72.4642 437.161 74.1605C433.509 75.8567 429.54 76.761 425.515 76.8141C421.761 76.9693 418.021 76.264 414.582 74.752C411.143 73.2401 408.095 70.9618 405.671 68.091C401.233 62.7015 398.875 55.8987 399.025 48.9185C398.816 42.0892 401.086 35.4153 405.416 30.1301C407.724 27.3685 410.636 25.1743 413.927 23.7171C417.218 22.26 420.8 21.5789 424.396 21.7261C434.685 21.7261 441.332 25.7841 444.719 34.1558C444.812 34.4001 444.987 34.6042 445.215 34.7326C445.442 34.861 445.708 34.906 445.965 34.859C446.224 34.8076 446.458 34.668 446.627 34.4643C446.796 34.2606 446.889 34.005 446.892 33.7405V19.3935C446.893 19.1839 446.838 18.9775 446.731 18.7972C446.624 18.6169 446.469 18.4694 446.285 18.3704C440.157 15.4285 433.429 13.9518 426.633 14.0568C421.191 13.8229 415.761 14.7377 410.696 16.7417C405.631 18.7457 401.044 21.7938 397.236 25.6878C394.028 29.0224 391.51 32.9577 389.827 37.2676C388.143 41.5775 387.327 46.1773 387.426 50.8033C387.315 55.1107 388.057 59.3977 389.609 63.4173C391.161 67.4369 393.492 71.1099 396.469 74.2253C400.053 77.8036 404.347 80.5908 409.075 82.407C413.803 84.2232 418.859 85.0284 423.917 84.7702C428.469 84.9232 433.004 84.1238 437.229 82.4236C441.455 80.7234 445.279 78.1597 448.457 74.8965C448.658 74.6914 448.773 74.4167 448.777 74.1295V67.7387C448.78 67.5125 448.715 67.2908 448.589 67.1025C448.464 66.9143 448.284 66.7686 448.074 66.6846" fill="#6A634D"/>
<path d="M512.014 65.9828C511.751 65.9134 511.471 65.9392 511.226 66.0562C510.98 66.1732 510.784 66.3735 510.672 66.6216L510.448 67.0686C509.484 69.6776 507.74 71.9264 505.453 73.5099C503.167 75.0935 500.448 75.9346 497.667 75.9196H475.842V52.2101H496.069C500.287 52.2101 502.46 53.4242 502.939 55.8847C502.978 56.1529 503.112 56.3979 503.318 56.5742C503.524 56.7506 503.786 56.8464 504.057 56.8437C504.337 56.8196 504.597 56.6911 504.787 56.4839C504.976 56.2768 505.081 56.0062 505.08 55.7254V41.6656C505.108 41.3698 505.018 41.0747 504.829 40.8452C504.64 40.6157 504.368 40.4704 504.073 40.4409C503.777 40.4114 503.482 40.5002 503.251 40.6878C503.021 40.8755 502.874 41.1467 502.843 41.4423C502.332 43.9347 500.031 45.1489 495.845 45.1489H475.714V22.0785H498.529C500.727 22.1015 502.85 22.879 504.543 24.281C506.236 25.683 507.396 27.6241 507.828 29.7792C507.889 30.0251 508.028 30.2446 508.223 30.4057C508.419 30.5669 508.661 30.661 508.914 30.674C509.188 30.6425 509.441 30.5108 509.624 30.3044C509.807 30.098 509.907 29.8316 509.905 29.5558V16.7742C509.905 16.4776 509.787 16.1933 509.577 15.9836C509.368 15.7739 509.083 15.656 508.787 15.656H460.504C460.21 15.6377 459.919 15.7367 459.697 15.9313C459.474 16.1259 459.338 16.4001 459.317 16.6949C459.296 16.9897 459.392 17.2811 459.584 17.5054C459.777 17.7296 460.05 17.8689 460.345 17.8927C461.61 18.0403 462.779 18.6438 463.632 19.5907C464.485 20.5376 464.963 21.7629 464.978 23.0371V75.7924C464.971 76.9769 464.563 78.1242 463.82 79.0468C463.077 79.9695 462.044 80.6134 460.888 80.8734H460.664C460.368 80.8947 460.092 81.0327 459.897 81.2574C459.702 81.4821 459.605 81.775 459.626 82.0716C459.647 82.3682 459.785 82.6442 460.01 82.8389C460.235 83.0337 460.527 83.1313 460.824 83.1102H509.234C509.503 83.1065 509.762 83.0082 509.967 82.833C510.171 82.6578 510.307 82.4166 510.352 82.1512L512.908 67.2606C512.951 66.9871 512.894 66.7075 512.748 66.4727C512.601 66.2379 512.374 66.0637 512.11 65.9825" fill="#6A634D"/>
<path d="M259.644 22.9731C259.64 21.7919 260.036 20.6442 260.767 19.7162C261.498 18.7881 262.521 18.1345 263.67 17.8608C263.932 17.8003 264.163 17.6475 264.322 17.4303C264.48 17.2132 264.555 16.9463 264.533 16.6785C264.52 16.4338 264.429 16.1996 264.274 16.0099C264.119 15.8203 263.907 15.685 263.67 15.624H244.498C244.228 15.6335 243.97 15.7404 243.773 15.9251C243.575 16.1099 243.451 16.3598 243.424 16.6287C243.397 16.8977 243.468 17.1677 243.624 17.3883C243.78 17.6089 244.011 17.7653 244.274 17.8288C245.446 18.0727 246.498 18.7154 247.25 19.6476C248.001 20.5799 248.406 21.744 248.396 22.9414V45.0853H211.554V23.2289V22.9731C211.564 21.7715 211.985 20.6095 212.746 19.6797C213.507 18.7499 214.564 18.108 215.739 17.8605C215.987 17.7937 216.203 17.6417 216.349 17.4311C216.495 17.2205 216.562 16.9647 216.538 16.7094C216.542 16.466 216.465 16.2282 216.321 16.032C216.177 15.8359 215.973 15.6921 215.739 15.6226H196.567C196.281 15.6221 196.006 15.7313 195.798 15.9274C195.59 16.1234 195.465 16.3916 195.449 16.677C195.426 16.9366 195.498 17.1955 195.65 17.4068C195.803 17.618 196.026 17.7677 196.28 17.828H196.759C197.74 18.0998 198.621 18.6531 199.291 19.4198C199.961 20.1865 200.392 21.1328 200.53 22.1417C200.53 22.3123 200.53 22.4826 200.53 22.6525C200.53 22.6525 200.53 22.6525 200.53 22.8445V75.4402V75.7601C200.529 76.9273 200.139 78.061 199.421 78.9814C198.704 79.9017 197.699 80.5564 196.567 80.8411L196.152 81.0331C195.936 81.1191 195.753 81.2696 195.627 81.4644C195.501 81.6591 195.439 81.8883 195.449 82.12C195.472 82.4027 195.6 82.6666 195.806 82.8612C196.013 83.0558 196.284 83.1672 196.567 83.1741H215.739C216.025 83.1746 216.3 83.0658 216.508 82.8697C216.716 82.6736 216.841 82.4054 216.858 82.12C216.874 81.8831 216.815 81.647 216.689 81.4459C216.563 81.2449 216.375 81.0891 216.155 81.0014H215.739C214.595 80.729 213.577 80.0801 212.846 79.1586C212.116 78.2371 211.717 77.0966 211.713 75.9208V52.403H248.556C248.556 52.403 248.556 74.7707 248.556 75.218C248.619 76.0152 248.532 76.8171 248.3 77.5823C247.989 78.3763 247.489 79.0824 246.843 79.6392C246.197 80.1961 245.425 80.5869 244.593 80.7777L244.146 80.9697C243.909 81.0744 243.716 81.258 243.6 81.489C243.483 81.7201 243.45 81.9843 243.507 82.2369C243.564 82.4894 243.706 82.7148 243.91 82.8741C244.114 83.0334 244.367 83.117 244.625 83.1107H263.798C264.056 83.117 264.309 83.0334 264.513 82.8741C264.717 82.7148 264.859 82.4894 264.916 82.2369C264.973 81.9843 264.94 81.7201 264.823 81.489C264.707 81.258 264.514 81.0744 264.277 80.9697L263.67 80.8419C262.523 80.5746 261.501 79.9269 260.77 79.0042C260.039 78.0816 259.642 76.9385 259.644 75.7613L259.644 22.9731Z" fill="#6A634D"/>
<path d="M229.065 118.291H239.002V109.632H242.645V130.466H239.002V121.678H229.065V130.466H225.422V109.632H229.065V118.291Z" fill="#F57F29"/>
<path d="M268.846 130.816C266.719 130.81 264.642 130.174 262.876 128.988C261.11 127.802 259.735 126.12 258.923 124.154C258.112 122.188 257.902 120.025 258.318 117.939C258.735 115.853 259.76 113.937 261.264 112.433C262.768 110.929 264.684 109.904 266.77 109.488C268.855 109.071 271.018 109.282 272.984 110.093C274.951 110.904 276.633 112.279 277.818 114.045C279.004 115.811 279.64 117.889 279.647 120.016C279.678 121.453 279.416 122.883 278.876 124.215C278.336 125.548 277.53 126.757 276.507 127.768C275.484 128.779 274.266 129.571 272.927 130.095C271.588 130.619 270.156 130.864 268.718 130.816M268.718 112.635C267.766 112.638 266.825 112.834 265.95 113.21C265.075 113.587 264.286 114.136 263.629 114.826C262.973 115.516 262.462 116.331 262.129 117.223C261.795 118.115 261.646 119.064 261.689 120.016C261.65 120.974 261.805 121.931 262.143 122.829C262.481 123.726 262.997 124.547 263.658 125.241C264.32 125.936 265.115 126.49 265.995 126.871C266.875 127.253 267.823 127.453 268.782 127.461C269.735 127.458 270.676 127.262 271.551 126.885C272.425 126.509 273.215 125.959 273.871 125.27C274.528 124.58 275.038 123.765 275.372 122.873C275.706 121.981 275.855 121.031 275.812 120.08C275.851 119.121 275.696 118.165 275.358 117.267C275.019 116.369 274.504 115.549 273.842 114.854C273.181 114.16 272.386 113.606 271.506 113.224C270.626 112.843 269.678 112.642 268.718 112.635Z" fill="#F57F29"/>
<path d="M298.691 130.466V113.019H292.077V109.632H308.98V113.019H302.366V130.466H298.691Z" fill="#F57F29"/>
<path d="M328.407 121.583V127.174H340.326V130.466H324.732V109.632H340.166V112.923H328.407V118.323H338.856V121.583H328.407Z" fill="#F57F29"/>
<path d="M358.604 130.466V109.632H362.247V127.142H373.207V130.466H358.604Z" fill="#F57F29"/>
<path d="M393.785 118.388C398.195 119.475 400.463 121.04 400.463 124.523C400.463 128.006 397.268 130.914 393.018 130.914C389.823 130.972 386.723 129.832 384.327 127.718L386.531 125.098C388.296 126.815 390.652 127.787 393.114 127.814C393.529 127.882 393.954 127.868 394.364 127.771C394.774 127.675 395.161 127.498 395.503 127.252C395.844 127.005 396.134 126.694 396.354 126.335C396.575 125.977 396.723 125.578 396.789 125.162C396.789 123.66 395.958 122.829 392.091 121.966C387.65 120.881 385.157 119.57 385.157 115.576C385.196 114.701 385.413 113.844 385.797 113.056C386.18 112.269 386.721 111.57 387.387 111C388.052 110.431 388.827 110.005 389.664 109.747C390.5 109.49 391.381 109.407 392.251 109.504C394.997 109.449 397.672 110.379 399.792 112.125L397.875 114.713C396.27 113.408 394.286 112.657 392.219 112.572C391.832 112.499 391.433 112.507 391.049 112.595C390.664 112.682 390.302 112.849 389.984 113.082C389.666 113.316 389.4 113.613 389.202 113.954C389.004 114.295 388.878 114.673 388.832 115.064C388.832 116.694 389.791 117.429 393.785 118.26" fill="#F57F29"/>
<path d="M405.255 114.136C405.257 113.564 405.377 112.998 405.607 112.475C405.826 111.962 406.141 111.496 406.534 111.101C406.93 110.709 407.396 110.395 407.908 110.174C408.933 109.762 410.078 109.762 411.103 110.174C412.137 110.617 412.961 111.441 413.404 112.475C413.816 113.5 413.816 114.645 413.404 115.67C413.182 116.181 412.868 116.647 412.477 117.044C412.08 117.435 411.614 117.75 411.103 117.971C410.077 118.38 408.933 118.38 407.908 117.971C406.874 117.528 406.05 116.704 405.607 115.67C405.372 115.137 405.252 114.56 405.255 113.977M406.022 113.977C406.024 114.45 406.122 114.917 406.31 115.351C406.669 116.201 407.345 116.877 408.195 117.236C408.631 117.417 409.098 117.51 409.569 117.51C410.041 117.51 410.508 117.417 410.943 117.236C411.795 116.88 412.472 116.203 412.828 115.351C413.015 114.917 413.113 114.449 413.116 113.977C413.114 113.504 413.017 113.036 412.828 112.603C412.469 111.753 411.793 111.077 410.943 110.717C410.508 110.536 410.041 110.443 409.569 110.443C409.098 110.443 408.631 110.536 408.195 110.717C407.345 111.077 406.669 111.753 406.31 112.603C406.121 113.036 406.023 113.504 406.022 113.977ZM407.908 111.484H409.825C410.294 111.447 410.76 111.584 411.135 111.868C411.278 112.009 411.389 112.18 411.46 112.367C411.532 112.555 411.563 112.755 411.55 112.955C411.563 113.128 411.542 113.302 411.487 113.467C411.432 113.631 411.345 113.784 411.231 113.914C411.004 114.131 410.712 114.266 410.4 114.297L411.678 116.374H410.656L409.409 114.361H408.738V116.63H407.844V111.645L407.908 111.484ZM408.802 113.625H409.889H410.272C410.39 113.584 410.491 113.506 410.56 113.402C410.629 113.298 410.663 113.175 410.656 113.05C410.663 112.926 410.629 112.803 410.56 112.699C410.491 112.595 410.39 112.517 410.272 112.475H409.889H408.802V113.849V113.625Z" fill="#231F20"/>
</svg>
