<svg width="486" height="179" viewBox="0 0 486 179" fill="none" xmlns="http://www.w3.org/2000/svg">
<g clip-path="url(#clip0_7450_8369)">
<path d="M14.8244 111.792C18.9682 111.792 21.9688 113.113 24.773 115.614C25.1481 115.935 25.1481 116.435 24.8087 116.757L22.3082 119.347C22.0224 119.668 21.6116 119.668 21.2722 119.347C19.5397 117.829 17.2535 116.918 14.9494 116.918C9.69827 116.918 5.7867 121.311 5.7867 126.491C5.7867 131.671 9.734 135.975 14.9851 135.975C17.45 135.975 19.5397 135.029 21.2722 133.636C21.5937 133.35 22.0581 133.386 22.3082 133.636L24.8623 136.261C25.1838 136.547 25.1124 137.083 24.8266 137.369C22.0403 140.083 18.5038 141.352 14.8423 141.352C6.62617 141.352 0.0175781 134.814 0.0175781 126.616C0.0175781 118.418 6.62617 111.792 14.8423 111.792H14.8244Z" fill="#4A665C"/>
<path d="M50.9749 111.792C59.191 111.792 65.7639 118.4 65.7639 126.616C65.7639 134.832 59.191 141.352 50.9749 141.352C42.7588 141.352 36.2217 134.814 36.2217 126.616C36.2217 118.418 42.7588 111.792 50.9749 111.792ZM50.9749 136.029C56.1546 136.029 60.4234 131.796 60.4234 126.616C60.4234 121.436 56.1546 117.132 50.9749 117.132C45.7952 117.132 41.5621 121.436 41.5621 126.616C41.5621 131.796 45.7952 136.029 50.9749 136.029Z" fill="#4A665C"/>
<path d="M82.948 117.133H76.6609C76.2144 117.133 75.875 116.758 75.875 116.347V112.989C75.875 112.579 76.1965 112.204 76.6609 112.204H94.6113C95.0578 112.204 95.3971 112.579 95.3971 112.989V116.347C95.3971 116.758 95.0756 117.133 94.6113 117.133H88.3242V140.174C88.3242 140.585 87.9491 140.96 87.5383 140.96H83.716C83.3052 140.96 82.9301 140.585 82.9301 140.174V117.133H82.948Z" fill="#4A665C"/>
<path d="M107.882 112.989C107.882 112.579 108.203 112.204 108.668 112.204H125.386C125.832 112.204 126.172 112.579 126.172 112.989V116.347C126.172 116.758 125.85 117.133 125.386 117.133H113.222V123.867H123.367C123.778 123.867 124.153 124.242 124.153 124.653V128.064C124.153 128.511 123.778 128.85 123.367 128.85H113.222V136.03H125.386C125.832 136.03 126.172 136.405 126.172 136.816V140.192C126.172 140.603 125.85 140.978 125.386 140.978H108.668C108.221 140.978 107.882 140.603 107.882 140.192V113.007V112.989Z" fill="#4A665C"/>
<path d="M157.535 112.989C157.535 112.579 157.91 112.204 158.321 112.204H162.143C162.59 112.204 162.929 112.579 162.929 112.989V123.867H176.325V112.989C176.325 112.579 176.647 112.204 177.111 112.204H180.897C181.308 112.204 181.683 112.579 181.683 112.989V140.174C181.683 140.585 181.308 140.96 180.897 140.96H177.111C176.664 140.96 176.325 140.585 176.325 140.174V128.832H162.929V140.174C162.929 140.585 162.608 140.96 162.143 140.96H158.321C157.91 140.96 157.535 140.585 157.535 140.174V112.989Z" fill="#4A665C"/>
<path d="M210.047 111.792C218.263 111.792 224.836 118.4 224.836 126.616C224.836 134.832 218.263 141.352 210.047 141.352C201.831 141.352 195.294 134.814 195.294 126.616C195.294 118.418 201.831 111.792 210.047 111.792ZM210.047 136.029C215.227 136.029 219.496 131.796 219.496 126.616C219.496 121.436 215.227 117.132 210.047 117.132C204.867 117.132 200.634 121.436 200.634 126.616C200.634 131.796 204.867 136.029 210.047 136.029Z" fill="#4A665C"/>
<path d="M236.748 136.922L238.23 134.386C238.552 133.814 239.266 133.814 239.624 134.1C239.82 134.225 243.16 136.654 245.821 136.654C247.965 136.654 249.554 135.261 249.554 133.493C249.554 131.403 247.786 129.956 244.339 128.563C240.481 127.009 236.623 124.544 236.623 119.686C236.623 116.025 239.338 111.792 245.857 111.792C250.054 111.792 253.252 113.935 254.073 114.542C254.484 114.792 254.609 115.489 254.323 115.9L252.769 118.239C252.448 118.739 251.823 119.061 251.323 118.739C251.001 118.525 247.875 116.489 245.607 116.489C243.339 116.489 241.999 118.043 241.999 119.365C241.999 121.294 243.517 122.615 246.839 123.973C250.822 125.58 255.431 127.956 255.431 133.26C255.431 137.494 251.769 141.387 245.982 141.387C240.802 141.387 237.766 138.958 236.944 138.19C236.569 137.815 236.373 137.619 236.73 136.958L236.748 136.922Z" fill="#4A665C"/>
<path d="M268.916 112.989C268.916 112.579 269.238 112.204 269.702 112.204H279.347C284.402 112.204 288.546 116.312 288.546 121.277C288.546 126.242 284.402 130.511 279.383 130.511H274.257V140.156C274.257 140.567 273.882 140.942 273.471 140.942H269.684C269.238 140.942 268.898 140.567 268.898 140.156V112.972L268.916 112.989ZM279.008 125.51C281.312 125.51 283.241 123.67 283.241 121.241C283.241 118.991 281.312 117.258 279.008 117.258H274.239V125.51H279.008Z" fill="#4A665C"/>
<path d="M301.44 112.989C301.44 112.579 301.816 112.204 302.226 112.204H306.049C306.459 112.204 306.834 112.579 306.834 112.989V140.174C306.834 140.585 306.459 140.96 306.049 140.96H302.226C301.816 140.96 301.44 140.585 301.44 140.174V112.989Z" fill="#4A665C"/>
<path d="M326.376 117.133H320.089C319.642 117.133 319.303 116.758 319.303 116.347V112.989C319.303 112.579 319.624 112.204 320.089 112.204H338.039C338.485 112.204 338.825 112.579 338.825 112.989V116.347C338.825 116.758 338.503 117.133 338.039 117.133H331.752V140.174C331.752 140.585 331.377 140.96 330.966 140.96H327.144C326.733 140.96 326.358 140.585 326.358 140.174V117.133H326.376Z" fill="#4A665C"/>
<path d="M346.022 139.887L358.793 112.238C358.918 111.988 359.114 111.792 359.489 111.792H359.9C360.311 111.792 360.472 111.988 360.597 112.238L373.242 139.887C373.492 140.423 373.153 140.959 372.546 140.959H368.973C368.348 140.959 368.063 140.709 367.777 140.137L365.758 135.707H353.47L351.452 140.137C351.291 140.548 350.916 140.959 350.255 140.959H346.683C346.076 140.959 345.736 140.423 345.986 139.887H346.022ZM363.758 131.135L359.65 122.097H359.525L355.506 131.135H363.758Z" fill="#4A665C"/>
<path d="M385.209 112.989C385.209 112.579 385.53 112.204 385.995 112.204H389.781C390.192 112.204 390.567 112.579 390.567 112.989V136.03H401.034C401.48 136.03 401.82 136.405 401.82 136.816V140.192C401.82 140.603 401.498 140.978 401.034 140.978H385.995C385.548 140.978 385.209 140.603 385.209 140.192V113.007V112.989Z" fill="#4A665C"/>
<path d="M414.161 112.989C414.161 112.579 414.536 112.204 414.947 112.204H418.769C419.18 112.204 419.555 112.579 419.555 112.989V140.174C419.555 140.585 419.18 140.96 418.769 140.96H414.947C414.536 140.96 414.161 140.585 414.161 140.174V112.989Z" fill="#4A665C"/>
<path d="M439.096 117.133H432.809C432.363 117.133 432.023 116.758 432.023 116.347V112.989C432.023 112.579 432.345 112.204 432.809 112.204H450.76C451.206 112.204 451.546 112.579 451.546 112.989V116.347C451.546 116.758 451.224 117.133 450.76 117.133H444.473V140.174C444.473 140.585 444.098 140.96 443.687 140.96H439.864C439.454 140.96 439.079 140.585 439.079 140.174V117.133H439.096Z" fill="#4A665C"/>
<path d="M470.907 127.118L461.548 113.4C461.226 112.864 461.548 112.204 462.209 112.204H466.406C466.727 112.204 466.942 112.418 467.067 112.579L473.64 122.027L480.212 112.579C480.337 112.418 480.534 112.204 480.873 112.204H485.106C485.767 112.204 486.089 112.864 485.767 113.4L476.283 127.082V140.192C476.283 140.603 475.908 140.978 475.497 140.978H471.711C471.264 140.978 470.925 140.603 470.925 140.192V127.135L470.907 127.118Z" fill="#4A665C"/>
<path d="M169.091 176.36L169.859 175.038C170.037 174.735 170.394 174.735 170.591 174.896C170.698 174.967 172.431 176.217 173.824 176.217C174.931 176.217 175.771 175.485 175.771 174.574C175.771 173.485 174.842 172.734 173.056 172.002C171.037 171.181 169.037 169.895 169.037 167.376C169.037 165.465 170.448 163.268 173.859 163.268C176.039 163.268 177.717 164.375 178.146 164.697C178.36 164.822 178.432 165.197 178.271 165.411L177.45 166.626C177.271 166.876 176.949 167.055 176.699 166.876C176.521 166.769 174.895 165.697 173.717 165.697C172.538 165.697 171.823 166.519 171.823 167.197C171.823 168.198 172.609 168.894 174.36 169.591C176.431 170.43 178.843 171.663 178.843 174.431C178.843 176.646 176.932 178.682 173.913 178.682C171.216 178.682 169.626 177.414 169.198 177.003C169.001 176.807 168.894 176.7 169.091 176.36Z" fill="#4A665C"/>
<path d="M185.88 163.876C185.88 163.662 186.076 163.465 186.291 163.465H188.291C188.505 163.465 188.702 163.662 188.702 163.876V178.058C188.702 178.272 188.505 178.469 188.291 178.469H186.291C186.076 178.469 185.88 178.272 185.88 178.058V163.876Z" fill="#4A665C"/>
<path d="M196.864 163.643C196.864 163.429 197.061 163.25 197.275 163.25H197.811L206.724 172.717H206.741V163.876C206.741 163.661 206.92 163.465 207.152 163.465H209.117C209.331 163.465 209.528 163.661 209.528 163.876V178.289C209.528 178.504 209.331 178.682 209.117 178.682H208.599L199.651 168.859H199.633V178.075C199.633 178.289 199.454 178.486 199.222 178.486H197.275C197.061 178.486 196.864 178.289 196.864 178.075V163.661V163.643Z" fill="#4A665C"/>
<path d="M224.372 163.25C226.533 163.25 228.105 163.929 229.551 165.251C229.748 165.43 229.748 165.68 229.569 165.858L228.265 167.216C228.122 167.394 227.908 167.394 227.729 167.216C226.836 166.43 225.622 165.948 224.425 165.948C221.675 165.948 219.656 168.234 219.656 170.931C219.656 173.628 221.71 175.878 224.461 175.878C225.747 175.878 226.836 175.378 227.729 174.664C227.908 174.521 228.14 174.539 228.265 174.664L229.587 176.039C229.766 176.182 229.712 176.468 229.569 176.611C228.104 178.022 226.265 178.682 224.372 178.682C220.085 178.682 216.638 175.271 216.638 170.984C216.638 166.698 220.085 163.25 224.372 163.25Z" fill="#4A665C"/>
<path d="M236.659 163.876C236.659 163.662 236.838 163.465 237.07 163.465H245.786C246.018 163.465 246.197 163.662 246.197 163.876V165.627C246.197 165.841 246.018 166.037 245.786 166.037H239.446V169.556H244.732C244.947 169.556 245.143 169.752 245.143 169.967V171.753C245.143 171.985 244.947 172.164 244.732 172.164H239.446V175.914H245.786C246.018 175.914 246.197 176.111 246.197 176.325V178.076C246.197 178.29 246.018 178.486 245.786 178.486H237.07C236.838 178.486 236.659 178.29 236.659 178.076V163.894V163.876Z" fill="#4A665C"/>
<path d="M263.647 167.787L261.753 168.198C261.557 168.234 261.343 168.109 261.325 167.912L261.2 166.858C261.182 166.68 261.218 166.555 261.307 166.465L264.397 163.875H265.897C266.112 163.875 266.29 164.072 266.29 164.286V178.039C266.29 178.254 266.112 178.45 265.897 178.45H264.058C263.825 178.45 263.647 178.254 263.647 178.039V167.769V167.787Z" fill="#4A665C"/>
<path d="M275.363 176.611C276.364 176.289 279.418 174.86 280.079 172.503C279.722 172.717 278.65 173.11 277.632 173.11C275.488 173.11 273.256 171.52 273.256 168.466C273.256 165.769 275.471 163.554 278.096 163.554C281.454 163.554 283.187 166.251 283.187 169.466C283.187 175.718 277.9 178.2 276.06 178.808C275.756 178.897 275.542 178.79 275.453 178.504L274.953 177.236C274.845 176.986 274.935 176.736 275.346 176.611H275.363ZM280.632 169.145C280.632 167.68 279.864 166.001 278.132 166.001C276.774 166.001 275.685 167.162 275.685 168.502C275.685 169.841 276.774 171.002 278.15 171.002C279.525 171.002 280.4 169.913 280.632 169.145Z" fill="#4A665C"/>
<path d="M289.081 177.558C290.492 175.843 293.189 172.325 294.636 170.431C295.297 169.61 295.725 168.788 295.725 168.056C295.725 167.091 294.993 166.109 293.457 166.109C292.421 166.109 291.546 166.841 291.064 167.377C290.885 167.556 290.653 167.556 290.492 167.377L289.456 166.341C289.331 166.216 289.278 165.948 289.438 165.787C289.438 165.787 291.117 163.698 293.653 163.698C296.708 163.698 298.422 165.645 298.422 167.967C298.422 169.36 297.815 170.235 296.993 171.432C296.065 172.735 294.439 174.754 293.314 176.183H297.94C298.154 176.183 298.351 176.379 298.351 176.593V178.076C298.351 178.29 298.154 178.487 297.94 178.487H289.492C289.26 178.487 289.081 178.29 289.081 178.076V177.576V177.558Z" fill="#4A665C"/>
<path d="M307.387 170.985V170.914C306.512 170.45 305.173 169.271 305.173 167.592C305.173 165.216 307.227 163.68 309.816 163.68C312.406 163.68 314.55 165.216 314.55 167.592C314.55 169.217 313.228 170.378 312.335 170.896V170.985C313.299 171.485 314.925 172.718 314.925 174.558C314.925 176.897 312.96 178.666 309.799 178.666C306.637 178.666 304.762 176.88 304.762 174.558C304.762 172.7 306.762 171.289 307.352 170.985H307.387ZM309.888 176.487C311.067 176.487 312.12 175.701 312.12 174.522C312.12 173.557 311.335 172.575 309.888 172.253C308.459 172.575 307.655 173.557 307.655 174.522C307.655 175.701 308.727 176.487 309.888 176.487ZM311.835 167.717C311.835 166.681 310.96 165.895 309.834 165.895C308.798 165.895 307.923 166.681 307.923 167.717C307.923 168.681 308.53 169.431 309.87 169.753C311.192 169.449 311.817 168.646 311.817 167.717H311.835Z" fill="#4A665C"/>
<path d="M258.915 27.2392C258.843 27.0249 258.754 26.8105 258.7 26.5962V27.2392H258.915Z" fill="#504C41"/>
<path d="M258.7 52.6187V53.2617C258.772 53.0473 258.861 52.833 258.915 52.6187H258.7Z" fill="#504C41"/>
<path d="M219.924 7.7517C234.248 7.7517 245.411 15.5034 249.984 27.2381H258.682V26.5951C256.914 21.1118 254.038 16.2536 250.234 12.2527C242.965 4.59029 232.391 0 219.924 0C195.972 0 179.058 16.9144 179.058 39.9373C179.058 62.9602 195.972 79.8568 219.924 79.8568C232.391 79.8568 242.982 75.2665 250.234 67.6041C254.038 63.5854 256.932 58.745 258.682 53.2617V52.6187H249.984C245.411 64.3713 234.248 72.123 219.924 72.123C200.777 72.123 187.506 58.495 187.506 39.9373C187.506 21.3797 200.777 7.7517 219.924 7.7517Z" fill="#4A665C"/>
<path d="M258.7 19.6103V1.51709H250.252V8.50077C250.913 9.10804 251.574 9.73318 252.199 10.394C254.807 13.1446 256.986 16.2346 258.7 19.5925V19.6103Z" fill="#80A097"/>
<path d="M250.234 71.3359V78.3195H258.683V60.2441C256.968 63.602 254.789 66.6741 252.181 69.4426C251.556 70.1034 250.895 70.7286 250.234 71.3359Z" fill="#80A097"/>
<path d="M298.334 1.51709V35.471H252.681V43.2227H298.334V78.3375H306.8V1.51709H298.334Z" fill="#80A097"/>
<path d="M327.232 171.199H361.401" stroke="#C7AA5C" stroke-width="2.44697" stroke-miterlimit="10" stroke-linecap="round"/>
<path d="M119.437 171.199H153.605" stroke="#C7AA5C" stroke-width="2.44697" stroke-miterlimit="10" stroke-linecap="round"/>
</g>
<defs>
<clipPath id="clip0_7450_8369">
<rect width="485.857" height="178.825" fill="white"/>
</clipPath>
</defs>
</svg>
