<svg width="552" height="187" viewBox="0 0 552 187" fill="none" xmlns="http://www.w3.org/2000/svg">
<g clip-path="url(#clip0_7465_1003)">
<path d="M42.2109 36.5199V21.5456C42.2109 16.7349 39.6012 16.672 35.9618 16.6013V14.8169C39.6012 14.8877 42.8319 14.9506 46.1254 14.9506C49.081 14.9506 52.0994 14.8169 55.1965 14.8169V16.6013C51.5571 16.672 48.9474 16.7349 48.9474 21.5456V56.0297C48.9474 60.8404 51.5571 60.9033 55.1965 60.974V62.7583C52.1073 62.6876 49.0102 62.6247 45.9211 62.6247C42.8319 62.6247 39.5304 62.6955 35.9618 62.7583V60.974C39.6012 60.9033 42.2109 60.8325 42.2109 56.0297V39.334H14.4553V56.0297C14.4553 60.8404 17.065 60.9033 20.7045 60.974V62.7583C17.4109 62.7583 14.4553 62.6247 11.429 62.6247C8.1276 62.6247 4.90478 62.6955 1.46973 62.7583V60.974C5.10915 60.9033 7.71885 60.8325 7.71885 56.0297V21.5377C7.71885 16.7271 5.10915 16.6642 1.46973 16.5934V14.8091C4.70041 14.8798 7.86034 14.9427 10.9495 14.9427C14.0387 14.9427 17.2694 14.872 20.7045 14.8091V16.5934C17.065 16.6642 14.4553 16.7271 14.4553 21.5377V36.512H42.2109V36.5199Z" fill="#231F20"/>
<path d="M66.8065 33.9024C66.8065 31.2927 64.9514 30.8761 61.7207 30.8761V29.0918C64.3304 29.1625 67.0108 29.2254 69.6205 29.2254C72.3717 29.2254 75.2565 29.1547 77.7955 29.0918V30.8761C74.5648 30.8761 72.7097 31.2849 72.7097 33.9024V57.9478C72.7097 60.5575 74.5648 60.9741 77.7955 60.9741V62.7585C75.2565 62.6877 72.3717 62.6248 69.6205 62.6248C66.8694 62.6248 64.3304 62.6956 61.7207 62.7585V60.9741C64.9514 60.9741 66.8065 60.5654 66.8065 57.9478V33.9024Z" fill="#231F20"/>
<path d="M85.5538 54.4499H87.1337C88.5093 59.2606 90.6395 61.7996 95.6545 61.7996C100.945 61.7996 102.179 58.223 102.179 56.1007C102.179 53.2866 100.599 51.5022 95.9926 49.0969C88.4386 45.1824 86.442 42.5727 86.442 37.2118C86.442 32.5426 90.498 28.2822 96.472 28.2822C99.0817 28.2822 102.312 28.9032 104.576 28.9661L105.197 35.6947H103.751C102.996 32.9435 101.487 30.0587 96.9515 30.0587C93.375 30.0587 90.9775 32.3933 90.9775 35.5532C90.9775 38.7132 92.0073 40.1595 98.6022 43.3823C105.881 46.9589 107.257 49.8437 107.257 54.167C107.257 59.6615 102.171 63.576 95.0965 63.576C91.9365 63.576 89.1853 62.955 86.5756 61.7209L85.5459 54.4421L85.5538 54.4499Z" fill="#231F20"/>
<path d="M127.254 31.2931H122.035C117.845 31.2931 117.02 31.8433 115.849 36.5125H114.064L115.023 27.4414H116.399C116.399 28.7463 117.979 29.0921 119.425 29.0921H141.341C142.92 29.0921 143.746 29.0921 144.98 27.4414H146.356L145.672 36.5125H143.817C143.408 32.1184 142.858 31.2931 140.036 31.2931H133.166V57.9481C133.166 60.5578 135.021 60.9744 138.66 60.9744V62.7588C135.705 62.688 132.82 62.6252 130.076 62.6252C127.333 62.6252 124.786 62.6959 121.768 62.7588V60.9744C125.407 60.9744 127.262 60.5657 127.262 57.9481V31.2931H127.254Z" fill="#231F20"/>
<path d="M170.873 28.2744C182.003 28.2744 189.282 35.8284 189.282 45.7248C189.282 54.2456 182.208 63.5839 170.393 63.5839C158.579 63.5839 151.567 56.3051 151.567 45.7955C151.567 35.286 160.772 28.2744 170.873 28.2744ZM171.148 61.383C179.802 61.383 182.554 53.829 182.554 46.4087C182.554 36.7874 177.13 30.4675 169.843 30.4675C161.597 30.4675 158.304 37.6835 158.304 45.1038C158.304 54.3085 163.94 61.383 171.148 61.383Z" fill="#231F20"/>
<path d="M200.963 33.9024C200.963 31.2927 199.108 30.8761 195.877 30.8761V29.0918C198.487 29.1625 201.167 29.2254 203.777 29.2254C207.078 29.2254 211.677 29.0918 214.011 29.0918C219.71 29.0918 224.387 31.9059 224.387 37.4004C224.387 41.3149 221.777 43.9246 217.038 45.5046C224.387 58.2858 226.171 59.9287 230.573 60.9584V62.7428C229.268 62.672 227.759 62.6091 226.454 62.6091C224.945 62.6091 223.499 62.6799 221.99 62.7428C219.309 59.7243 215.049 52.642 211.48 46.8094C210.796 46.8802 209.9 46.9431 209.216 46.9431C208.462 46.9431 207.566 46.8723 206.882 46.8094V57.94C206.882 60.754 208.941 60.9663 211.967 60.9663V62.7506C209.429 62.6799 206.544 62.617 203.793 62.617C201.041 62.617 198.502 62.6877 195.893 62.7506V60.9663C199.123 60.9663 200.978 60.5575 200.978 57.94V33.8946L200.963 33.9024ZM209.413 44.7578C215.182 44.7578 218.484 42.5569 218.484 37.4082C218.484 33.0771 215.458 30.884 210.238 30.884C209.617 30.884 207.558 31.0255 206.874 31.0884V44.7578H209.413Z" fill="#231F20"/>
<path d="M242.725 33.9024C242.725 31.2927 240.87 30.8761 237.64 30.8761V29.0918C240.249 29.1625 242.93 29.2254 245.539 29.2254C248.291 29.2254 251.175 29.1547 253.714 29.0918V30.8761C250.484 30.8761 248.629 31.2849 248.629 33.9024V57.9478C248.629 60.5575 250.484 60.9741 253.714 60.9741V62.7585C251.175 62.6877 248.291 62.6248 245.539 62.6248C242.788 62.6248 240.249 62.6956 237.64 62.7585V60.9741C240.87 60.9741 242.725 60.5654 242.725 57.9478V33.9024Z" fill="#231F20"/>
<path d="M292.325 61.3123C287.656 62.7508 285.934 63.5761 280.99 63.5761C268.83 63.5761 261.826 56.0222 261.826 45.9214C261.826 35.066 270.206 28.2666 280.652 28.2666C286.28 28.2666 287.452 29.9173 293.017 30.1217L293.426 38.0923H291.846C291.846 36.5123 289.786 30.4676 281.611 30.4676C275.637 30.4676 268.146 34.0441 268.146 44.9624C268.146 52.7915 273.232 61.383 281.336 61.383C286.005 61.383 289.645 59.8031 291.846 53.2788L293.63 53.4832L292.325 61.3123Z" fill="#231F20"/>
<path d="M361.018 36.5199V21.5456C361.018 16.7349 358.409 16.672 354.769 16.6013V14.8169C358.409 14.8877 361.639 14.9506 364.933 14.9506C367.889 14.9506 370.907 14.8169 374.004 14.8169V16.6013C370.365 16.672 367.755 16.7349 367.755 21.5456V56.0297C367.755 60.8404 370.365 60.9033 374.004 60.974V62.7583C370.915 62.6876 367.818 62.6247 364.729 62.6247C361.639 62.6247 358.338 62.6955 354.769 62.7583V60.974C358.409 60.9033 361.018 60.8325 361.018 56.0297V39.334H333.263V56.0297C333.263 60.8404 335.873 60.9033 339.512 60.974V62.7583C336.211 62.7583 333.263 62.6247 330.237 62.6247C326.935 62.6247 323.712 62.6955 320.277 62.7583V60.974C323.917 60.9033 326.526 60.8325 326.526 56.0297V21.5377C326.526 16.7271 323.917 16.6642 320.277 16.5934V14.8091C323.508 14.8798 326.668 14.9427 329.757 14.9427C332.846 14.9427 336.077 14.872 339.512 14.8091V16.5934C335.873 16.6642 333.263 16.7271 333.263 21.5377V36.512H361.018V36.5199Z" fill="#231F20"/>
<path d="M397.775 28.2744C408.906 28.2744 416.185 35.8284 416.185 45.7248C416.185 54.2456 409.11 63.5839 397.296 63.5839C385.481 63.5839 378.47 56.3051 378.47 45.7955C378.47 35.286 387.674 28.2744 397.775 28.2744ZM398.05 61.383C406.705 61.383 409.456 53.829 409.456 46.4087C409.456 36.7874 404.032 30.4675 396.745 30.4675C388.5 30.4675 385.206 37.6835 385.206 45.1038C385.206 54.3085 390.842 61.383 398.05 61.383Z" fill="#231F20"/>
<path d="M433.084 31.2931H427.864C423.674 31.2931 422.849 31.8433 421.678 36.5125H419.894L420.853 27.4414H422.228C422.228 28.7463 423.808 29.0921 425.254 29.0921H447.17C448.75 29.0921 449.575 29.0921 450.809 27.4414H452.185L451.493 36.5125H449.638C449.221 32.1184 448.679 31.2931 445.857 31.2931H438.987V57.9481C438.987 60.5578 440.842 60.9744 444.481 60.9744V62.7588C441.526 62.688 438.641 62.6252 435.898 62.6252C433.154 62.6252 430.607 62.6959 427.589 62.7588V60.9744C431.228 60.9744 433.084 60.5657 433.084 57.9481V31.2931Z" fill="#231F20"/>
<path d="M486.528 62.7585C481.583 62.6877 476.702 62.6248 471.758 62.6248C467.364 62.6248 462.899 62.6956 458.497 62.7585V60.9741C461.728 60.9741 463.583 60.5654 463.583 57.9478V33.9024C463.583 31.2927 461.728 30.8761 458.497 30.8761V29.0918C461.586 29.1625 464.683 29.2254 467.773 29.2254C473.409 29.2254 479.107 29.1547 484.673 29.0918L485.081 36.3707H483.643C482.818 31.7015 481.646 31.2849 474.572 31.2849H469.486V44.2705H475.185C478.62 44.2705 480.129 44.1997 480.129 39.4598H481.914C481.843 41.2442 481.78 43.0993 481.78 44.9544C481.78 46.8094 481.851 48.7353 481.914 50.6532H480.129C480.129 46.8723 479.233 46.4636 475.185 46.4636H469.486V56.4936C469.486 59.4492 471.137 60.5497 476.836 60.5497C483.777 60.5497 484.256 59.6536 486.936 55.118H488.65L486.52 62.7427L486.528 62.7585Z" fill="#231F20"/>
<path d="M499.718 33.9024C499.718 31.2927 497.863 30.8761 494.632 30.8761V29.0918C497.242 29.1625 499.922 29.2254 502.532 29.2254C505.283 29.2254 508.168 29.1547 510.707 29.0918V30.8761C507.688 30.8761 505.621 31.0805 505.621 33.9024V56.7766C505.621 59.6614 506.517 60.5575 511.941 60.5575C518.056 60.5575 519.565 59.5985 522.112 54.0333H523.826L521.766 62.7585C519.982 62.6877 511.052 62.6248 509.056 62.6248C504.245 62.6248 499.442 62.6956 494.632 62.7585V60.9741C497.863 60.9741 499.718 60.5654 499.718 57.9478V33.9024Z" fill="#231F20"/>
<path d="M527.67 54.4499H529.25C530.625 59.2606 532.756 61.7996 537.771 61.7996C543.061 61.7996 544.295 58.223 544.295 56.1007C544.295 53.2866 542.715 51.5022 538.109 49.0969C530.555 45.1824 528.558 42.5727 528.558 37.2118C528.558 32.5426 532.614 28.2822 538.588 28.2822C541.198 28.2822 544.429 28.9032 546.692 28.9661L547.313 35.6947H545.875C545.12 32.9435 543.611 30.0587 539.076 30.0587C535.507 30.0587 533.102 32.3933 533.102 35.5532C533.102 38.7132 534.131 40.1595 540.726 43.3823C548.005 46.9589 549.381 49.8437 549.381 54.167C549.381 59.6615 544.295 63.576 537.22 63.576C534.061 63.576 531.309 62.955 528.7 61.7209L527.67 54.4421V54.4499Z" fill="#231F20"/>
<path d="M134.336 106.809C134.336 114.261 128.771 121.406 120.455 121.406C114.174 121.406 110.448 116.658 110.448 111.557C110.448 103.288 117.035 96.96 124.385 96.96C131.121 96.96 134.336 101.346 134.336 106.809ZM128.614 104.357C128.614 101.708 128.103 98.8937 124.526 98.8937C118.505 98.8937 116.155 108.9 116.155 113.648C116.155 116.863 116.917 119.465 120.242 119.465C126.421 119.465 128.614 108.798 128.614 104.357Z" fill="#231F20"/>
<path d="M144.414 100.276H139.461L140.019 97.7218H145.074C146.607 87.7154 153.194 81.6392 159.364 81.6392C160.693 81.6392 161.66 82.4016 161.66 83.6829C161.66 85.2629 161.251 87.0551 159.773 87.0551C158.091 87.0551 157.321 85.4201 155.08 85.4201C152.84 85.4201 152.321 88.5329 151.81 91.4963L150.741 97.7218H156.613L156.055 100.276H150.081C150.081 100.276 147.283 112.94 146.198 117.161C143.557 127.466 136.592 132.528 130.493 131.585C129.18 131.381 128.339 130.477 128.535 129.219C128.779 127.655 129.455 125.949 130.917 126.177C132.583 126.436 133.086 128.166 135.311 128.504C137.528 128.85 138.911 125.147 139.469 123.001C140.035 120.855 144.421 100.276 144.421 100.276H144.414Z" fill="#231F20"/>
<path d="M206.222 106.974C207.181 109.655 209.036 115.495 210.136 117.004C211.166 118.38 213.225 118.859 215.426 118.859V120.644C212.817 120.644 210.136 120.51 207.526 120.51C204.162 120.51 200.861 120.581 197.496 120.644V118.859H198.73C200.444 118.859 202.511 118.513 202.511 116.595C202.511 115.841 201.961 113.915 201.482 112.61L198.047 102.651H181.901L180.392 107.461C179.496 110.346 178.537 113.506 178.537 115.636C178.537 118.867 180.801 118.726 183.206 118.867H184.786V120.651C182.105 120.651 179.362 120.518 176.682 120.518C174.001 120.518 171.116 120.589 168.365 120.651V118.867C172.555 118.388 173.31 117.837 175.031 113.994C176.131 111.518 176.957 108.845 177.845 106.298L186.641 81.7733C187.191 80.1933 188.079 77.6543 188.079 75.587C188.079 74.9032 188.079 74.3529 187.946 73.8027C189.384 73.1188 190.972 72.3642 191.931 70.7764H193.102L206.222 106.982V106.974ZM182.86 99.8289H197.009L189.659 79.6352H189.526L182.86 99.8289Z" fill="#231F20"/>
<path d="M255.679 86.9849C257.259 87.0556 258.91 87.1185 260.49 87.1185C262.274 87.1185 264.334 87.0477 266.055 86.9849V88.7692C262.762 88.7692 261.315 89.3902 261.315 90.9702C261.315 92.0706 261.386 93.0296 261.449 94.814L262.133 112.673C262.337 118.513 263.304 118.859 267.627 118.859V120.644C265.018 120.573 262.133 120.51 259.523 120.51C256.913 120.51 253.958 120.581 251.348 120.644V118.859C254.988 118.859 256.292 118.451 256.292 115.424C256.292 110.276 255.813 102.439 255.538 92.7545H255.404L242.419 121.06H241.46L228.411 93.7842H228.277C227.798 100.45 226.973 112.877 226.973 115.008C226.973 117.759 228.757 118.851 232.263 118.851V120.636C230.274 120.636 228.207 120.502 226.218 120.502C223.954 120.502 221.407 120.573 219.144 120.636V118.851C223.75 118.851 224.292 117.272 224.504 114.253L225.809 96.3939C226.014 93.7135 226.084 92.4086 226.084 90.695C226.084 88.9814 224.984 88.7692 220.999 88.7692V86.9849C222.987 86.9849 225.055 87.1185 227.043 87.1185C228.419 87.1185 230.07 86.9849 231.375 86.9849L243.81 112.264L255.695 86.9849H255.679Z" fill="#231F20"/>
<path d="M302.048 120.643C297.104 120.572 292.223 120.51 287.278 120.51C282.884 120.51 278.419 120.58 274.018 120.643V118.859C277.248 118.859 279.103 118.45 279.103 115.833V91.7872C279.103 89.1775 277.248 88.7609 274.018 88.7609V86.9766C277.107 87.0473 280.196 87.1102 283.293 87.1102C288.921 87.1102 294.628 87.0394 300.193 86.9766L300.61 94.2554H299.163C298.338 89.5863 297.175 89.1697 290.1 89.1697H285.014V102.155H290.713C294.148 102.155 295.658 102.085 295.658 97.3446H297.442C297.371 99.1289 297.308 100.984 297.308 102.839C297.308 104.694 297.379 106.62 297.442 108.538H295.658C295.658 104.757 294.762 104.348 290.713 104.348H285.014V114.378C285.014 117.334 286.665 118.434 292.364 118.434C299.305 118.434 299.784 117.538 302.465 113.003H304.178L302.048 120.628V120.643Z" fill="#231F20"/>
<path d="M314.822 91.7955C314.822 89.1858 312.967 88.7692 309.736 88.7692V86.9849C312.346 87.0556 315.026 87.1185 317.636 87.1185C320.938 87.1185 325.536 86.9849 327.871 86.9849C333.569 86.9849 338.246 89.7989 338.246 95.2934C338.246 99.208 335.637 101.818 330.897 103.398C338.246 116.179 340.031 117.822 344.433 118.851V120.636C343.128 120.565 341.619 120.502 340.314 120.502C338.805 120.502 337.358 120.573 335.849 120.636C333.169 117.617 328.908 110.535 325.339 104.703C324.656 104.773 323.76 104.844 323.076 104.844C322.321 104.844 321.425 104.773 320.741 104.703V115.833C320.741 118.647 322.801 118.859 325.827 118.859V120.644C323.288 120.573 320.403 120.51 317.652 120.51C314.901 120.51 312.362 120.581 309.752 120.644V118.859C312.983 118.859 314.838 118.451 314.838 115.833V91.7876L314.822 91.7955ZM323.272 102.643C329.042 102.643 332.343 100.442 332.343 95.2934C332.343 90.9623 329.317 88.7692 324.098 88.7692C323.477 88.7692 321.417 88.9028 320.733 88.9736V102.643H323.272Z" fill="#231F20"/>
<path d="M355.218 91.7955C355.218 89.1858 353.363 88.7692 350.132 88.7692V86.9849C352.742 87.0556 355.422 87.1185 358.032 87.1185C360.783 87.1185 363.668 87.0477 366.207 86.9849V88.7692C362.976 88.7692 361.121 89.1779 361.121 91.7955V115.841C361.121 118.451 362.976 118.867 366.207 118.867V120.652C363.668 120.581 360.783 120.518 358.032 120.518C355.281 120.518 352.742 120.589 350.132 120.652V118.867C353.363 118.867 355.218 118.458 355.218 115.841V91.7955Z" fill="#231F20"/>
<path d="M402.751 119.197C398.082 120.636 396.36 121.461 391.416 121.461C379.256 121.461 372.252 113.907 372.252 103.806C372.252 92.9507 380.631 86.1514 391.078 86.1514C396.714 86.1514 397.877 87.8021 403.443 88.0065L403.859 95.977H402.279C402.279 94.3971 400.22 88.3523 392.045 88.3523C386.071 88.3523 378.58 91.9289 378.58 102.847C378.58 110.676 383.665 119.268 391.77 119.268C396.439 119.268 400.086 117.688 402.279 111.164L404.064 111.368L402.759 119.197H402.751Z" fill="#231F20"/>
<path d="M429.885 118.859H430.71C432.424 118.859 434.145 118.379 434.145 117.208C434.145 116.383 433.941 115.833 433.595 114.944L431.056 108.004H419.375L417.866 112.468C417.591 113.364 416.695 115.699 416.695 116.933C416.695 118.584 418.959 118.859 420.264 118.859H421.089V120.643C418.754 120.573 416.42 120.51 414.085 120.51C412.301 120.51 410.304 120.58 408.457 120.643V118.859C411.963 118.859 412.993 117.42 413.543 115.974L423.368 90.899C423.714 90.0737 424.052 89.2483 424.052 88.6352C424.052 88.2893 423.982 88.0142 423.919 87.6762L429.209 85.6875L439.514 114.819C440.614 117.979 441.644 118.875 445.284 118.875V120.659C442.674 120.588 440.135 120.525 437.588 120.525C435.041 120.525 432.44 120.596 429.893 120.659V118.875L429.885 118.859ZM425.349 91.9288H425.216L420.201 105.803H430.301L425.357 91.9288H425.349Z" fill="#231F20"/>
<path d="M0 142.81V141.262H274.12H551.11V142.81H274.12H0Z" fill="#231F20"/>
<path d="M0 1.54067V0H274.12H551.11V1.54067H274.12H0Z" fill="#231F20"/>
<path d="M0 186.695V185.147H274.844H551.11V186.695H274.844H0Z" fill="#231F20"/>
<path d="M45.1978 154.397L43.7751 154.696C43.5 154.751 43.2799 155.026 43.2799 155.623V171.454C43.2799 171.643 43.1698 171.674 43.0362 171.674H41.2518C41.0317 171.674 40.9767 171.619 40.8431 171.431L33.3677 160.174C32.959 159.569 32.2987 158.5 32.1336 158.201H32.0786V168.805C32.0786 169.41 32.2987 169.686 32.5738 169.733L34.3031 170.008C34.5782 170.063 34.6883 170.252 34.6883 170.472V171.045C34.6883 171.321 34.5232 171.454 34.2795 171.454H27.488C27.2444 171.454 27.0793 171.321 27.0793 171.045V170.472C27.0793 170.252 27.1893 170.063 27.4645 170.008L28.8872 169.733C29.1623 169.678 29.3824 169.403 29.3824 168.805V155.631C29.3824 155.026 29.1623 154.751 28.8872 154.703L27.433 154.405C27.1579 154.35 27.0479 154.161 27.0479 153.941V153.391C27.0479 153.116 27.2129 152.982 27.4566 152.982H32.5266C32.8804 152.982 33.0219 153.202 33.2105 153.501L39.043 162.54C39.6168 163.421 40.2457 164.458 40.5208 165.087H40.5758V155.639C40.5758 155.034 40.3557 154.758 40.0806 154.711L38.3513 154.413C38.0762 154.358 37.9661 154.169 37.9661 153.949V153.399C37.9661 153.123 38.1312 152.99 38.3749 152.99H45.1664C45.4101 152.99 45.5751 153.123 45.5751 153.399V153.949C45.5751 154.169 45.4651 154.358 45.19 154.413L45.1978 154.397Z" fill="#231F20"/>
<path d="M59.8815 171.352C59.3863 171.541 58.3173 171.761 57.4998 171.761C56.077 171.761 55.5032 170.857 55.4167 169.843H55.3067C54.2927 170.88 53.09 171.761 51.062 171.761C48.7353 171.761 47.1475 170.086 47.1475 167.901C47.1475 164.254 50.5432 162.721 54.8193 162.752C55.0394 162.752 55.0945 162.509 55.0945 162.367V161.738C55.0945 159.986 53.7503 159.215 52.0839 159.215C50.9048 159.215 49.8122 159.569 49.0418 160.009C48.7667 160.174 48.5231 160.088 48.4366 159.765L48.1379 158.366C48.0829 158.123 48.1379 157.903 48.3816 157.816C49.5842 157.321 51.2271 156.991 52.9014 156.991C56.3286 156.991 58.105 158.579 58.105 162.084V168.742C58.105 169.261 58.4037 169.591 58.8754 169.591C59.1505 169.591 59.3156 169.536 59.5592 169.458C59.7793 169.403 59.968 169.513 59.9994 169.788L60.1331 170.88C60.1566 171.155 60.0545 171.289 59.8894 171.344L59.8815 171.352ZM55.0866 164.828C55.0866 164.639 55.008 164.584 54.8115 164.584C51.4157 164.584 50.2131 165.842 50.2131 167.374C50.2131 168.664 51.1956 169.513 52.5398 169.513C54.1826 169.513 55.0866 168.31 55.0866 167.186V164.828Z" fill="#231F20"/>
<path d="M70.0215 171.077C69.2826 171.43 67.9384 171.761 66.7593 171.761C64.1811 171.761 62.5147 170.118 62.5147 167.539V159.923C62.5147 159.734 62.3496 159.592 62.216 159.592H60.408C60.243 159.592 60.1879 159.459 60.2194 159.239L60.3844 157.895C60.3844 157.785 60.4631 157.651 60.5731 157.651H62.3024C62.5461 157.651 62.6326 157.486 62.6326 157.266V155.434C62.6326 155.136 62.6876 154.915 62.9863 154.805L65.1794 154.011C65.5095 153.901 65.6196 154.011 65.6196 154.342V157.352C65.6196 157.517 65.7532 157.651 65.9183 157.651H69.369C69.4791 157.651 69.5891 157.761 69.5891 157.871V159.38C69.5891 159.459 69.4791 159.6 69.369 159.6H65.9733C65.7846 159.6 65.6196 159.734 65.6196 159.93V166.832C65.6196 168.31 66.3585 169.41 67.8913 169.41C68.4651 169.41 69.0153 169.245 69.5656 169.057C69.7856 168.978 70.0057 169.08 70.0608 169.355L70.2809 170.558C70.3359 170.802 70.2023 170.998 70.0372 171.077H70.0215Z" fill="#231F20"/>
<path d="M78.4879 171.32C77.9927 171.54 77.0652 171.784 76.2398 171.784C73.8817 171.784 72.9227 170.526 72.9227 168.467V160.142C72.9227 159.757 72.7891 159.293 72.3489 159.215L71.2248 158.995C70.9497 158.94 70.8711 158.806 70.8711 158.609V158.059C70.8711 157.816 71.0047 157.674 71.2563 157.65L75.5874 157.155C75.8075 157.132 76.0512 157.289 76.0512 157.509V168.136C76.0512 169.064 76.4363 169.614 77.2538 169.614C77.6076 169.614 77.8827 169.536 78.1578 169.426C78.2914 169.371 78.598 169.426 78.6216 169.811L78.7316 170.848C78.7552 171.068 78.653 171.233 78.4879 171.312V171.32ZM74.4634 154.939C73.0642 154.939 72.5454 154.035 72.5454 153.131C72.5454 152.305 73.0642 151.323 74.5184 151.323C75.8311 151.323 76.4599 152.038 76.4599 153.107C76.4599 154.255 75.6896 154.939 74.4634 154.939Z" fill="#231F20"/>
<path d="M86.5438 171.902C82.2126 171.902 79.8623 168.726 79.8623 164.615C79.8623 160.504 82.5192 156.92 86.8189 156.92C91.1186 156.92 93.5003 160.072 93.5003 164.152C93.5003 168.231 90.8435 171.902 86.5438 171.902ZM86.6224 158.806C83.9891 158.806 83.2502 161.298 83.2502 164.152C83.2502 167.744 84.6179 169.984 86.646 169.984C89.2478 169.984 90.0967 167.626 90.0967 164.67C90.0967 161.11 88.729 158.806 86.6145 158.806H86.6224Z" fill="#231F20"/>
<path d="M111.085 171.462H104.624C104.38 171.462 104.238 171.328 104.238 171.077V170.558C104.238 170.369 104.348 170.204 104.592 170.149L105.826 169.905C106.07 169.85 106.29 169.607 106.29 169.056V162.454C106.29 160.425 105.142 159.356 103.389 159.356C101.637 159.356 100.347 160.394 100.347 161.958V169.056C100.347 169.607 100.568 169.85 100.811 169.905L102.045 170.149C102.289 170.204 102.399 170.369 102.399 170.558V171.077C102.399 171.32 102.265 171.462 102.014 171.462H95.5525C95.3088 171.462 95.1674 171.328 95.1674 171.077V170.558C95.1674 170.369 95.2774 170.204 95.5211 170.149L96.7552 169.905C96.9989 169.85 97.219 169.607 97.219 169.056V160.15C97.219 159.765 97.0853 159.301 96.6451 159.223L95.301 159.003C95.0259 158.948 94.9473 158.783 94.9473 158.594V158.075C94.9473 157.832 95.0809 157.69 95.3324 157.666L99.3885 157.171C99.6872 157.148 99.8287 157.305 99.8522 157.58L100.017 159.089H100.127C101.33 157.887 102.926 157.038 104.891 157.038C107.304 157.038 109.411 158.492 109.411 161.282V169.064C109.411 169.614 109.631 169.858 109.874 169.913L111.109 170.157C111.352 170.212 111.462 170.377 111.462 170.566V171.084C111.462 171.328 111.329 171.47 111.077 171.47L111.085 171.462Z" fill="#231F20"/>
<path d="M125.745 171.352C125.25 171.541 124.181 171.761 123.363 171.761C121.94 171.761 121.366 170.857 121.28 169.843H121.17C120.156 170.88 118.953 171.761 116.925 171.761C114.599 171.761 113.011 170.086 113.011 167.901C113.011 164.254 116.406 162.721 120.683 162.752C120.903 162.752 120.958 162.509 120.958 162.367V161.738C120.958 159.986 119.614 159.215 117.947 159.215C116.768 159.215 115.675 159.569 114.905 160.009C114.63 160.174 114.386 160.088 114.3 159.765L114.001 158.366C113.946 158.123 114.001 157.903 114.245 157.816C115.448 157.321 117.09 156.991 118.765 156.991C122.192 156.991 123.968 158.579 123.968 162.084V168.742C123.968 169.261 124.267 169.591 124.739 169.591C125.014 169.591 125.179 169.536 125.423 169.458C125.643 169.403 125.831 169.513 125.863 169.788L125.996 170.88C126.02 171.155 125.918 171.289 125.753 171.344L125.745 171.352ZM120.95 164.828C120.95 164.639 120.871 164.584 120.675 164.584C117.279 164.584 116.076 165.842 116.076 167.374C116.076 168.664 117.059 169.513 118.403 169.513C120.046 169.513 120.95 168.31 120.95 167.186V164.828Z" fill="#231F20"/>
<path d="M134.211 171.352C133.692 171.572 132.757 171.761 131.939 171.761C129.581 171.761 128.622 170.471 128.622 168.42V154.145C128.622 153.76 128.488 153.296 128.048 153.21L126.924 152.99C126.649 152.935 126.57 152.801 126.57 152.604V152.054C126.57 151.811 126.704 151.669 126.955 151.646L131.287 151.15C131.507 151.127 131.75 151.284 131.75 151.504V168.074C131.75 169.002 132.136 169.528 132.953 169.528C133.338 169.528 133.613 169.45 133.888 169.363C134.109 169.308 134.297 169.418 134.329 169.693L134.462 170.872C134.494 171.148 134.384 171.258 134.219 171.336L134.211 171.352Z" fill="#231F20"/>
<path d="M156.645 157.651H155.875C155.686 157.651 155.489 157.518 155.466 157.266L155.222 155.757C155.144 155.293 154.758 155.041 154.263 155.041H151.606C151.418 155.041 151.276 155.175 151.276 155.372V168.797C151.276 169.403 151.496 169.678 151.771 169.725L153.226 170C153.501 170.055 153.611 170.244 153.611 170.464V171.038C153.611 171.313 153.446 171.446 153.202 171.446H145.86C145.617 171.446 145.452 171.313 145.452 171.038V170.464C145.452 170.244 145.562 170.055 145.837 170L147.291 169.725C147.566 169.67 147.786 169.395 147.786 168.797V155.372C147.786 155.183 147.653 155.041 147.456 155.041H144.799C144.304 155.041 143.919 155.285 143.84 155.757L143.596 157.266C143.573 157.51 143.376 157.651 143.188 157.651H142.417C142.174 157.651 142.032 157.518 142.032 157.266V153.462C142.032 153.163 142.166 152.966 142.362 152.966H156.716C156.904 152.966 157.046 153.155 157.046 153.462V157.266C157.046 157.51 156.912 157.651 156.661 157.651H156.645Z" fill="#231F20"/>
<path d="M167.547 160.009C167.492 160.198 167.272 160.394 166.997 160.284C166.533 160.119 165.818 159.954 165.213 159.954C163.955 159.954 162.666 160.779 162.666 162.257V169.049C162.666 169.599 162.886 169.874 163.13 169.897L164.773 170.141C165.048 170.165 165.126 170.361 165.126 170.55V171.069C165.126 171.312 164.993 171.454 164.741 171.454H157.863C157.62 171.454 157.478 171.32 157.478 171.069V170.55C157.478 170.361 157.588 170.196 157.832 170.141L159.066 169.897C159.31 169.842 159.53 169.599 159.53 169.049V160.174C159.53 159.789 159.396 159.325 158.956 159.246L157.588 159.026C157.313 158.971 157.234 158.806 157.234 158.618V158.067C157.234 157.824 157.368 157.682 157.62 157.659L161.644 157.163C161.974 157.14 162.108 157.328 162.139 157.659C162.139 157.659 162.304 159.246 162.328 159.467H162.438C163.562 158.067 164.741 157.03 166.463 157.03C166.926 157.03 167.445 157.108 167.83 157.273C168.019 157.352 168.074 157.572 168.019 157.824L167.524 160.017L167.547 160.009Z" fill="#231F20"/>
<path d="M184.644 171.352C184.149 171.54 183.111 171.76 182.286 171.76C180.887 171.76 180.069 171.045 180.038 169.732H179.959C178.812 170.912 177.247 171.76 175.361 171.76C173.034 171.76 170.951 170.251 170.951 167.484V160.143C170.951 159.757 170.817 159.294 170.377 159.215L169.253 159.026C168.978 158.971 168.899 158.806 168.899 158.618V158.067C168.899 157.824 169.033 157.682 169.285 157.659L173.584 157.163C173.804 157.14 174.048 157.297 174.048 157.517V166.313C174.048 168.341 175.196 169.41 176.87 169.41C178.544 169.41 179.802 168.373 179.802 166.808V160.15C179.802 159.765 179.668 159.302 179.228 159.223L178.104 159.034C177.829 158.979 177.75 158.814 177.75 158.626V158.075C177.75 157.832 177.884 157.69 178.136 157.667L182.467 157.171C182.687 157.148 182.93 157.305 182.93 157.525V168.726C182.93 169.245 183.174 169.607 183.646 169.607C183.921 169.607 184.11 169.552 184.361 169.473C184.581 169.418 184.746 169.528 184.77 169.803L184.903 170.896C184.935 171.171 184.825 171.305 184.66 171.36L184.644 171.352Z" fill="#231F20"/>
<path d="M190.839 171.761C189.471 171.761 187.883 171.486 187.247 171.265C187.027 171.187 186.838 171.022 186.838 170.77V167.783C186.838 167.54 186.948 167.398 187.223 167.398H187.993C188.213 167.398 188.347 167.532 188.402 167.783L188.646 168.742C188.834 169.458 189.66 169.835 190.894 169.835C192.293 169.835 193.496 169.065 193.496 167.783C193.496 166.659 192.647 166.085 191.499 165.622L189.825 164.938C188.182 164.254 186.924 163.263 186.924 161.267C186.924 158.445 189.636 156.991 192.159 156.991C193.504 156.991 194.651 157.211 195.335 157.454C195.555 157.533 195.72 157.675 195.72 157.95V160.662C195.72 160.905 195.587 161.07 195.312 161.07H194.683C194.494 161.07 194.353 160.96 194.274 160.685L194.054 159.836C193.889 159.176 193.205 158.854 192.136 158.854C191.067 158.854 189.888 159.404 189.888 160.497C189.888 161.511 190.713 161.951 191.751 162.383L193.339 163.043C194.981 163.727 196.514 164.773 196.514 166.958C196.514 170.079 193.614 171.753 190.847 171.753L190.839 171.761Z" fill="#231F20"/>
<path d="M207.659 171.077C206.92 171.43 205.576 171.761 204.397 171.761C201.819 171.761 200.152 170.118 200.152 167.539V159.923C200.152 159.734 199.987 159.592 199.854 159.592H198.046C197.881 159.592 197.826 159.459 197.857 159.239L198.022 157.895C198.022 157.785 198.101 157.651 198.211 157.651H199.94C200.184 157.651 200.27 157.486 200.27 157.266V155.434C200.27 155.136 200.325 154.915 200.624 154.805L202.817 154.011C203.147 153.901 203.257 154.011 203.257 154.342V157.352C203.257 157.517 203.391 157.651 203.556 157.651H207.007C207.117 157.651 207.227 157.761 207.227 157.871V159.38C207.227 159.459 207.117 159.6 207.007 159.6H203.611C203.422 159.6 203.257 159.734 203.257 159.93V166.832C203.257 168.31 203.996 169.41 205.529 169.41C206.103 169.41 206.653 169.245 207.203 169.057C207.423 168.978 207.643 169.08 207.698 169.355L207.919 170.558C207.974 170.802 207.84 170.998 207.675 171.077H207.659Z" fill="#231F20"/>
<path d="M219.49 159.129C220.417 156.771 220.394 155.089 222.878 152.33C223.624 151.488 225.825 150.097 227.783 150.097C230.455 150.097 231.414 151.245 231.414 152.361C231.414 153.139 230.73 153.917 229.834 153.917C228.529 153.917 228.066 153.265 227.877 152.275C227.814 151.968 227.594 151.371 226.887 151.371C224.835 151.371 224.002 155.812 223.192 159.137H226.454C226.643 159.137 226.706 159.231 226.674 159.42L226.517 160.198C226.486 160.418 226.423 160.505 226.179 160.505H222.948C222.265 163.051 221.054 168.357 219.938 171.619C218.413 176.061 215.56 180.69 211.739 180.69C209.876 180.69 208.854 179.849 208.854 178.67C208.854 177.798 209.413 177.027 210.379 177.027C211.346 177.027 211.904 177.774 211.991 178.765C212.022 179.071 212.242 179.291 212.675 179.291C214.2 179.291 215.442 176.682 216.746 171.093L219.23 160.505H216.621C216.463 160.505 216.369 160.379 216.401 160.222L216.589 159.38C216.621 159.223 216.684 159.129 216.927 159.129H219.506H219.49Z" fill="#231F20"/>
<path d="M225.668 167.021C225.668 164.505 226.383 161.896 228.12 160.001C229.394 158.665 230.887 158.201 232.562 158.201C234.236 158.201 236.94 158.979 236.94 162.768C236.94 164.6 236.288 167.893 234.33 169.976C233.12 171.281 231.752 171.776 229.763 171.776C227.963 171.776 225.668 170.534 225.668 167.029V167.021ZM232.53 166.895C233.489 165.095 234.425 162.454 234.425 161.306C234.425 160.559 234.11 159.97 233.277 159.97C232.098 159.97 231.194 161.055 229.803 163.57C228.749 165.433 228.254 167.327 228.254 168.601C228.254 169.222 228.624 169.968 229.339 169.968C230.266 169.968 231.265 169.316 232.538 166.895H232.53Z" fill="#231F20"/>
<path d="M238.992 171.462C238.772 171.462 238.654 171.336 238.709 171.179L240.203 166.148C240.729 164.411 241.696 161.338 241.696 160.748C241.696 160.441 241.476 160.158 241.169 160.158C240.674 160.158 239.558 161.18 239.118 161.864C238.992 162.053 238.866 162.084 238.748 161.99L238.442 161.77C238.348 161.707 238.348 161.613 238.442 161.4C238.937 160.496 240.706 158.201 243.41 158.201C244.62 158.201 245.021 158.854 245.021 159.443C245.021 160.001 244.432 161.526 243.685 163.538L244.023 163.727C244.801 162.021 246.664 158.201 248.928 158.201C249.832 158.201 250.696 158.885 250.696 159.875C250.696 160.96 249.855 161.896 249.297 161.896C248.896 161.896 248.55 161.833 248.275 161.644C248.024 161.487 247.812 161.275 247.403 161.275C246.444 161.275 244.762 163.727 244.078 165.315C243.771 166.062 243.425 166.958 243.056 168.113L242.066 171.25C242.003 171.407 241.845 171.47 241.665 171.47H238.992V171.462Z" fill="#231F20"/>
<path d="M274.914 171.462H267.596C267.352 171.462 267.187 171.328 267.187 171.053V170.479C267.187 170.259 267.297 170.071 267.573 170.016L268.995 169.741C269.27 169.686 269.491 169.41 269.491 168.813V163.091C269.491 162.902 269.357 162.76 269.16 162.76H262.809C262.62 162.76 262.479 162.894 262.479 163.091V168.813C262.479 169.418 262.699 169.693 262.974 169.741L264.428 170.016C264.703 170.071 264.814 170.259 264.814 170.479V171.053C264.814 171.328 264.648 171.462 264.405 171.462H257.063C256.819 171.462 256.654 171.328 256.654 171.053V170.479C256.654 170.259 256.764 170.071 257.039 170.016L258.494 169.741C258.769 169.686 258.989 169.41 258.989 168.813V155.639C258.989 155.033 258.769 154.758 258.494 154.711L257.039 154.413C256.764 154.357 256.654 154.169 256.654 153.949V153.398C256.654 153.123 256.819 152.99 257.063 152.99H264.405C264.648 152.99 264.814 153.123 264.814 153.398V153.949C264.814 154.169 264.703 154.357 264.428 154.413L262.974 154.711C262.699 154.766 262.479 155.041 262.479 155.639V160.292C262.479 160.481 262.613 160.622 262.809 160.622H269.16C269.349 160.622 269.491 160.489 269.491 160.292V155.639C269.491 155.033 269.27 154.758 268.995 154.711L267.573 154.413C267.297 154.357 267.187 154.169 267.187 153.949V153.398C267.187 153.123 267.352 152.99 267.596 152.99H274.914C275.158 152.99 275.323 153.123 275.323 153.398V153.949C275.323 154.169 275.213 154.357 274.938 154.413L273.515 154.711C273.24 154.766 273.02 155.041 273.02 155.639V168.813C273.02 169.418 273.24 169.693 273.515 169.741L274.938 170.016C275.213 170.071 275.323 170.259 275.323 170.479V171.053C275.323 171.328 275.158 171.462 274.914 171.462Z" fill="#231F20"/>
<path d="M284.15 171.32C283.655 171.54 282.727 171.784 281.902 171.784C279.544 171.784 278.585 170.526 278.585 168.467V160.142C278.585 159.757 278.451 159.293 278.011 159.215L276.887 158.995C276.612 158.94 276.533 158.806 276.533 158.609V158.059C276.533 157.816 276.667 157.674 276.918 157.65L281.25 157.155C281.47 157.132 281.713 157.289 281.713 157.509V168.136C281.713 169.064 282.098 169.614 282.916 169.614C283.27 169.614 283.545 169.536 283.82 169.426C283.954 169.371 284.26 169.426 284.284 169.811L284.394 170.848C284.417 171.068 284.307 171.233 284.15 171.312V171.32ZM280.125 154.939C278.726 154.939 278.208 154.035 278.208 153.131C278.208 152.305 278.726 151.323 280.181 151.323C281.493 151.323 282.122 152.038 282.122 153.107C282.122 154.255 281.352 154.939 280.125 154.939Z" fill="#231F20"/>
<path d="M290.015 171.761C288.647 171.761 287.059 171.486 286.422 171.265C286.202 171.187 286.014 171.022 286.014 170.77V167.783C286.014 167.54 286.124 167.398 286.399 167.398H287.169C287.389 167.398 287.523 167.532 287.578 167.783L287.822 168.742C288.01 169.458 288.836 169.835 290.07 169.835C291.469 169.835 292.672 169.065 292.672 167.783C292.672 166.659 291.823 166.085 290.675 165.622L289.001 164.938C287.358 164.254 286.1 163.263 286.1 161.267C286.1 158.445 288.812 156.991 291.335 156.991C292.679 156.991 293.827 157.211 294.511 157.454C294.731 157.533 294.896 157.675 294.896 157.95V160.662C294.896 160.905 294.762 161.07 294.487 161.07H293.858C293.67 161.07 293.528 160.96 293.45 160.685L293.23 159.836C293.065 159.176 292.381 158.854 291.312 158.854C290.243 158.854 289.064 159.404 289.064 160.497C289.064 161.511 289.889 161.951 290.927 162.383L292.514 163.043C294.157 163.727 295.69 164.773 295.69 166.958C295.69 170.079 292.789 171.753 290.023 171.753L290.015 171.761Z" fill="#231F20"/>
<path d="M306.836 171.077C306.097 171.43 304.753 171.761 303.574 171.761C300.996 171.761 299.329 170.118 299.329 167.539V159.923C299.329 159.734 299.164 159.592 299.03 159.592H297.222C297.057 159.592 297.002 159.459 297.034 159.239L297.199 157.895C297.199 157.785 297.277 157.651 297.388 157.651H299.117C299.361 157.651 299.447 157.486 299.447 157.266V155.434C299.447 155.136 299.502 154.915 299.801 154.805L301.994 154.011C302.324 153.901 302.434 154.011 302.434 154.342V157.352C302.434 157.517 302.568 157.651 302.733 157.651H306.183C306.294 157.651 306.404 157.761 306.404 157.871V159.38C306.404 159.459 306.294 159.6 306.183 159.6H302.788C302.599 159.6 302.434 159.734 302.434 159.93V166.832C302.434 168.31 303.173 169.41 304.706 169.41C305.28 169.41 305.83 169.245 306.38 169.057C306.6 168.978 306.82 169.08 306.875 169.355L307.095 170.558C307.15 170.802 307.017 170.998 306.852 171.077H306.836Z" fill="#231F20"/>
<path d="M314.94 171.902C310.609 171.902 308.259 168.726 308.259 164.615C308.259 160.504 310.916 156.92 315.215 156.92C319.515 156.92 321.897 160.072 321.897 164.152C321.897 168.231 319.24 171.902 314.94 171.902ZM315.027 158.806C312.393 158.806 311.655 161.298 311.655 164.152C311.655 167.744 313.022 169.984 315.05 169.984C317.652 169.984 318.501 167.626 318.501 164.67C318.501 161.11 317.133 158.806 315.019 158.806H315.027Z" fill="#231F20"/>
<path d="M333.656 160.009C333.601 160.198 333.381 160.394 333.106 160.284C332.642 160.119 331.926 159.954 331.321 159.954C330.064 159.954 328.774 160.779 328.774 162.257V169.049C328.774 169.599 328.994 169.874 329.238 169.897L330.881 170.141C331.156 170.165 331.235 170.361 331.235 170.55V171.069C331.235 171.312 331.101 171.454 330.85 171.454H323.972C323.728 171.454 323.586 171.32 323.586 171.069V170.55C323.586 170.361 323.696 170.196 323.94 170.141L325.174 169.897C325.418 169.842 325.638 169.599 325.638 169.049V160.174C325.638 159.789 325.504 159.325 325.064 159.246L323.696 159.026C323.421 158.971 323.343 158.806 323.343 158.618V158.067C323.343 157.824 323.476 157.682 323.728 157.659L327.753 157.163C328.083 157.14 328.216 157.328 328.248 157.659C328.248 157.659 328.413 159.246 328.436 159.467H328.546C329.671 158.067 330.85 157.03 332.571 157.03C333.035 157.03 333.554 157.108 333.939 157.273C334.127 157.352 334.182 157.572 334.127 157.824L333.632 160.017L333.656 160.009Z" fill="#231F20"/>
<path d="M342.475 171.32C341.98 171.54 341.052 171.784 340.227 171.784C337.869 171.784 336.91 170.526 336.91 168.467V160.142C336.91 159.757 336.776 159.293 336.336 159.215L335.212 158.995C334.937 158.94 334.858 158.806 334.858 158.609V158.059C334.858 157.816 334.992 157.674 335.244 157.65L339.575 157.155C339.795 157.132 340.038 157.289 340.038 157.509V168.136C340.038 169.064 340.424 169.614 341.241 169.614C341.595 169.614 341.87 169.536 342.145 169.426C342.279 169.371 342.585 169.426 342.609 169.811L342.719 170.848C342.743 171.068 342.64 171.233 342.475 171.312V171.32ZM338.451 154.939C337.051 154.939 336.533 154.035 336.533 153.131C336.533 152.305 337.051 151.323 338.506 151.323C339.818 151.323 340.447 152.038 340.447 153.107C340.447 154.255 339.677 154.939 338.451 154.939Z" fill="#231F20"/>
<path d="M354.8 170.802C354.061 171.242 352.474 171.839 350.744 171.839C346.413 171.839 343.843 168.687 343.843 164.521C343.843 160.056 347.16 156.991 351.13 156.991C352.662 156.991 353.786 157.234 354.195 157.399C354.384 157.478 354.549 157.675 354.549 157.895V161.18C354.549 161.424 354.415 161.566 354.164 161.566H353.338C353.15 161.566 352.985 161.456 352.93 161.212L352.686 160.064C352.521 159.349 351.947 159.05 350.902 159.05C348.465 159.05 347.231 161.157 347.231 163.979C347.231 166.801 348.355 169.458 351.397 169.458C352.379 169.458 353.503 169.017 354.054 168.719C354.297 168.585 354.572 168.687 354.659 168.962L354.989 170.251C355.044 170.495 354.965 170.692 354.8 170.802Z" fill="#231F20"/>
<path d="M371.182 164.254C370.994 164.254 370.883 164.034 370.907 163.79L370.986 162.698C371.017 162.454 371.174 162.367 371.394 162.367C373.973 162.367 376.158 161.408 376.158 158.531C376.158 155.875 374.295 154.971 371.827 154.971H370.404C370.239 154.971 370.05 155.104 370.05 155.301V168.805C370.05 169.41 370.27 169.709 370.545 169.733L372.408 170.008C372.684 170.039 372.794 170.252 372.794 170.472V171.045C372.794 171.321 372.629 171.454 372.385 171.454H364.634C364.391 171.454 364.226 171.321 364.226 171.045V170.472C364.226 170.252 364.336 170.063 364.611 170.008L366.065 169.733C366.34 169.678 366.56 169.403 366.56 168.805V155.631C366.56 155.026 366.34 154.751 366.065 154.703L364.611 154.405C364.336 154.35 364.226 154.161 364.226 153.941V153.391C364.226 153.116 364.391 152.982 364.634 152.982H372.691C376.913 152.982 379.813 154.35 379.813 158.241C379.813 162.43 375.592 164.403 371.182 164.27V164.254Z" fill="#231F20"/>
<path d="M391.926 160.009C391.871 160.198 391.651 160.394 391.376 160.284C390.912 160.119 390.197 159.954 389.6 159.954C388.342 159.954 387.053 160.779 387.053 162.257V169.049C387.053 169.599 387.273 169.874 387.516 169.897L389.159 170.141C389.434 170.165 389.513 170.361 389.513 170.55V171.069C389.513 171.312 389.379 171.454 389.128 171.454H382.25C382.006 171.454 381.865 171.32 381.865 171.069V170.55C381.865 170.361 381.975 170.196 382.219 170.141L383.453 169.897C383.696 169.842 383.916 169.599 383.916 169.049V160.174C383.916 159.789 383.783 159.325 383.343 159.246L381.975 159.026C381.7 158.971 381.621 158.806 381.621 158.618V158.067C381.621 157.824 381.755 157.682 382.006 157.659L386.031 157.163C386.361 157.14 386.495 157.328 386.526 157.659C386.526 157.659 386.691 159.246 386.715 159.467H386.825C387.949 158.067 389.128 157.03 390.849 157.03C391.313 157.03 391.832 157.108 392.217 157.273C392.406 157.352 392.461 157.572 392.406 157.824L391.911 160.017L391.926 160.009Z" fill="#231F20"/>
<path d="M398.497 165.488C397.869 165.488 397.295 165.488 396.768 165.433C396.548 165.409 396.438 165.464 396.469 165.732C396.635 168.058 398.686 169.458 400.801 169.458C402.113 169.458 403.237 168.994 403.866 168.664C404.141 168.53 404.385 168.719 404.44 168.939L404.739 170.251C404.794 170.472 404.684 170.692 404.519 170.802C403.481 171.375 401.885 171.839 400.329 171.839C395.534 171.839 393.152 168.742 393.152 164.364C393.152 159.734 396.469 156.912 400.054 156.912C402.687 156.912 404.959 158.531 404.959 161.102C404.959 164.199 401.618 165.488 398.497 165.488ZM399.622 158.72C397.185 158.72 396.304 161.432 396.336 163.24C396.336 163.515 396.367 163.57 396.635 163.594C397.02 163.625 397.484 163.649 397.947 163.649C399.865 163.649 401.862 162.988 401.862 160.992C401.862 159.703 400.824 158.72 399.614 158.72H399.622Z" fill="#231F20"/>
<path d="M411.781 171.761C410.414 171.761 408.826 171.486 408.189 171.265C407.969 171.187 407.78 171.022 407.78 170.77V167.783C407.78 167.54 407.89 167.398 408.165 167.398H408.936C409.156 167.398 409.289 167.532 409.345 167.783L409.588 168.742C409.777 169.458 410.602 169.835 411.836 169.835C413.235 169.835 414.438 169.065 414.438 167.783C414.438 166.659 413.589 166.085 412.442 165.622L410.767 164.938C409.124 164.254 407.867 163.263 407.867 161.267C407.867 158.445 410.579 156.991 413.102 156.991C414.446 156.991 415.594 157.211 416.278 157.454C416.498 157.533 416.663 157.675 416.663 157.95V160.662C416.663 160.905 416.529 161.07 416.254 161.07H415.625C415.436 161.07 415.295 160.96 415.216 160.685L414.996 159.836C414.831 159.176 414.147 158.854 413.078 158.854C412.009 158.854 410.83 159.404 410.83 160.497C410.83 161.511 411.656 161.951 412.693 162.383L414.281 163.043C415.924 163.727 417.457 164.773 417.457 166.958C417.457 170.079 414.556 171.753 411.789 171.753L411.781 171.761Z" fill="#231F20"/>
<path d="M424.933 165.488C424.304 165.488 423.73 165.488 423.204 165.433C422.984 165.409 422.874 165.464 422.905 165.732C423.07 168.058 425.122 169.458 427.236 169.458C428.549 169.458 429.673 168.994 430.302 168.664C430.577 168.53 430.821 168.719 430.876 168.939L431.174 170.251C431.229 170.472 431.119 170.692 430.954 170.802C429.917 171.375 428.321 171.839 426.765 171.839C421.97 171.839 419.588 168.742 419.588 164.364C419.588 159.734 422.905 156.912 426.489 156.912C429.123 156.912 431.394 158.531 431.394 161.102C431.394 164.199 428.054 165.488 424.933 165.488ZM426.057 158.72C423.62 158.72 422.74 161.432 422.771 163.24C422.771 163.515 422.803 163.57 423.07 163.594C423.455 163.625 423.919 163.649 424.383 163.649C426.301 163.649 428.297 162.988 428.297 160.992C428.297 159.703 427.26 158.72 426.049 158.72H426.057Z" fill="#231F20"/>
<path d="M443.672 160.009C443.617 160.198 443.397 160.394 443.122 160.284C442.658 160.119 441.943 159.954 441.346 159.954C440.088 159.954 438.799 160.779 438.799 162.257V169.049C438.799 169.599 439.019 169.874 439.263 169.897L440.905 170.141C441.181 170.165 441.259 170.361 441.259 170.55V171.069C441.259 171.312 441.126 171.454 440.874 171.454H433.996C433.752 171.454 433.611 171.32 433.611 171.069V170.55C433.611 170.361 433.721 170.196 433.965 170.141L435.199 169.897C435.442 169.842 435.662 169.599 435.662 169.049V160.174C435.662 159.789 435.529 159.325 435.089 159.246L433.721 159.026C433.446 158.971 433.367 158.806 433.367 158.618V158.067C433.367 157.824 433.501 157.682 433.752 157.659L437.777 157.163C438.107 157.14 438.241 157.328 438.272 157.659C438.272 157.659 438.437 159.246 438.461 159.467H438.571C439.695 158.067 440.874 157.03 442.595 157.03C443.059 157.03 443.578 157.108 443.963 157.273C444.152 157.352 444.207 157.572 444.152 157.824L443.657 160.017L443.672 160.009Z" fill="#231F20"/>
<path d="M460.054 158.861L459.614 159.026C459.315 159.136 459.064 159.356 458.82 160.009L454.465 171.407C454.41 171.54 454.332 171.627 454.245 171.627H451.533C451.455 171.627 451.368 171.548 451.313 171.407L446.817 159.899C446.573 159.238 446.267 159.105 446.047 159.018L445.607 158.853C445.363 158.775 445.253 158.633 445.253 158.444V157.926C445.253 157.682 445.387 157.541 445.638 157.541H451.801C452.044 157.541 452.186 157.674 452.186 157.926V158.444C452.186 158.633 452.076 158.798 451.801 158.853L450.708 159.073C450.409 159.128 450.079 159.348 450.268 159.922L452.736 167.13C452.956 167.759 453.09 168.278 453.176 168.828H453.231C453.31 168.333 453.53 167.626 453.695 167.154L456.163 159.922C456.352 159.348 456.03 159.128 455.723 159.073L454.631 158.853C454.355 158.798 454.245 158.633 454.245 158.444V157.926C454.245 157.682 454.379 157.541 454.631 157.541H460.031C460.274 157.541 460.416 157.674 460.416 157.926V158.444C460.416 158.633 460.306 158.775 460.062 158.853L460.054 158.861Z" fill="#231F20"/>
<path d="M473.864 171.352C473.369 171.541 472.3 171.761 471.482 171.761C470.059 171.761 469.486 170.857 469.399 169.843H469.289C468.275 170.88 467.072 171.761 465.044 171.761C462.718 171.761 461.13 170.086 461.13 167.901C461.13 164.254 464.526 162.721 468.802 162.752C469.022 162.752 469.077 162.509 469.077 162.367V161.738C469.077 159.986 467.733 159.215 466.066 159.215C464.887 159.215 463.795 159.569 463.024 160.009C462.749 160.174 462.505 160.088 462.419 159.765L462.12 158.366C462.065 158.123 462.12 157.903 462.364 157.816C463.567 157.321 465.21 156.991 466.884 156.991C470.311 156.991 472.087 158.579 472.087 162.084V168.742C472.087 169.261 472.386 169.591 472.858 169.591C473.133 169.591 473.298 169.536 473.542 169.458C473.762 169.403 473.95 169.513 473.982 169.788L474.115 170.88C474.147 171.155 474.037 171.289 473.872 171.344L473.864 171.352ZM469.069 164.828C469.069 164.639 468.99 164.584 468.794 164.584C465.398 164.584 464.188 165.842 464.188 167.374C464.188 168.664 465.17 169.513 466.514 169.513C468.157 169.513 469.061 168.31 469.061 167.186V164.828H469.069Z" fill="#231F20"/>
<path d="M484.005 171.077C483.266 171.43 481.922 171.761 480.743 171.761C478.164 171.761 476.498 170.118 476.498 167.539V159.923C476.498 159.734 476.333 159.592 476.199 159.592H474.391C474.226 159.592 474.171 159.459 474.203 159.239L474.368 157.895C474.368 157.785 474.446 157.651 474.556 157.651H476.286C476.529 157.651 476.616 157.486 476.616 157.266V155.434C476.616 155.136 476.671 154.915 476.97 154.805L479.163 154.011C479.493 153.901 479.603 154.011 479.603 154.342V157.352C479.603 157.517 479.737 157.651 479.902 157.651H483.352C483.462 157.651 483.573 157.761 483.573 157.871V159.38C483.573 159.459 483.462 159.6 483.352 159.6H479.957C479.768 159.6 479.603 159.734 479.603 159.93V166.832C479.603 168.31 480.342 169.41 481.875 169.41C482.448 169.41 482.999 169.245 483.549 169.057C483.769 168.978 483.989 169.08 484.044 169.355L484.264 170.558C484.319 170.802 484.186 170.998 484.021 171.077H484.005Z" fill="#231F20"/>
<path d="M492.463 171.32C491.967 171.54 491.04 171.784 490.214 171.784C487.856 171.784 486.897 170.526 486.897 168.467V160.142C486.897 159.757 486.764 159.293 486.323 159.215L485.199 158.995C484.924 158.94 484.846 158.806 484.846 158.609V158.059C484.846 157.816 484.979 157.674 485.231 157.65L489.562 157.155C489.782 157.132 490.026 157.289 490.026 157.509V168.136C490.026 169.064 490.411 169.614 491.228 169.614C491.582 169.614 491.857 169.536 492.132 169.426C492.266 169.371 492.573 169.426 492.596 169.811L492.706 170.848C492.73 171.068 492.628 171.233 492.463 171.312V171.32ZM488.438 154.939C487.039 154.939 486.52 154.035 486.52 153.131C486.52 152.305 487.039 151.323 488.493 151.323C489.806 151.323 490.435 152.038 490.435 153.107C490.435 154.255 489.664 154.939 488.438 154.939Z" fill="#231F20"/>
<path d="M500.519 171.902C496.188 171.902 493.838 168.726 493.838 164.615C493.838 160.504 496.495 156.92 500.794 156.92C505.094 156.92 507.476 160.072 507.476 164.152C507.476 168.231 504.819 171.902 500.519 171.902ZM500.598 158.806C497.965 158.806 497.226 161.298 497.226 164.152C497.226 167.744 498.594 169.984 500.622 169.984C503.223 169.984 504.072 167.626 504.072 164.67C504.072 161.11 502.705 158.806 500.59 158.806H500.598Z" fill="#231F20"/>
<path d="M525.068 171.462H518.599C518.355 171.462 518.214 171.328 518.214 171.077V170.558C518.214 170.369 518.324 170.204 518.568 170.149L519.802 169.905C520.046 169.85 520.266 169.607 520.266 169.056V162.454C520.266 160.425 519.118 159.356 517.365 159.356C515.612 159.356 514.323 160.394 514.323 161.958V169.056C514.323 169.607 514.543 169.85 514.787 169.905L516.021 170.149C516.265 170.204 516.375 170.369 516.375 170.558V171.077C516.375 171.32 516.241 171.462 515.989 171.462H509.528C509.284 171.462 509.143 171.328 509.143 171.077V170.558C509.143 170.369 509.253 170.204 509.497 170.149L510.731 169.905C510.974 169.85 511.195 169.607 511.195 169.056V160.15C511.195 159.765 511.061 159.301 510.621 159.223L509.277 159.003C509.001 158.948 508.923 158.783 508.923 158.594V158.075C508.923 157.832 509.056 157.69 509.308 157.666L513.364 157.171C513.663 157.148 513.804 157.305 513.828 157.58L513.993 159.089H514.103C515.306 157.887 516.893 157.038 518.866 157.038C521.28 157.038 523.386 158.492 523.386 161.282V169.064C523.386 169.614 523.606 169.858 523.85 169.913L525.084 170.157C525.328 170.212 525.438 170.377 525.438 170.566V171.084C525.438 171.328 525.304 171.47 525.053 171.47L525.068 171.462Z" fill="#231F20"/>
<path d="M526.695 159.144V159.129C526.695 157.274 528.205 155.717 530.115 155.717C532.025 155.717 533.518 157.25 533.518 159.113V159.129C533.518 160.984 532.009 162.54 530.099 162.54C528.189 162.54 526.695 161 526.695 159.144ZM533.165 159.129V159.113C533.165 157.423 531.852 156.055 530.122 156.055C528.393 156.055 527.057 157.439 527.057 159.129V159.144C527.057 160.834 528.37 162.202 530.099 162.202C531.828 162.202 533.165 160.819 533.165 159.129ZM528.731 157.242H530.327C530.799 157.242 531.168 157.384 531.412 157.627C531.6 157.808 531.702 158.06 531.702 158.374V158.39C531.702 158.964 531.364 159.325 530.877 159.467L531.836 160.819H531.026L530.162 159.585H529.415V160.819H528.739V157.242H528.731ZM530.295 158.987C530.736 158.987 531.003 158.767 531.003 158.429V158.413C531.003 158.052 530.744 157.855 530.295 157.855H529.407V158.987H530.295Z" fill="#231F20"/>
</g>
<defs>
<clipPath id="clip0_7465_1003">
<rect width="551.11" height="186.696" fill="white"/>
</clipPath>
</defs>
</svg>
