<svg width="469" height="135" viewBox="0 0 469 135" fill="none" xmlns="http://www.w3.org/2000/svg">
<g clip-path="url(#clip0_7481_7025)">
<path d="M105.69 31.0933H94.559V63.3377H54.359V31.0933H43.3364V104.396H54.359V70.9688H94.559V104.396H105.69V31.0933Z" fill="#010202"/>
<path d="M-0.320801 104.396H10.7018V31.0933H-0.320801V104.396Z" fill="#010202"/>
<mask id="mask0_7481_7025" style="mask-type:luminance" maskUnits="userSpaceOnUse" x="129" y="29" width="67" height="77">
<path d="M195.817 29.8047H129.142V105.579H195.817V29.8047Z" fill="white"/>
</mask>
<g mask="url(#mask0_7481_7025)">
<path fill-rule="evenodd" clip-rule="evenodd" d="M184.686 69.1442V97.5193C181.553 99.6689 176.365 101.281 170.422 101.281C153.132 101.281 141.353 86.1263 141.353 66.9946C141.353 48.9378 151.727 34.1054 168.909 34.1054C180.796 34.1054 187.604 39.6944 192.575 45.8208H193.115V33.138C189.549 32.2782 179.607 29.9136 169.341 29.9136C144.27 29.9136 129.033 48.0779 129.033 67.962C129.033 89.7807 145.567 105.58 169.557 105.58C181.444 105.58 190.738 101.066 195.709 99.5614V69.0368H184.686V69.1442Z" fill="#010202"/>
</g>
<path fill-rule="evenodd" clip-rule="evenodd" d="M203.058 31.8457C205.544 31.8457 207.489 33.7804 207.489 36.2524C207.489 38.7245 205.544 40.6592 203.058 40.6592C200.573 40.6592 198.627 38.7245 198.627 36.2524C198.627 33.7804 200.573 31.8457 203.058 31.8457ZM203.058 32.4906C201.005 32.4906 199.492 33.9953 199.492 36.145C199.492 38.2946 201.113 39.7993 203.058 39.7993C205.111 39.7993 206.732 38.2946 206.732 36.145C206.732 33.9953 205.219 32.4906 203.058 32.4906ZM201.545 33.9953H203.058C204.031 33.9953 204.679 34.4253 204.679 35.2851C204.679 35.93 204.247 36.2524 203.815 36.4674L205.003 38.2946H204.031L202.95 36.5749H202.518V38.2946H201.545V33.9953ZM203.058 36.0375C203.598 36.0375 203.815 35.8225 203.815 35.3926C203.815 34.9627 203.49 34.7477 203.058 34.7477H202.518V36.0375H203.058Z" fill="#010202"/>
<path d="M235.584 31.0933H239.151V43.4536H260.223V31.0933H263.789V58.3935H260.223V46.2481H239.151V58.3935H235.584V31.0933Z" fill="#010202"/>
<path fill-rule="evenodd" clip-rule="evenodd" d="M271.355 44.9566V44.6341C271.355 36.8955 278.487 30.769 289.402 30.769C300.316 30.769 307.449 36.8955 307.449 44.5267V44.8491C307.449 52.5878 300.316 58.7142 289.51 58.7142C278.487 58.8217 271.355 52.5877 271.355 44.9566ZM303.774 44.8491V44.5267C303.774 38.4002 298.479 33.4561 289.402 33.4561C280.216 33.4561 275.029 38.0778 275.029 44.6341V44.9566C275.029 51.5129 280.973 56.0271 289.51 56.0271C298.371 56.0271 303.774 51.4055 303.774 44.8491Z" fill="#010202"/>
<path d="M321.821 33.8878H310.582V31.0933H336.734V33.8878H325.495V58.501H321.929V33.8878H321.821Z" fill="#010202"/>
<path d="M343.434 31.0933H366.56V33.8878H347V43.1312H363.426V45.9257H347V55.814H367.424V58.6085H343.326V31.0933H343.434Z" fill="#010202"/>
<path d="M374.556 31.0933H378.122V55.7065H395.845V58.501H374.556V31.0933Z" fill="#010202"/>
<path fill-rule="evenodd" clip-rule="evenodd" d="M400.167 50.1157H403.625C404.165 53.4476 406.759 56.0271 414.107 56.0271C419.943 56.0271 423.293 54.0925 423.293 50.7606C423.293 47.5361 420.807 46.4613 413.351 45.6015C405.786 44.7416 401.572 42.9144 401.572 38.0778C401.572 33.886 406.002 30.769 413.243 30.769C420.375 30.769 424.914 33.2411 425.67 38.2927H422.428C421.564 34.7459 418.538 33.4561 413.243 33.4561C407.407 33.4561 404.922 35.1758 404.922 37.9703C404.922 40.4424 406.759 41.8396 414.431 42.6995C422.536 43.6668 426.751 45.279 426.751 50.6531C426.751 55.3823 422.104 58.8217 414.107 58.8217C404.922 58.8217 400.815 54.9523 400.167 50.1157Z" fill="#010202"/>
<path fill-rule="evenodd" clip-rule="evenodd" d="M235.584 76.9888H248.66C254.82 76.9888 259.899 79.2459 259.899 85.0499V85.1574C259.899 89.8865 255.901 92.2511 252.01 92.896L262.06 104.289H257.738L247.904 93.2184H239.151V104.289H235.584V76.9888ZM248.876 90.5314C253.415 90.5314 256.333 88.7042 256.333 85.1574V85.0499C256.333 81.1805 253.199 79.6758 248.876 79.6758H239.151V90.5314H248.876Z" fill="#010202"/>
<path d="M269.95 76.9888H293.076V79.7833H273.516V89.0267H289.942V91.8212H273.516V101.709H293.941V104.504H269.842V76.9888H269.95Z" fill="#010202"/>
<path fill-rule="evenodd" clip-rule="evenodd" d="M300.099 95.9033H303.557C304.097 99.2352 306.691 101.815 314.039 101.815C319.875 101.815 323.225 99.8801 323.225 96.5482C323.225 93.3237 320.739 92.3564 313.283 91.389C305.718 90.5292 301.504 88.702 301.504 83.8654C301.504 79.6736 305.935 76.5566 313.175 76.5566C320.307 76.5566 324.846 79.0287 325.602 84.0803H322.36C321.496 80.5334 318.47 79.2437 313.175 79.2437C307.339 79.2437 304.854 80.9634 304.854 83.7579C304.854 86.23 306.691 87.6272 314.364 88.4871C322.468 89.4544 326.683 90.9591 326.683 96.4407C326.683 101.17 322.036 104.609 314.039 104.609C304.854 104.609 300.748 100.74 300.099 95.9033Z" fill="#010202"/>
<path fill-rule="evenodd" clip-rule="evenodd" d="M333.6 90.7442V90.4217C333.6 82.6831 340.732 76.5566 351.646 76.5566C362.561 76.5566 369.693 82.6831 369.693 90.3142V90.6367C369.693 98.3753 362.561 104.609 351.754 104.609C340.732 104.609 333.6 98.4828 333.6 90.7442ZM366.019 90.6367V90.3142C366.019 84.1878 360.724 79.2437 351.646 79.2437C342.461 79.2437 337.274 83.8654 337.274 90.3142V90.6367C337.274 97.193 343.217 101.707 351.754 101.707C360.508 101.815 366.019 97.3005 366.019 90.6367Z" fill="#010202"/>
<path fill-rule="evenodd" clip-rule="evenodd" d="M378.662 76.9888H391.738C397.898 76.9888 402.977 79.2459 402.977 85.0499V85.1574C402.977 89.8865 398.978 92.2511 395.088 92.896L405.138 104.289H400.815L390.981 93.2184H382.228V104.289H378.662V76.9888ZM391.954 90.5314C396.493 90.5314 399.411 88.7042 399.411 85.1574V85.0499C399.411 81.1805 396.277 79.6758 391.954 79.6758H382.228V90.5314H391.954Z" fill="#010202"/>
<path d="M420.808 79.6758H409.569V76.9888H435.721V79.7833H424.482V104.396H420.916V79.6758H420.808Z" fill="#010202"/>
<path fill-rule="evenodd" clip-rule="evenodd" d="M440.691 95.9033H444.149C444.69 99.2352 447.283 101.815 454.632 101.815C460.467 101.815 463.817 99.8801 463.817 96.5482C463.817 93.3237 461.44 92.3564 453.875 91.389C446.311 90.5292 442.096 88.702 442.096 83.8654C442.096 79.6736 446.527 76.5566 453.767 76.5566C460.899 76.5566 465.546 79.0287 466.195 84.0803H462.953C462.088 80.5334 459.17 79.2437 453.767 79.2437C447.932 79.2437 445.446 80.9634 445.446 83.7579C445.446 86.23 447.283 87.6272 454.956 88.4871C463.061 89.4544 467.275 90.9591 467.275 96.4407C467.275 101.17 462.628 104.609 454.632 104.609C445.446 104.609 441.34 100.74 440.691 95.9033Z" fill="#010202"/>
<mask id="mask1_7481_7025" style="mask-type:luminance" maskUnits="userSpaceOnUse" x="442" y="30" width="27" height="29">
<path d="M468.679 30.769H442.636V58.7142H468.679V30.769Z" fill="white"/>
</mask>
<g mask="url(#mask1_7481_7025)">
<path fill-rule="evenodd" clip-rule="evenodd" d="M461.008 54.7389C458.954 56.996 456.037 58.7157 452.038 58.7157C446.419 58.7157 442.637 56.0287 442.637 51.407C442.637 47.0002 445.987 44.6357 449.553 43.3459C447.716 41.7337 446.527 39.799 446.527 37.2195C446.527 33.0277 449.985 30.6631 453.875 30.6631C458.09 30.6631 460.792 33.3501 460.792 37.0045C460.792 39.6915 458.63 42.3786 454.416 43.9908L461.116 50.7621L465.438 44.3132H468.356L462.845 52.5893L468.572 58.3933H464.466L461.008 54.7389ZM459.387 53.0192L451.498 44.9581C448.256 46.1404 445.879 47.9676 445.879 51.192C445.879 54.2015 448.04 56.0287 452.146 56.0287C455.28 56.1362 457.766 54.8464 459.387 53.0192ZM457.982 37.0045C457.982 34.9623 456.469 33.2426 453.875 33.2426C451.39 33.2426 449.445 34.6399 449.445 37.3269C449.445 39.3691 450.85 40.9813 452.687 42.486C456.577 40.8738 457.982 39.1541 457.982 37.0045Z" fill="#010202"/>
</g>
</g>
<defs>
<clipPath id="clip0_7481_7025">
<rect width="468.14" height="134.629" fill="white"/>
</clipPath>
</defs>
</svg>
