<svg width="384" height="133" viewBox="0 0 384 133" fill="none" xmlns="http://www.w3.org/2000/svg">
<path d="M205.152 112.409H190.174V99.633H184.484V131.681H190.174V117.563H205.152V131.681H210.842V99.633H205.152V112.409Z" fill="black"/>
<path d="M237.146 98.8278C227.268 98.8278 220.236 105.538 220.236 115.791C220.236 126.044 227.268 132.486 237.146 132.486C247.131 132.325 254.216 125.615 254.216 115.63C254.163 105.323 247.131 98.6667 237.146 98.8278ZM237.199 127.333C230.597 127.333 226.195 122.287 226.195 115.415C226.195 109.027 230.597 103.981 237.199 103.981C243.802 103.981 248.258 109.027 248.258 115.415C248.204 122.287 243.856 127.333 237.199 127.333Z" fill="black"/>
<path d="M259.907 104.786H269.73V131.681H275.421V104.786H285.244V99.633H259.907V104.786Z" fill="black"/>
<path d="M302.208 117.831H315.413V112.678H302.208V104.786H317.722V99.633H296.518V131.681H318.527V126.527H302.208V117.831Z" fill="black"/>
<path d="M336.349 99.633H330.659V131.681H352.668V126.527H336.349V99.633Z" fill="black"/>
<path d="M365.874 108.115C365.874 105.162 368.504 103.981 371.135 103.981C373.336 103.981 375.537 104.786 376.718 106.504L380.851 102.102C378.382 99.7403 375 98.8278 371.672 98.8278C365.767 98.8278 359.862 101.888 359.862 108.49C359.862 119.925 375.054 115.898 375.054 122.931C375.054 125.883 372.047 127.333 369.471 127.333C366.894 127.333 364.532 126.098 363.136 124.004L358.842 128.192C361.472 131.305 365.337 132.54 369.31 132.54C375.59 132.54 381.012 129.212 381.012 122.34C381.066 110.852 365.874 114.503 365.874 108.115Z" fill="black"/>
<path d="M174.231 21.58C168.97 23.6736 166.447 29.1491 168.165 34.3025C170.151 40.3685 175.788 42.5695 181.854 41.4422C188.94 40.1538 192.483 33.0142 191.033 23.4052C189.154 11.3805 176.486 5.42184 163.924 5.47552C155.013 5.5292 137.352 8.21328 126.454 34.893C123.931 41.0127 121.462 48.3134 118.993 55.4531C114.859 67.2093 109.545 86.8031 98.3252 94.909C98.1642 95.0164 98.1105 95.2311 98.1642 95.3921C98.2178 95.5532 98.8083 96.5194 98.8083 96.5731C98.8083 96.6268 99.0231 96.8415 99.2915 96.7342C102.029 95.7142 107.558 94.1575 116.738 95.3921C130.534 97.271 134.775 99.0425 151.792 101.082C158.019 101.834 163.656 101.19 167.36 98.5594C170.849 96.09 173.05 92.7081 174.499 89.004C175.734 85.8905 176.915 82.2402 177.559 79.8782C177.667 79.4487 177.452 79.2877 177.237 79.234C176.861 79.1266 176.325 79.0193 176.217 78.9656C176.002 78.9119 175.788 78.9656 175.68 79.1266C175.144 79.6098 174.553 80.0929 173.963 80.5223C173.104 81.1128 172.245 81.7033 171.332 82.1865C170.258 82.777 169.185 83.2064 168.004 83.6359C166.716 84.0653 165.373 84.3874 164.031 84.6021C163.334 84.7095 162.689 84.7632 161.992 84.8169C156.355 85.1926 150.074 84.2264 141.378 83.1527C137.513 82.6696 132.252 82.8307 128.763 83.7969C132.091 80.2003 135.795 71.987 137.942 66.4041C142.076 55.3994 145.35 42.8379 148.571 33.0678C152.329 21.741 161.24 10.8437 172.245 11.2194C180.458 11.5415 185.88 16.9097 186.041 23.7809C182.605 20.6674 177.881 20.1306 174.231 21.58Z" fill="black"/>
<path d="M302.047 45.4683C302.047 45.683 298.289 47.884 298.289 54.4868C298.289 58.996 302.154 62.8611 306.449 62.8611C314.018 62.8611 319.225 54.7552 319.225 47.5619C319.225 43.4821 316.487 39.778 311.924 39.3486C299.148 38.1676 292.062 45.9514 284.815 56.0972C287.123 49.1723 288.465 44.6094 289.217 42.1937C289.485 41.3348 289.485 40.2075 288.304 40.2612L272.2 40.5833C271.18 40.5833 270.321 41.2811 269.891 42.6232C268.442 47.4545 263.825 62.1632 259.746 74.8858C257.974 80.0929 256.31 84.3337 254.807 86.4273C251.103 91.5807 247.023 92.1176 243.695 92.0639C238.864 91.9565 239.347 88.6283 240.796 84.2801C241.87 80.9518 252.338 50.9438 255.129 42.9989C255.451 42.14 255.505 41.0127 254.216 41.0127L237.79 41.1738C236.77 41.1738 235.804 41.979 235.482 43.2137L233.549 49.6018C230.919 43.6431 224.96 41.0664 217.552 41.0127C198.227 40.8517 183.679 55.5067 181.21 73.5974C180.19 81.2739 182.874 87.7694 188.94 93.3522H209.124C207.836 92.7081 206.171 91.8492 204.99 90.3997C202.682 87.6083 201.125 82.0791 203.541 72.148C204.937 66.5115 207.03 61.4117 208.587 57.815C211.862 50.1923 217.015 46.0051 221.793 46.0588C226.893 46.1125 231.187 49.8165 231.509 54.6478C230.382 59.5865 228.61 65.7062 226.463 71.8796C223.618 80.2003 222.491 82.777 221.846 84.4411C220.182 88.6819 218.196 91.8492 214.975 93.3522H271.556C275.582 81.4886 278.534 74.2953 282.399 66.7262C285.513 60.5528 291.31 52.4469 296.464 48.206C298.772 46.2735 301.456 45.4683 301.993 45.4683H302.047Z" fill="black"/>
<path d="M374.839 73.2216C371.35 73.3827 368.666 76.711 368.934 80.7371C369.149 84.3874 372.584 87.5009 376.288 87.3399C375.537 90.6145 369.417 92.8691 364.962 88.7356C360.184 84.2264 354.386 75.2616 353.205 69.6787C359.486 68.1219 383.267 59.6939 383.267 45.6293C383.267 40.0464 378.865 38.1139 373.926 38.275C358.52 38.8118 344.992 52.769 335.92 64.5789L334.148 66.6725L355.997 1.98622C356.265 1.12731 356.265 0 355.138 0H341.288C340.268 0 339.355 0.805223 338.98 2.0399L309.831 93.4059H325.72L329.532 80.2003C331.625 74.4563 340.214 62.9148 348.481 55.292C352.346 51.749 354.494 50.0849 356.856 48.8502C362.761 45.7904 366.089 50.568 362.653 56.7414C358.251 64.6326 346.71 68.8198 338.121 70.6986C337.96 70.7523 337.799 70.8597 337.691 70.967L336.618 72.3627C336.457 72.5775 336.403 72.7922 336.457 73.0606C338.228 79.234 342.845 86.6957 349.286 93.4059H375.376C378.65 90.9366 381.871 86.8031 381.603 80.4687C381.388 76.3889 378.65 73.0069 374.839 73.2216Z" fill="black"/>
<path d="M73.8464 21.3653C74.1685 21.3116 74.4906 21.1505 74.7053 20.8821C74.8127 20.7211 74.92 20.3453 75.1348 20.2916C75.1885 20.2916 75.2958 20.2916 75.2958 20.2379V20.1843C75.0811 19.7011 74.6516 19.3254 74.1685 19.1643C73.9001 19.1106 73.578 19.057 73.3096 19.1106C72.7191 19.218 72.1823 19.5401 72.1823 20.1306C72.0749 21.0432 73.0412 21.4726 73.8464 21.3653ZM72.9338 19.7548C73.0949 19.6475 73.3096 19.6475 73.417 19.8085C73.5243 19.9695 73.5243 20.1843 73.3633 20.2916C73.2022 20.399 72.9875 20.399 72.8801 20.2379C72.7728 20.0769 72.7728 19.8622 72.9338 19.7548Z" fill="black"/>
<path d="M63.7543 55.9362C63.6469 55.9362 63.5396 55.9899 63.4322 56.0436C63.3785 56.0972 63.3248 56.0972 63.2175 56.1509C62.9491 56.2583 62.4122 56.473 61.7144 56.7951C61.446 56.9025 61.1239 57.0635 60.8555 57.1709C60.7481 57.2245 60.6407 57.2782 60.5871 57.2782C60.0502 57.493 59.5134 57.7614 58.9229 58.0298H58.8693C58.8693 58.0298 58.8156 58.0298 58.8156 58.0835C58.1714 58.3519 57.5272 58.674 56.8294 58.9424C56.722 58.996 56.6683 58.996 56.5609 59.0497C56.5073 59.0497 56.4536 59.1034 56.3999 59.1034C55.702 59.4255 54.9505 59.7476 54.1453 60.0697C54.0916 60.0697 54.0379 60.1234 53.9842 60.1234C53.9305 60.1234 53.9305 60.177 53.8769 60.177C53.1253 60.4991 52.3201 60.8749 51.5686 61.197C51.5149 61.197 51.4612 61.2507 51.4075 61.2507C51.4075 61.2507 51.3538 61.2507 51.3538 61.3043C50.5486 61.6801 49.7434 62.0022 48.9382 62.3243C48.1866 62.6464 47.4351 62.9685 46.7909 63.2369C46.7372 63.2369 46.7372 63.2906 46.6835 63.2906C46.6835 63.2906 46.6299 63.2906 46.6299 63.3442C45.9857 63.6127 45.3952 63.8811 44.8584 64.0958H44.8047C44.2679 64.3105 43.8384 64.5252 43.5163 64.6863H43.4626C43.2479 64.7936 43.0869 64.8473 42.9795 64.901C40.9396 65.8136 39.7049 65.0621 39.7049 65.0621C39.6512 65.0084 39.5439 65.0084 39.4902 65.0621C39.4365 65.0621 38.7923 65.7062 38.2019 67.2093C38.1482 67.424 38.2019 67.5314 38.2555 67.5851C38.3092 67.6388 38.4166 67.6925 38.5776 67.6925C39.7049 67.6925 43.0869 66.1894 49.2603 63.3442C50.4949 62.7537 51.5686 62.2706 52.2664 61.9485C52.5885 61.7875 52.9643 61.6264 53.34 61.4654C53.4474 61.4117 53.5011 61.4117 53.6085 61.358C53.9305 61.197 54.2526 61.0359 54.5747 60.8749C55.4336 60.4454 56.3999 59.9623 57.3662 59.5329C58.3324 59.0497 59.245 58.5666 60.1039 58.1371C60.9628 57.7077 61.7144 57.3319 62.3049 57.0098H62.3586C62.627 56.8488 62.8417 56.7414 63.0564 56.634C63.2711 56.5267 63.4859 56.473 63.6469 56.312L63.7543 56.2046V56.1509C63.9153 56.0436 63.8616 55.9362 63.7543 55.9362Z" fill="black"/>
<path d="M64.0764 52.4469C63.969 52.5006 63.8616 52.5543 63.7543 52.6616C63.2711 52.93 62.788 53.1984 62.3049 53.4668C62.0365 53.6279 61.7681 53.7353 61.446 53.8426C60.6944 54.1647 59.8892 54.4868 59.084 54.8089C58.064 55.2383 57.0978 55.6678 56.0778 56.0972C54.7895 56.6877 53.4474 57.2245 52.1591 57.815C50.3876 58.5666 45.3415 60.4991 44.59 60.7139C44.2142 60.8212 43.8384 60.9286 43.4626 60.9286C43.0869 60.9286 42.6574 60.8749 42.3353 60.7139C42.2816 60.7139 42.228 60.6602 42.1743 60.6602C42.0132 60.6602 41.7448 61.2507 41.6375 61.358C41.4227 61.7338 41.208 62.1633 41.047 62.5927C40.9933 62.8074 41.047 62.9148 41.1007 62.9685C41.1543 63.0222 41.2617 63.0758 41.4764 63.0758C42.7648 63.0758 46.9519 61.3044 53.8769 58.1371C54.7895 57.7077 55.5947 57.3856 56.1315 57.1172C57.4198 56.5267 58.7619 55.8825 59.9966 55.292C60.265 55.131 60.5871 55.0236 60.8555 54.8626C61.4996 54.5405 62.1438 54.2184 62.7343 53.8426C63.0564 53.6816 63.3248 53.4668 63.6469 53.2521C63.8616 53.0911 64.2374 52.93 64.2911 52.6616C64.3448 52.5543 64.2911 52.3932 64.0764 52.4469Z" fill="black"/>
<path d="M66.0626 50.9975C65.7405 51.3196 65.311 51.5343 65.0963 51.9101C65.5258 52.3395 66.1163 51.749 66.492 51.4806C66.5994 51.3733 67.6193 50.0849 67.5657 50.0849H66.331C66.4383 50.407 66.2773 50.7291 66.0626 50.9975Z" fill="black"/>
<path d="M43.5163 59.3718C43.8384 59.3718 44.2679 59.2108 44.6436 59.1571C45.0194 59.0497 45.3415 58.9424 45.7173 58.835C46.8983 58.4592 48.0793 58.0298 49.3139 57.6003C49.3676 57.6003 49.4213 57.5466 49.475 57.5466C51.1928 56.9561 56.3462 54.6478 57.2588 54.1647C57.7419 53.8963 58.1714 53.6279 58.6545 53.3595C58.8693 53.2521 59.1377 53.0374 59.0303 52.8227C58.4935 52.8227 58.064 53.1447 57.5809 53.3595C57.1514 53.5742 56.722 53.6816 56.2389 53.8426C55.0579 54.2721 53.9305 54.7552 52.8569 55.292C52.0517 55.6678 51.2465 56.0972 50.3876 56.473C49.636 56.7951 48.7234 57.1709 47.8645 57.0098C47.8109 57.0098 47.7035 56.9561 47.6498 57.0098C47.5424 57.0098 47.4888 57.0635 47.3814 57.1172C46.8446 57.493 46.2541 57.493 45.6099 57.7077C45.2341 57.815 44.8047 57.8687 44.4289 57.8687C44.2142 57.8687 44.1605 57.8687 43.9995 58.0835C43.8384 58.2982 43.7311 58.4592 43.6237 58.674C43.5163 58.8887 43.4626 59.1034 43.4626 59.3718C43.4626 59.336 43.4805 59.336 43.5163 59.3718Z" fill="black"/>
<path d="M81.2008 24.8009C83.7238 22.761 87.4815 20.3453 90.7024 19.8085C90.7561 19.8085 90.7561 19.7548 90.7024 19.7548C90.1119 19.3254 89.253 18.7349 87.4278 18.6812C86.73 18.6275 84.9585 18.7349 83.7238 18.8422H82.9186C82.4891 18.7885 82.006 18.6812 81.5766 18.5201C81.1471 18.3591 80.7176 18.0907 80.3956 17.8223C80.1808 17.6076 79.9661 17.3928 79.7514 17.1781C77.8725 15.2992 75.4032 13.7962 72.7191 13.7425C71.8065 13.7425 70.9476 13.8498 70.0887 14.0109C69.6056 14.0646 69.1224 14.1719 68.6393 14.2793C66.9752 14.7087 65.5258 15.5677 64.5595 16.9634C64.3985 17.2318 64.2374 17.5002 64.0764 17.8223C64.0227 17.9833 63.969 18.4128 63.8616 18.5201C63.808 18.5738 63.7543 18.5738 63.6469 18.6275C63.2711 18.7885 63.1638 19.3254 63.1638 19.7548C63.1638 20.8284 62.3586 21.7947 62.5196 22.922C62.627 23.4588 62.9491 23.942 63.0027 24.4788C63.0027 24.9082 62.8417 25.284 62.9491 25.7135C63.0027 25.9282 63.1101 26.0892 63.2175 26.2503C64.5595 28.5586 64.2374 31.9405 63.3785 34.3562C63.1638 35.0004 62.8417 35.5909 62.4122 36.1277C62.3049 36.1814 62.1975 36.2351 62.1438 36.3424C61.9291 36.5035 61.7144 36.7719 61.4996 37.0403C56.722 39.7244 51.9443 42.3548 47.5424 45.683C46.9519 46.1661 46.3614 46.703 45.8246 47.2935C43.5163 48.6355 40.4565 48.7429 37.6114 48.206C34.4441 47.6692 31.438 46.4882 28.4318 45.3072C25.372 44.1262 22.4732 42.8379 19.5743 41.3348C16.6755 39.8854 13.9378 38.1676 11.0927 36.4498C10.8779 36.3424 10.6095 36.3424 10.3948 36.4498C10.0727 36.6645 9.96535 37.0403 10.1264 37.3624C10.1801 37.4697 10.2338 37.8455 10.2874 38.2213C10.2874 38.3286 10.3411 38.4897 10.3411 38.6507H9.53589C9.21381 38.6507 8.9454 38.9191 8.89172 39.2412V39.3486C8.19386 39.3486 7.49599 39.2412 6.79813 39.1339H6.69077C6.36868 39.1339 6.04659 39.4023 6.04659 39.7244C6.04659 40.4759 6.15396 41.0664 6.58341 41.7106C6.04659 41.5495 5.24137 41.3885 5.24137 41.3885C4.97296 41.4958 4.75823 42.4084 5.08032 42.7842C4.22142 43.16 3.36251 43.4284 2.39625 43.5894C2.39625 43.8578 2.44993 44.1262 2.55729 44.3947C1.80575 44.2336 1.05421 44.1799 0.302665 43.9652C-0.0194241 44.1799 -0.0731057 44.6631 0.087939 45.0388C0.195302 45.1999 2.87938 47.0251 6.79813 48.7965C10.9316 50.7291 16.3535 52.6616 18.5007 53.4668C21.6142 54.5942 24.7815 55.6141 27.6803 57.1172C29.1297 57.8687 30.5791 58.674 31.7601 59.7476C32.3506 60.2844 32.9411 60.8212 33.4242 61.4654C33.6389 61.7875 33.8536 62.1096 34.0147 62.4853C34.0684 62.5927 34.0684 62.6464 34.1221 62.7537C33.5852 63.2906 32.9947 63.7737 32.4042 64.3105C30.3643 65.9746 28.1097 67.4777 25.8014 68.7124C24.6204 69.3566 23.4394 69.8397 22.0974 70.5913C21.9363 70.6986 21.7753 70.806 21.5069 71.0207C21.3995 71.1281 21.2385 71.2891 21.1311 71.5038C21.0237 71.8259 20.8627 72.3091 21.3995 72.8996C21.829 73.2217 21.829 73.1143 21.99 73.168C22.1511 73.2217 22.1511 73.2216 22.2584 73.2216H22.6342L23.2247 73.168C23.9762 73.1143 24.6204 73.0069 25.3183 72.8996C26.4993 72.7385 27.6803 72.5238 28.9149 72.2554C29.6665 72.0943 30.418 71.987 31.1159 71.8259C31.4917 71.7723 31.8137 71.6649 32.1895 71.6112C32.3506 71.5575 32.5116 71.5575 32.7263 71.5038C32.78 71.5038 32.8337 71.5038 32.8874 71.4502C33.1021 71.3965 32.9947 71.5575 32.8874 71.6112C32.7263 71.7186 32.5116 71.8259 32.3506 71.8796C32.1895 71.9333 32.1895 71.9333 32.1358 72.0407C32.0821 72.148 32.0821 72.2554 32.0285 72.3627C31.9748 72.5238 31.8674 72.7385 31.7601 72.8996C31.5453 73.2753 31.2769 73.5974 30.9548 73.9732C29.1833 76.1205 29.1297 76.1205 29.237 76.3352C29.2907 76.4425 29.6665 76.4962 29.8812 76.4425C30.2033 76.3352 31.0622 76.1741 35.4104 73.8658C36.0546 73.4901 37.3966 72.8996 39.0071 72.148C40.027 72.2017 41.1543 72.0407 42.0669 71.9333C43.5163 71.7723 44.912 71.1281 46.3614 70.9134C47.6498 70.7523 49.2603 70.967 50.3876 70.2155C50.5486 70.5913 50.6023 70.967 50.4949 71.3428C50.4949 71.3965 50.4412 71.5038 50.4949 71.6112C50.5486 71.8259 50.817 71.8796 51.0854 71.9333C52.4811 72.3091 52.6422 74.349 51.837 75.3152C51.7296 75.4763 51.5686 75.5836 51.5686 75.7984C51.5686 75.9594 51.6222 76.0668 51.7296 76.2278C51.7833 76.3352 51.837 76.4962 51.837 76.6036C51.5686 76.872 51.5686 77.1941 51.5686 77.4625V77.6235C51.5686 77.7846 51.5686 77.9993 51.6222 78.1604C51.7296 78.4825 51.9443 78.6972 52.1591 78.9119L52.2664 79.0193C52.5885 79.3413 52.8569 79.7708 53.0716 80.2003L55.1115 83.1527C55.9704 84.6558 57.0441 86.0515 57.8493 87.6083C58.0103 87.9304 58.2788 88.3062 58.064 88.6819C57.9567 88.9503 57.6883 89.0577 57.3662 89.1114C57.2588 89.1114 57.0978 89.1114 56.9904 89.1651C56.9367 89.1651 56.883 89.2188 56.883 89.2188C56.722 89.3261 56.5073 89.3261 56.2925 89.2724C55.702 89.1651 55.1115 88.7893 54.521 88.5746C53.9305 88.3599 53.2864 88.2525 52.6422 88.0915C51.4075 87.823 50.1728 87.5546 48.9382 87.5546C48.2403 87.5546 47.4351 87.7157 47.0593 88.3062C47.7572 88.0914 48.5624 87.9304 49.1529 88.3599C49.2603 88.4672 49.3676 88.5746 49.5287 88.6283C49.6897 88.6819 49.8507 88.6819 50.0118 88.6819C51.7296 88.6819 53.3937 89.1114 54.8968 89.8629C55.4873 90.185 55.9704 90.6145 56.6146 90.9366C56.883 91.0439 57.1514 91.1513 57.4735 91.0976C57.7419 91.0439 58.1177 91.0439 58.3861 91.0976C58.7082 91.205 58.9229 91.4734 59.0303 91.7955C59.1913 92.2249 59.2987 92.6007 59.6745 92.9228C59.9429 93.1912 60.3187 93.2986 60.6944 93.4059C61.607 93.6743 62.627 93.567 63.4859 93.8891C64.0227 94.1038 64.5058 94.3185 64.9889 94.6406C65.4184 94.8553 65.9552 95.1237 66.2236 95.4995C66.331 95.6605 66.3847 95.8216 66.492 95.9826C66.6531 96.251 66.9752 96.4658 67.2973 96.5195C67.4583 96.5731 67.673 96.5194 67.8341 96.5731C68.3709 96.7342 68.3709 97.3247 68.6393 97.7004C68.693 97.7541 68.7467 97.8078 68.8003 97.8078C68.9077 97.8078 69.0151 97.7004 69.0151 97.5931C69.0151 97.3784 68.8003 97.1099 68.7467 96.8415C68.693 96.5731 68.5856 96.3584 68.4246 96.09C68.1025 95.6069 67.673 95.2311 67.1899 94.909C66.492 94.4259 65.6868 94.1575 64.9353 93.7817C64.13 93.3522 63.2711 92.9765 62.4122 92.6544C62.1975 92.6007 61.8754 92.4933 61.8217 92.2249C61.8217 92.0639 61.8754 91.9565 61.9828 91.8492C62.3049 91.5271 62.7343 91.7418 63.1638 91.8492C63.808 92.0102 64.4521 92.2249 65.0963 92.386C65.7942 92.547 66.4383 92.8154 67.1362 93.0838C67.512 93.2449 67.8878 93.4059 68.3172 93.4596C68.5319 93.5133 68.693 93.567 68.9077 93.6206C69.1224 93.6743 69.2835 93.7817 69.4445 93.8891C69.5519 93.9964 69.6056 94.1038 69.6592 94.2648C69.8203 94.4796 70.0887 94.5869 70.3571 94.5869C70.6255 94.6406 70.9476 94.5332 71.216 94.5332C71.4844 94.5332 71.8602 94.5869 72.0212 94.8016C72.0749 94.8553 72.0749 94.909 72.1286 94.9627C72.1823 95.0164 72.2896 95.0164 72.3433 95.0164C72.558 94.5869 72.0212 94.2648 71.6991 94.1038C71.216 93.8354 70.7329 93.6207 70.2497 93.4059C69.3908 93.0302 68.5319 92.7081 67.6193 92.386C66.9215 92.1176 66.1699 91.9028 65.4184 91.6344C65.0426 91.5271 64.6669 91.4197 64.3448 91.3123C64.0764 91.2587 63.0027 90.8292 63.1638 90.4534C63.2175 90.3461 63.3248 90.2924 63.4322 90.2924C64.1837 90.2387 64.9353 90.2924 65.6868 90.2387C66.492 90.185 67.3509 90.2387 68.1562 90.3461C68.6393 90.3998 69.1224 90.5071 69.4982 90.3461C69.6592 90.2924 69.7666 90.185 69.9277 90.1313C70.2497 90.024 70.6792 90.1313 70.8939 90.3997C70.9476 90.5071 71.0013 90.3997 71.1087 90.3997C71.4844 90.5071 71.1623 90.0777 71.055 90.024C69.7666 89.3261 68.2635 89.2724 66.8141 89.3798C65.2037 89.4872 63.0564 89.6482 61.8217 88.8967C61.3923 88.6283 61.0165 88.4672 60.5334 88.3062C60.265 88.1988 60.2113 88.1451 60.0502 87.9841C59.9429 87.8767 58.9229 86.4273 58.5472 85.8368C58.1714 85.2463 57.7419 84.6558 57.4198 84.0653C56.722 82.8307 56.1315 81.5423 55.541 80.2539C55.3799 79.8782 55.2189 79.5561 55.0579 79.1803L55.0042 79.0193C54.8968 78.7509 54.7895 78.5361 54.6821 78.2677C54.7358 78.1604 54.7895 77.9993 54.7358 77.7846C54.7358 77.4625 54.7895 77.1404 54.8431 76.8183C55.1115 75.9057 55.4873 74.9931 55.9168 74.1342C56.0778 73.8122 56.2925 73.4364 56.2925 73.0606C56.2925 72.8459 56.2925 72.5775 56.4536 72.4164C56.5609 72.3091 56.722 72.3091 56.8294 72.2554C56.9904 72.2017 57.1514 72.148 57.3125 72.0407C57.2588 72.0407 58.0103 72.7385 58.1177 72.7922C58.4398 73.0069 58.8156 73.168 59.1913 73.2753C59.9966 73.4901 60.8555 73.5974 61.6607 73.8658C62.3586 74.0806 67.8341 75.691 68.5319 76.0668C68.7467 76.1741 68.9077 76.3352 69.0151 76.5499C69.0151 76.6036 69.0687 76.6573 69.0151 76.711C68.9614 77.1941 67.1362 77.0867 66.7604 77.1404C65.9552 77.1941 65.2037 77.0867 64.3985 77.1941C64.2911 77.1941 64.1837 77.2478 64.0764 77.2478C63.969 77.3015 63.8616 77.4088 63.808 77.5162C63.5395 77.8919 63.3785 78.2677 63.2711 78.6972C63.1101 79.1803 62.7343 79.5561 62.6806 80.0929C62.6806 80.1466 62.6806 80.2003 62.7343 80.2003H62.788C62.9491 80.0929 63.0027 79.8782 63.1101 79.7171C63.2711 79.2877 63.7006 79.0729 64.0227 78.8045C64.2911 78.6435 64.6132 78.4288 64.9353 78.5361C65.0963 78.5898 65.2037 78.7509 65.2037 78.9119C65.2037 79.0193 65.15 79.1803 65.2574 79.1803C65.5794 78.9119 65.9015 78.3751 66.2773 78.2677C67.5657 77.8383 68.9614 77.6235 70.3571 77.6235C70.5718 77.6235 70.7866 77.6235 71.0013 77.7309C71.3771 77.892 72.0749 78.5361 72.0749 78.9119C72.0749 79.1803 71.9139 79.4487 71.7528 79.6098C71.4307 79.9319 70.8402 80.1466 70.3571 80.3076C70.0887 80.3613 69.7666 80.3613 69.4982 80.2539C69.4445 80.2539 69.3908 80.2003 69.3372 80.2003C69.1761 80.2003 69.0687 80.415 68.9614 80.5223C68.7467 80.7371 68.3709 80.7907 68.1025 80.7371C68.2635 81.0055 68.6393 81.0592 68.9614 81.0592C69.5519 81.0592 70.0887 80.8444 70.6792 80.8444C71.216 80.8444 71.5381 80.7908 71.9676 80.415C72.397 80.0392 72.6654 79.4487 72.8265 78.9119C72.9338 78.5361 72.9875 78.1604 73.0949 77.7846C73.1486 77.5699 73.3633 77.3551 73.578 77.4088C73.739 77.4625 73.8464 77.6772 73.9001 77.8383C74.2759 79.395 73.0412 81.9717 71.1623 81.9181C71.1087 81.9181 71.0013 81.9181 70.9476 81.9717C70.8939 81.9717 70.8939 82.0254 70.8939 82.0791C70.7866 82.2938 70.3034 82.4012 70.0887 82.4549C69.6592 82.5622 69.1761 82.4012 68.8003 82.5622C68.9077 82.8843 69.3372 82.938 69.6592 82.8843C69.9813 82.8843 70.3571 82.8843 70.6792 82.8307C71.055 82.8307 71.3771 82.8307 71.7528 82.7233C72.236 82.5622 72.6654 82.2402 73.0412 81.8644C73.4706 81.4886 73.7927 81.0592 74.1148 80.576C74.4369 80.1466 74.8664 79.7171 74.92 79.1266C74.92 79.0193 74.9737 78.8045 75.0811 78.8045C75.1348 78.8045 75.1884 78.8582 75.2421 78.8582C76.2084 79.7171 75.7789 81.2202 74.8664 81.9181C74.759 81.9717 74.6516 82.0254 74.6516 82.1328C74.5443 82.4012 74.598 82.6159 74.3295 82.8307C74.2222 82.938 74.0611 83.0991 74.1685 83.2064C74.8664 83.3675 75.7789 82.0254 76.0474 81.5423C76.4768 80.7371 76.6378 79.8245 76.6915 78.9119C76.7452 78.3214 76.6915 77.6235 76.2084 77.2478C75.9937 77.0867 75.7253 77.0331 75.5105 76.8183C75.3495 76.6573 75.2958 76.4426 75.1348 76.2815C74.8127 75.9057 74.759 75.4226 74.1685 75.3689C73.5243 75.3152 72.8801 75.4226 72.236 75.4763C71.9139 75.4763 71.5381 75.53 71.216 75.4226C70.8939 75.3689 70.6255 75.2079 70.3034 75.1005C69.2298 74.6711 68.2098 74.349 67.0825 74.1879C66.0089 73.9732 64.9353 73.7585 63.9153 73.4364C62.8417 73.1143 61.7681 72.4164 60.9628 71.6649C60.5871 71.2891 60.426 70.806 60.5334 70.3765L60.5871 70.2692C60.5871 70.2155 60.5871 70.1618 60.6407 70.1618C61.607 69.7324 62.5733 69.2492 63.5395 68.8198C65.9015 67.6388 68.2098 66.3504 70.5182 65.0084C72.7728 63.6127 74.9737 62.1633 77.121 60.5528C78.1946 59.7476 79.2146 58.8887 80.1272 57.8687C81.0934 56.9025 81.8986 55.6141 82.3281 54.3257C83.2407 51.749 83.6701 49.1186 83.9385 46.4346C83.9922 45.7904 84.0459 45.0925 83.9922 44.3947C83.9922 44.2336 83.9385 44.0189 83.8849 43.8578C83.8849 43.7505 83.7775 43.5894 83.6701 43.4821L83.5091 43.321C83.2944 43.1063 83.0796 42.8916 82.9186 42.6232C82.7576 42.2474 82.5428 41.8716 82.3281 41.5495C82.006 40.7443 81.7376 39.8854 81.4155 39.0265L80.1272 35.2688C79.2146 32.37 79.0535 28.7196 79.4293 27.9144C80.1272 27.2166 80.9324 25.8208 81.2008 24.8009ZM33.961 67.2093C33.9073 67.3704 33.5316 68.444 33.3168 68.7661C32.619 68.7124 30.5254 69.2492 29.9886 69.3566C29.6128 69.4103 28.8613 69.5713 28.4855 69.5713H28.4318V69.4639C28.5392 69.2492 32.3506 66.8335 32.78 66.5115C32.9411 66.4041 33.0484 66.2967 33.2095 66.1894C33.3168 66.082 33.4242 66.0283 33.5316 65.9746C33.5852 66.0283 33.5316 66.1357 33.4779 66.1894C33.4242 66.243 33.4242 66.3504 33.4779 66.4041C33.5316 66.4578 33.5852 66.4578 33.6389 66.4578C33.8 66.5115 33.9073 66.6188 33.9073 66.7799C34.0684 66.9409 34.0147 67.102 33.961 67.2093ZM70.6792 17.2855C71.6992 16.6413 72.9338 16.3192 74.1148 16.4266C74.2222 16.4266 74.3832 16.4802 74.4906 16.5339C74.6516 16.6413 74.759 16.7486 74.759 16.9634C74.759 17.0171 74.759 17.1244 74.7053 17.1781C74.6516 17.2318 74.5443 17.2855 74.4369 17.2855C74.2222 17.2855 74.0075 17.1781 73.7927 17.1244C73.417 17.0707 72.2896 17.2318 71.9139 17.2855C71.5381 17.3391 71.216 17.4465 70.8402 17.5002H70.6792C70.6255 17.5002 70.5718 17.4465 70.5718 17.3928C70.6255 17.3391 70.6792 17.2855 70.6792 17.2855ZM70.8939 19.5401H70.0887C70.0887 19.5401 70.5182 19.0033 70.5718 18.9496C70.7866 18.7885 71.055 18.6812 71.3771 18.6275C72.1286 18.3591 72.8801 18.1444 73.6854 18.3054C74.3295 18.4128 74.9737 18.7349 75.5105 19.1106C75.4032 19.1643 75.4568 19.379 75.5642 19.4327C76.0473 19.8622 76.4231 20.399 76.6378 20.9895C76.4231 20.9358 76.3158 20.7211 76.1547 20.56C75.9937 20.399 75.7789 20.2379 75.5642 20.2916C75.6716 20.399 75.7253 20.5064 75.8326 20.6137C75.4032 21.2579 75.0274 21.741 74.2222 21.9558C73.6317 22.1168 72.9338 22.2242 72.3433 22.2778C72.0749 22.3315 71.8065 22.2778 71.5918 22.0631C71.5381 22.0094 71.5381 21.9558 71.4844 21.9558C71.3234 21.8484 71.055 22.0094 70.8939 21.9021C70.8939 21.741 70.8939 21.58 70.8402 21.4726C70.1961 21.3653 69.6056 21.9021 68.9614 21.9021C68.9077 21.9021 68.854 21.9021 68.8003 21.8484C68.693 21.7947 68.693 21.58 68.7467 21.4726C68.8003 21.3653 68.9614 21.2579 69.0687 21.2042C69.1761 21.0969 69.2835 20.9895 69.2835 20.8284C69.2835 20.6674 69.1224 20.5064 68.9614 20.4527C68.8003 20.399 68.6393 20.4527 68.4246 20.5064C69.0687 19.9695 70.6255 20.3453 70.8939 19.5401ZM71.1087 38.4897C71.1087 38.436 71.1623 38.3823 71.1623 38.275C71.1623 38.2213 71.1087 38.1676 71.1087 38.0602C71.1087 37.8455 71.3234 37.6845 71.4844 37.6308C71.5918 37.5771 71.6992 37.5234 71.7528 37.5771C71.8602 37.6308 71.8602 37.7918 71.9676 37.8992C72.0749 38.0065 72.3433 38.0065 72.397 38.2213C72.4507 38.3286 72.3433 38.436 72.2896 38.4897C72.0212 38.8655 71.7528 39.1875 71.4844 39.5633C71.4486 39.5991 71.4128 39.6349 71.3771 39.6707C71.3234 39.6707 71.2697 39.617 71.2697 39.617C71.1623 39.456 71.055 39.2949 71.0013 39.0802V39.1339C71.055 38.9191 71.055 38.7044 71.1087 38.4897ZM72.4507 36.1814C72.397 36.2887 72.2896 36.3424 72.1823 36.3424C71.9676 36.3424 71.8065 36.074 71.8065 35.8593C71.8065 35.6446 71.8602 35.3762 71.8065 35.1614L71.9139 35.0004C71.9139 34.7857 71.9139 34.5709 72.0749 34.4636C72.2896 34.3562 72.5044 34.5709 72.6117 34.7857C72.8265 35.2151 72.7728 35.8056 72.4507 36.1814ZM69.2835 43.0526C69.1224 43.321 68.693 43.2137 68.3709 43.321C68.2635 43.3747 68.1562 43.4284 68.0488 43.5357C67.9951 43.5894 67.9414 43.6431 67.8878 43.6968V43.8578C67.9951 44.1799 67.9951 44.4483 67.9951 44.7704C67.9951 44.9315 67.9414 45.1462 67.7804 45.1999C67.6193 45.2536 67.4046 45.1462 67.2973 45.0388C66.9752 44.6631 66.9752 44.0726 67.1899 43.6431C67.3509 43.16 67.673 42.7842 67.9951 42.4084C68.3172 41.979 68.6393 41.4958 68.7467 40.9053C68.8003 40.7443 68.8003 40.5833 68.854 40.4222C68.9614 40.1538 69.7666 40.1001 69.7666 39.9928C69.6056 40.5296 70.0887 41.1201 69.8203 41.6032C69.6592 41.8716 69.3372 42.0327 69.2835 42.3011C69.2298 42.5158 69.4445 42.7842 69.2835 43.0526ZM68.5319 47.6155C68.5856 47.7229 68.7467 47.7766 68.693 47.9376C68.693 48.0987 68.4782 48.0987 68.3709 48.045C67.9414 47.9376 67.5657 47.5619 67.512 47.1324C67.512 47.0251 67.4583 46.864 67.512 46.7566C67.5657 46.5419 67.9414 46.3272 68.1562 46.2735C68.2635 46.2198 68.3709 46.2198 68.4246 46.3272C68.4782 46.3809 68.4782 46.5419 68.4782 46.6493C68.4782 46.8103 68.4246 46.9714 68.4246 47.1324C68.4246 47.2935 68.4246 47.4545 68.5319 47.6155ZM68.9614 32.1553C68.5856 31.9942 68.5856 31.4037 68.8003 31.1353C68.854 31.0816 68.854 31.0279 68.9614 30.9743C69.0151 30.9743 69.0687 30.9206 69.1224 30.9206H69.4982C69.6056 30.9206 69.6592 30.9743 69.7129 31.0279C69.7666 31.0816 69.7666 31.1353 69.8203 31.189C69.874 31.2427 69.874 31.35 69.874 31.4574C69.874 31.5111 69.8203 31.6184 69.7666 31.6721C69.5519 31.9405 69.3372 32.37 68.9614 32.1553ZM69.3908 25.3377C69.3372 25.0156 69.4445 24.3714 69.8203 24.2641C69.9813 24.2104 70.1424 24.2104 70.3034 24.2104C70.5182 24.2104 70.7866 24.4251 70.6255 24.5862C70.5718 24.6398 70.5182 24.6398 70.4645 24.6935C70.4108 24.7472 70.3571 24.8546 70.3571 24.9619C70.2497 25.3377 69.7666 25.5524 69.3908 25.3377ZM68.2635 28.0755C68.2635 28.0218 68.3172 27.9144 68.3172 27.8607V27.5386C68.3172 27.4313 68.3172 27.2702 68.4246 27.1629C68.4782 27.1092 68.5319 27.1092 68.5319 27.0555C68.854 26.8945 69.3372 27.0018 69.6056 27.2702C69.6592 27.3239 69.7129 27.4313 69.7129 27.5386C69.7129 27.5923 69.7129 27.646 69.6592 27.6997C69.6056 27.8607 69.4982 28.0755 69.3908 28.1828C69.3372 28.2902 69.2835 28.3439 69.1761 28.4512C69.1224 28.5049 69.0151 28.5586 68.9614 28.6123C68.854 28.827 68.4782 28.7733 68.3172 28.5586C68.2635 28.4512 68.2098 28.2365 68.2635 28.0755ZM68.1562 34.0341C68.2098 33.8731 68.4246 33.6047 68.6393 33.712C68.693 33.712 68.693 33.7657 68.7467 33.7657H68.854C68.9077 33.7657 68.9614 33.7657 69.0151 33.8194C69.0687 33.8731 69.1224 33.9804 69.1224 34.0341C69.1761 34.1952 69.1761 34.3562 69.1224 34.5172C69.0151 34.8393 68.6393 35.1077 68.3172 35.1077C68.2635 35.1077 68.2098 35.1077 68.1562 35.0541C68.1025 35.0004 68.1025 34.9467 68.1025 34.8393C68.0488 34.5709 68.0488 34.3025 68.1562 34.0341ZM67.7267 37.4697L67.7804 37.3087C67.7267 36.9866 67.8878 36.7182 68.1562 36.5571C68.4246 36.3961 68.7467 36.3961 69.0151 36.4498C69.1224 36.4498 69.2835 36.5035 69.3372 36.6108C69.3908 36.6645 69.3908 36.7719 69.3372 36.8792C69.2835 37.2013 69.1761 37.5234 69.0151 37.7918C68.8003 38.0602 68.4782 38.2213 68.2098 38.1676C67.8878 38.1139 67.6193 37.7918 67.7267 37.4697ZM67.4046 40.0464C67.2436 40.2612 67.0288 40.4222 66.9752 40.6369C66.8678 41.0127 67.0825 41.4422 66.8678 41.7643C66.7604 41.979 66.5457 42.0327 66.331 42.1937C66.1699 42.3011 66.0089 42.5695 66.0626 42.7305C66.1163 42.8379 66.2236 42.9453 66.2236 43.0526C66.2236 43.16 66.1163 43.2673 66.0626 43.321C65.6868 43.7505 65.4721 44.341 65.4721 44.8778C65.311 44.502 64.7205 44.5557 64.4521 44.8778C64.1837 45.1999 64.2374 45.683 64.2911 46.0588C64.2374 46.1125 64.13 46.1661 64.0227 46.1125C63.7543 45.8441 63.7006 45.3609 63.9153 44.9852C63.969 44.8241 64.13 44.7167 64.1837 44.5557C64.3448 44.2336 64.2374 43.8578 64.3985 43.5357C64.5595 43.16 65.0963 42.9453 65.0426 42.5158C65.0426 42.3011 64.8279 42.0863 64.9353 41.8716C65.0426 41.7106 65.2037 41.7106 65.3647 41.6032C65.6331 41.3885 65.5258 40.959 65.5795 40.6369C65.6331 40.3149 65.9015 39.9928 66.1699 39.8317C66.5994 39.5633 67.0825 39.4559 67.512 39.2412C67.673 39.5633 67.5657 39.8317 67.4046 40.0464ZM66.331 32.4773C66.2236 32.4773 66.1699 32.37 66.1163 32.3163C66.0626 32.2626 66.0626 32.1553 66.0626 32.0479C66.0089 31.8332 66.0089 31.6184 66.0626 31.4574C66.1163 31.35 66.1699 31.2427 66.2773 31.1353C66.331 31.0816 66.3847 31.0279 66.492 31.0279C66.9215 30.9743 66.9215 31.4574 66.8678 31.7795C66.8141 32.0479 66.6531 32.531 66.331 32.4773ZM67.1362 24.103C67.512 24.9619 66.0626 26.0356 65.8479 25.2303C65.7942 25.123 65.8479 25.0156 65.8479 24.9619C65.8479 24.8009 65.7942 24.6398 65.7942 24.4251C65.8479 24.0493 66.2773 23.7809 66.7068 23.8346C66.8141 23.8346 67.0288 23.8883 67.1362 24.103ZM65.9552 21.58C66.0626 21.5263 66.1699 21.58 66.2773 21.58C66.5994 21.6337 67.0288 21.741 67.0288 22.1168V22.3315C67.0288 22.3852 66.9215 22.4389 66.8678 22.4926C66.8141 22.5463 66.7068 22.5463 66.6531 22.5463C66.492 22.5463 66.331 22.5999 66.1699 22.5463C66.1163 22.5463 65.7942 22.4389 65.7942 22.3315C65.6331 22.1168 65.6868 21.6874 65.9552 21.58ZM65.9015 27.6997C65.9552 27.646 66.0089 27.5923 66.0626 27.5923C66.2773 27.5386 66.4384 27.5923 66.6531 27.646C66.7604 27.6997 66.9215 27.7534 66.8678 27.8607C66.8678 27.9144 66.8141 27.9681 66.8141 28.0218C66.6531 28.1828 66.5457 28.3439 66.492 28.5586C66.4384 28.7733 66.4384 28.9344 66.3847 29.1491C66.3847 29.2028 66.331 29.2565 66.2773 29.3101C66.2236 29.3638 66.2236 29.4175 66.1699 29.4175C66.0626 29.4175 66.0089 29.3638 65.9552 29.2565C65.7942 29.0417 65.6868 28.7733 65.6331 28.4512C65.6331 28.1828 65.7405 27.8607 65.9015 27.6997ZM65.5795 34.0341C65.6868 33.712 66.0089 33.6583 66.2236 33.8731C66.331 33.9804 66.331 34.0878 66.331 34.1952C66.331 34.3025 66.331 34.4099 66.2773 34.5172C66.2236 34.6783 66.1163 34.7857 66.0089 34.893C65.9015 35.0004 65.6868 35.0004 65.5795 34.893C65.5258 34.893 65.5258 34.8393 65.4721 34.7857V34.6783C65.4721 34.5172 65.5258 34.2488 65.5795 34.0341ZM63.7543 37.4697C63.808 37.3624 63.9153 37.3624 64.0227 37.255C64.0764 37.2013 64.13 37.0403 64.13 36.9329C64.2374 36.7182 64.3448 36.5035 64.5058 36.2887C64.6669 36.074 65.15 35.7519 65.3647 36.0203C65.5794 36.2887 65.311 36.8256 65.2037 37.094C65.0963 37.3624 64.9353 37.7381 64.6669 37.8992C64.5058 38.0065 64.3448 38.0065 64.1837 38.0065C64.0764 38.0065 63.969 38.0065 63.8616 37.9529C63.7543 37.8992 63.7006 37.7918 63.7006 37.6845C63.7006 37.6308 63.7006 37.5234 63.7543 37.4697ZM63.3248 40.3685C63.6469 40.1538 64.0227 39.6707 64.3985 39.617C64.6132 39.617 64.8816 39.8317 64.7742 40.0464C64.7205 40.1538 64.6132 40.2075 64.5058 40.2612C64.1837 40.5296 64.1837 41.0127 63.969 41.3885C63.5932 41.979 62.7343 42.14 62.4122 42.7305C62.1438 43.2137 62.3049 43.8578 61.9291 44.2336C61.7144 44.3947 61.4996 44.4483 61.2312 44.5557C60.0502 45.1462 60.5871 47.2398 59.245 47.6155C59.084 47.6692 58.8693 47.6692 58.7619 47.5082C58.7082 47.4545 58.7082 47.4008 58.6545 47.4008C58.6008 47.4008 58.5472 47.4008 58.4935 47.4545C58.3324 47.5619 58.1714 47.6692 58.0103 47.7766C57.9567 47.8303 58.1177 47.0251 58.1177 46.9714C58.2788 46.5956 58.4935 46.2735 58.6545 45.9514C59.0303 45.2536 59.5134 44.5557 59.9966 43.9115C60.4797 43.321 61.0165 42.7842 61.3923 42.14C61.5533 41.8716 61.7144 41.5495 61.9291 41.3348C62.3586 40.8517 62.8954 40.6906 63.3248 40.3685ZM59.4598 49.226C58.7619 49.9239 57.903 50.407 56.9367 50.6217C56.722 50.6754 56.5073 50.7291 56.2925 50.6217C56.0778 50.5144 55.9168 50.3533 55.9704 50.1386C56.0778 49.8165 56.6683 49.7091 56.6683 49.3334L56.9367 49.226C56.9367 49.0113 57.2051 48.9039 57.4198 48.9039C58.1714 48.8502 58.8693 48.9576 59.4598 49.226ZM51.7296 44.502L51.8907 44.3947C52.2127 44.1262 52.6422 43.9652 53.1253 43.9115C52.6959 44.8241 51.8906 45.522 50.9781 45.7904C50.7633 45.2536 51.1928 44.6094 51.7296 44.502ZM51.7296 47.9376C53.2864 46.2198 54.8431 44.502 56.6146 42.9989C57.6883 42.0863 58.8156 41.2274 59.8355 40.3149C60.2113 39.9391 60.6944 39.6707 61.1239 39.4023C61.5533 39.1339 61.9828 38.9191 62.4122 38.7581C62.4122 39.2949 61.9828 39.6707 61.5533 40.0464C60.9092 40.6369 60.265 41.1201 59.7818 41.8716C59.6208 42.0863 59.5134 42.3011 59.2987 42.4621C59.084 42.6232 58.8693 42.6768 58.6545 42.7842C58.1714 42.9989 57.7956 43.3747 57.5272 43.8042C57.3125 44.2336 57.2051 44.7704 56.8294 45.0388C56.5609 45.2536 56.2389 45.3072 55.9168 45.522C55.2189 45.8977 54.9505 46.7566 54.6284 47.5082C54.4674 47.9376 54.199 48.4745 53.8232 48.7429C53.5011 49.0113 53.0716 49.0649 52.6959 49.226C52.3201 49.387 51.8906 49.4944 51.4612 49.6018C51.2465 49.6554 51.0317 49.7091 50.8707 49.8702C50.7097 49.9775 50.656 50.1386 50.4949 50.2996C50.3876 50.4607 50.1728 50.568 50.0118 50.5144C50.0655 50.2996 50.1192 50.1386 50.1728 49.9239C50.1728 49.8165 50.2265 49.7628 50.2802 49.7091C50.3339 49.6018 50.3876 49.5481 50.4949 49.4944C50.9244 49.0649 51.3002 48.4208 51.7296 47.9376ZM50.2265 52.6079C50.3339 52.0711 50.9781 51.8564 51.4612 51.749C51.998 51.588 52.4811 51.4806 53.018 51.3196C53.1253 51.4806 53.018 51.6953 52.8569 51.8564C52.7496 52.0174 52.5348 52.1248 52.4811 52.3395C52.4275 52.4469 52.4811 52.6079 52.4275 52.7153C52.3738 52.9837 52.0517 53.1447 51.7833 53.2521C51.4612 53.4132 51.0854 53.5205 50.7633 53.4668C50.3876 53.4132 50.0655 53.0911 50.1728 52.7153L50.2265 52.6079ZM47.1667 48.8502C47.274 48.6892 47.3814 48.4745 47.4888 48.3134C47.7035 47.9913 47.9182 47.7229 48.1329 47.4545C48.455 47.0787 48.8308 46.703 49.2603 46.4882C49.5287 46.3809 50.3339 46.0588 50.4412 46.5419C50.4949 46.703 50.3876 46.864 50.3339 47.0251C50.1192 47.5619 49.7971 48.045 49.4213 48.4745C49.3139 48.6355 49.1529 48.7965 49.0992 48.9576C49.0992 48.9934 49.0813 49.0292 49.0455 49.0649H48.9382C48.6698 48.9039 48.4013 48.9039 48.1329 48.9576C47.8645 49.0113 47.5961 49.0649 47.274 49.0649H47.2204C47.113 49.0113 47.1667 48.9039 47.1667 48.8502ZM35.5715 49.387H35.8399C36.3767 49.4407 36.8598 49.6018 37.3429 49.7091C37.8261 49.7628 38.3629 49.8165 38.846 49.9239C39.9197 50.0849 40.9933 50.1923 42.1206 50.0312C42.2816 50.0312 42.389 49.9775 42.5501 49.9775V50.3533C42.5501 50.2459 41.7985 51.1049 41.7448 51.1585C41.4227 51.588 41.1007 52.0174 40.7786 52.4469C40.2417 51.8564 39.4365 51.6417 38.6313 51.5343C37.8261 51.4269 37.0209 51.4269 36.323 51.0512H37.3429C37.4503 51.0512 37.5577 51.0512 37.665 50.9975C37.7724 50.8901 37.7724 50.6754 37.665 50.568C37.2356 50.0312 36.4304 49.8165 35.7862 49.6554C35.7325 49.6554 35.6788 49.6018 35.6251 49.6018C35.5178 49.4944 35.5178 49.4407 35.5715 49.387ZM11.2537 40.7443C12.1663 41.1201 13.1326 41.7643 13.9378 41.4422C13.2936 41.0664 12.6494 40.5833 12.0589 40.1001C12.0589 40.1001 12.5957 39.9928 12.6494 39.9928C12.8642 39.9928 13.0789 40.0464 13.2936 40.1001C13.2936 39.8854 12.5957 39.0802 12.4884 38.7581C12.6494 38.6507 13.1862 39.0802 13.9378 39.5633C15.763 40.6906 19.8428 42.8379 20.5406 43.16C23.6541 44.6631 28.9149 46.864 32.2969 48.1524C32.7263 48.3134 33.3705 48.7965 33.6389 49.0649C33.1558 49.1186 32.4042 48.9576 31.8137 48.8502C30.9012 48.6355 30.0423 48.3671 29.1833 48.1524C28.1634 47.8303 27.1971 47.5619 26.1772 47.2398C25.9088 47.1861 25.694 47.0787 25.4256 47.0251C25.3183 46.9714 24.9425 46.8103 24.8351 46.9177C24.6741 47.0787 25.1035 47.4545 24.7278 47.5619C24.4594 47.6155 23.8689 47.5619 22.9563 47.1861C17.9102 45.1999 13.562 42.8916 12.381 42.2474C11.5221 41.8179 9.58958 40.9054 9.37485 40.7443C9.91166 40.4759 10.5558 40.4759 11.2537 40.7443ZM33.3168 56.9025C32.6726 56.5804 31.9748 56.312 31.2769 55.9362C30.5791 55.5604 29.8275 55.1846 29.1297 54.8626C27.0898 53.8963 24.9962 53.0911 22.9026 52.2322C18.9302 50.6217 14.8504 49.1186 10.7706 47.7229C10.1264 47.5082 8.9454 47.0787 8.24754 47.0251C7.92545 46.9714 7.22759 46.8103 6.9055 46.703C6.20764 46.4346 5.83187 46.2198 5.24137 45.7904C4.75823 45.4683 4.32878 44.9852 3.89933 44.502C4.59719 44.5557 5.34873 44.1799 5.99291 43.9115C5.99291 43.9115 6.10027 43.8578 7.01286 44.4483C7.60336 44.8241 8.62331 45.2536 9.10644 44.8778C8.19386 44.4483 6.79813 43.4821 6.74445 43.4284C6.69077 43.321 6.63709 43.0526 6.79813 42.9453H6.9055C7.44231 43.2137 7.97913 43.5357 8.51594 43.8042C8.99908 44.0726 11.2 45.1999 11.7905 45.3072C12.0589 45.3609 12.4347 45.4146 12.7031 45.3609C12.8105 45.3609 12.8642 45.2536 12.9178 45.1999C11.8442 44.6094 9.05276 43.16 8.14017 42.4084C8.03281 42.3011 7.87177 42.1937 7.81808 42.0327C7.7644 41.8179 7.81808 41.6032 7.87177 41.3885C8.73067 41.7643 9.53589 42.1937 10.3411 42.6232C13.6157 44.341 25.0499 50.0312 25.6404 48.9039C26.6603 49.226 27.6266 49.4407 28.6465 49.8165C29.3981 50.0849 30.0959 50.407 30.8475 50.6217C31.4917 50.8364 32.2432 51.1048 32.78 51.588H31.2769C31.599 51.6953 31.8137 51.9101 32.0285 52.1785C31.2232 52.1785 30.3643 52.0174 29.5591 51.8027C29.1833 51.6953 27.8413 51.3196 27.5729 51.2659C27.0898 51.1585 26.5529 50.9975 26.0161 50.8901C25.5867 50.7828 25.1035 50.6754 24.6741 50.6754C24.6204 50.6754 24.4594 50.6754 24.4594 50.7291C24.352 50.9975 24.6741 51.2122 24.9425 51.2659C25.533 51.4806 28.8613 52.7153 31.599 53.7889C33.2095 54.4331 34.8199 55.0236 36.4304 55.6141C36.9135 55.7751 37.9871 56.2046 36.8061 56.4193C35.8399 56.5804 35.0346 55.7215 34.0684 55.8825C34.1757 56.0436 34.3368 56.1509 34.4978 56.2583C34.8199 56.4193 35.1957 56.5804 35.5178 56.7414C35.6788 56.7951 35.7862 56.9025 35.8935 57.0098C36.0009 57.1172 36.0009 57.3319 35.8935 57.4393C35.8399 57.493 35.7862 57.493 35.7325 57.5466C35.3567 57.654 34.8736 57.6003 34.4978 57.4393C34.0684 57.3319 33.6926 57.0635 33.3168 56.9025ZM79.9661 36.8256C80.0198 37.1476 80.2345 37.5771 80.2882 37.8992V38.1676C80.2345 38.3823 80.0198 38.4897 79.8051 38.436C79.5903 38.436 79.4293 38.275 79.2682 38.1139C79.1609 38.7044 79.2682 39.2949 79.5903 39.778C79.6977 39.9391 79.8051 40.1538 79.6977 40.2612C79.2682 40.3685 78.7851 40.3149 78.3557 40.1538C78.2483 40.1001 78.1409 40.0464 78.0336 40.1538C77.8725 40.2612 77.9799 40.5833 77.9262 40.798C77.6578 40.8517 77.4431 40.8517 77.1747 40.798C76.9063 40.7443 76.6915 40.5833 76.6378 40.3685C76.6378 40.3149 76.6378 40.2612 76.5842 40.1538C76.5305 40.1001 76.4768 40.0464 76.3694 39.9928C76.1547 39.8854 75.9937 39.8317 75.7789 39.8317C75.5105 39.8317 75.4032 40.1538 75.3495 40.4222C75.1348 40.8517 75.2421 41.4958 75.6716 41.5495C75.94 41.8716 75.2958 42.2474 75.3495 42.6232C75.4032 42.8379 75.6716 42.9453 75.8326 43.1063C75.94 43.2673 75.9937 43.4284 75.9937 43.6431C76.0473 43.8578 76.0474 44.1262 75.94 44.341C75.8326 44.5557 75.5105 44.6631 75.3495 44.502C75.2421 44.3947 75.2421 44.2336 75.1348 44.1262C74.9737 43.9652 74.7053 44.1799 74.5443 44.341C74.1685 44.7704 73.7927 45.2536 73.9538 45.7904C74.1148 46.5419 75.1884 47.0787 75.5642 47.7766C75.6179 47.9376 75.6716 48.045 75.6716 48.206C75.6179 48.5281 75.2421 48.6355 74.92 48.6355C74.5979 48.6355 74.2759 48.5281 73.9538 48.6892C74.1148 49.226 74.1685 49.9239 73.6317 50.1386C73.4706 50.1923 73.3096 50.1923 73.2022 50.1923C72.6654 50.1923 72.1823 50.1386 71.6455 50.1386C71.9139 50.1386 71.6991 52.1785 71.5918 52.3932C71.2697 53.1984 70.4645 53.5205 69.6592 53.5205C69.4982 53.5205 69.3372 53.5205 69.2298 53.5742C69.1224 53.6279 69.0687 53.7352 68.9614 53.7889C68.1025 54.8089 67.1362 55.7215 66.0626 56.473C65.9015 56.5804 65.7942 56.6877 65.7405 56.8488C65.5794 57.6003 67.5657 56.4193 67.7267 56.312C68.1562 55.9899 68.6393 55.6678 69.0687 55.3457C69.4445 55.0773 69.7666 54.8626 70.1424 54.7015C70.3034 54.6478 70.4645 54.5942 70.6255 54.6478C70.7866 54.7015 70.8939 54.9162 70.8939 55.0773C70.9476 55.8825 69.7666 56.7951 69.2298 57.2782C68.1562 58.2982 67.0289 59.2644 65.8479 60.177C65.2574 60.6602 64.7205 61.1433 64.13 61.5728C63.7006 61.8948 63.0564 62.1096 62.8417 62.5927C62.7343 62.7537 62.7343 62.9685 62.627 63.1295C62.4122 63.4516 61.9291 63.5053 61.5533 63.6663C61.0165 63.8811 60.6407 64.4179 60.5871 65.0084C61.1776 65.0621 62.6806 64.3105 63.2175 64.0421C69.7129 61.5728 72.8265 58.8887 74.8127 56.634C76.3158 54.9162 78.6777 51.2659 77.9262 48.8502C77.6578 48.045 77.282 47.2935 77.1747 46.4882C77.121 46.0051 77.121 44.5557 77.8188 44.502H77.9799C78.0336 44.5557 78.0872 44.5557 78.1409 44.6631C78.1946 44.8778 78.1409 45.0925 78.1946 45.3072C78.302 45.522 78.6241 45.5756 78.8388 45.4683C79.0535 45.3609 79.2146 45.0925 79.2682 44.8778C79.3219 44.8241 79.3219 44.7167 79.3756 44.6631C79.5903 44.3947 80.0198 44.6094 80.1808 44.9315C80.3419 45.2536 80.3419 45.5756 80.5566 45.8441C80.7176 46.0588 81.0397 46.1661 81.3082 46.1661H81.7913C82.2207 46.1661 82.7575 46.2198 82.9723 46.6493C83.1333 47.0251 83.1333 47.7229 83.026 48.5281C82.6502 50.407 82.1134 52.2322 81.4155 53.95C80.9324 55.1846 80.2882 56.0972 79.4293 57.0635C78.5704 58.0298 77.6578 58.9424 76.6378 59.8013C74.9737 61.2507 73.2022 62.5927 71.3771 63.8274C69.0687 65.1157 67.1362 65.921 65.7405 66.3504C65.0426 66.5651 64.3448 66.8335 63.7006 67.1556C62.9491 67.4777 62.3049 67.7461 61.4996 67.6925C61.3386 67.6925 61.1776 67.6388 61.0165 67.6925C60.8555 67.6925 60.6944 67.7998 60.5334 67.8535C59.4598 68.283 58.3324 68.5514 57.2051 68.605C57.1514 68.3366 57.4735 68.1219 57.6883 67.9609C58.0103 67.6925 58.2251 67.3167 58.2251 66.8872C58.2251 66.8335 58.2251 66.7262 58.1714 66.7262C58.1177 66.6725 58.064 66.6725 58.064 66.6725C57.7956 66.6188 56.0778 66.4578 56.9367 65.921C57.0978 65.8136 57.3125 65.7599 57.5272 65.7062C57.7419 65.6526 57.9567 65.5989 58.1714 65.5452C58.3324 65.4915 58.4398 65.4378 58.6008 65.3305C58.8693 65.1157 58.9766 64.5252 58.6008 64.4179C58.3861 64.3105 58.1177 64.4179 58.0103 64.2568C57.8493 64.0958 57.9567 63.8274 58.1177 63.6663C58.6545 62.9685 59.4597 62.7001 60.1039 62.1096C60.5871 61.6264 60.8018 61.6801 61.446 61.5728C62.1438 61.4117 62.6806 60.7675 63.0564 60.177C63.2175 59.8549 63.4322 59.5329 63.5932 59.2108C63.6469 59.1571 63.7006 59.1034 63.808 59.1034C64.2374 58.8887 64.5058 58.7276 64.5058 58.7276C64.6132 58.674 64.7205 58.5129 64.6669 58.4055C64.7205 58.2982 64.6669 58.1908 64.6132 58.0835C64.5058 57.9224 64.2911 57.8687 64.13 58.0298C64.13 58.0298 63.8616 58.2445 63.4322 58.5129C61.9291 59.3718 58.3324 61.4117 56.2389 62.4853C53.179 64.0958 37.1282 71.1281 35.4104 71.1281C35.4104 71.1281 35.1957 70.6986 36.323 68.605C36.5914 68.1219 36.9135 67.5314 37.2356 66.9409C37.4503 66.6188 37.665 66.3504 37.8798 66.082C38.1482 65.7599 38.4703 65.4915 38.685 65.1694C39.3828 64.1495 39.3828 62.8074 39.9197 61.6801C40.3491 60.8212 41.047 60.1234 41.6375 59.3718C42.4427 58.3519 42.4964 57.1172 42.9258 55.9362C43.1942 55.2383 43.5163 54.5942 44.0531 54.1647C44.2679 54.0037 44.5363 53.8426 44.8047 53.6816C44.8584 53.6816 44.8584 53.6279 44.912 53.5742C44.9657 53.5742 45.0194 53.5205 45.0194 53.5205C45.0731 53.4668 45.0731 53.4132 45.1268 53.3595C45.2878 53.1984 45.3952 52.9837 45.5025 52.769C45.5562 52.6616 45.6099 52.5542 45.6636 52.3932C45.7173 52.3395 45.8246 52.1785 45.8246 52.0711C46.093 51.5343 46.3078 51.0512 46.6835 50.6217C46.7372 50.568 46.7909 50.5144 46.8446 50.5144C46.8983 50.5144 46.9519 50.4607 47.0056 50.4607C47.274 50.4607 47.5424 50.4607 47.8108 50.407C47.9719 50.3533 48.2403 50.2996 48.4013 50.407C48.455 50.4607 48.455 50.6217 48.455 50.6754C48.5087 51.1049 48.455 51.588 48.294 51.9638C48.1866 52.2322 48.0256 52.5006 47.8108 52.6616C47.7572 52.6616 47.7572 52.7153 47.7572 52.769C47.7572 52.8227 47.7572 52.8763 47.8108 52.93C47.8645 52.9837 47.9182 52.9837 47.9719 53.0374C48.0793 53.0911 48.1329 53.2521 48.1329 53.3595C48.1329 53.6816 47.7572 53.8963 47.5424 54.111C47.2204 54.3794 46.9519 54.6478 46.6299 54.9162C46.3078 55.2383 45.8783 55.5604 45.4489 55.4531C45.1268 55.7215 44.8047 56.0436 44.5363 56.4193C44.4289 56.634 44.4289 56.7414 44.5363 56.7951C44.8584 57.0098 45.9857 56.6877 46.2004 56.634C46.9519 56.3656 47.6498 55.9362 48.2403 55.3457C48.3477 55.1846 48.5087 55.0773 48.6698 55.0236C48.8845 54.9699 49.0992 55.0236 49.3676 55.0773C51.0854 55.5604 53.018 54.9699 54.199 53.6816C54.4674 53.3595 54.6821 53.0374 55.0579 52.8227C55.3263 52.6616 55.6484 52.5543 55.9704 52.5006C58.4935 51.8564 60.8555 50.5144 62.6806 48.6355C62.788 48.5281 62.8954 48.4208 63.0027 48.4208C63.1638 48.3671 63.3785 48.4745 63.5395 48.5281C63.5932 48.5818 63.7006 48.5818 63.7543 48.6355C63.5395 47.9913 64.0764 46.7566 64.6669 47.6692C64.8279 47.884 64.8816 48.0987 64.9353 48.3671C64.9353 48.4208 64.989 48.4745 64.9353 48.5818C64.9353 48.6355 64.8816 48.6892 64.8279 48.7429C64.7742 48.7965 64.7742 48.9039 64.7205 49.0113C65.0963 49.1186 65.5258 49.3334 65.9015 49.3334C66.2773 49.3334 66.5994 49.0649 66.9752 49.0649C67.2973 49.0649 67.5657 49.1723 67.8878 49.226C68.3709 49.3334 68.854 49.387 69.2835 49.2797C69.7666 49.1723 70.1424 48.7965 70.2497 48.3134C70.3034 47.9913 70.2497 47.6692 70.3571 47.3471C70.5182 46.864 71.055 46.6493 71.5381 46.5419C72.0212 46.4882 72.5581 46.4882 73.0412 46.3272C73.1485 46.3272 73.2022 46.2735 73.2559 46.1661C73.3096 46.0588 73.2022 45.8977 73.0949 45.8441C72.9875 45.7904 72.8265 45.7904 72.7191 45.7904C69.8203 45.3609 73.1486 41.1201 73.6317 40.1001C74.8127 37.7918 75.6716 34.4636 75.0811 31.8869C74.92 31.0816 74.759 30.5448 75.2958 29.7933C75.6716 29.2565 76.0474 30.7059 76.4768 29.4175C76.7452 28.666 76.4768 28.2902 77.3894 27.8071C77.4968 28.2365 77.6041 28.666 77.8188 29.0954C77.9262 28.5049 78.5167 27.8607 79.0535 27.5386C78.9462 28.3975 78.8388 29.4175 78.8388 30.2764C78.8388 32.0479 78.9998 33.0678 79.2682 34.3562C79.3219 35.0541 79.7514 36.1277 79.9661 36.8256ZM79.1072 25.0156C78.9998 25.1767 78.8925 25.3377 78.7851 25.4451C78.5167 25.7135 78.0336 25.8208 77.6578 25.6061C77.8725 25.3914 77.9799 24.9619 77.8188 24.6935C76.9063 25.284 75.8326 25.4987 74.759 25.3914C75.4568 25.0156 76.101 24.5862 76.6378 24.0493C76.4231 23.942 76.2084 23.8346 75.9937 23.7809C77.2283 23.6736 78.4093 23.1368 79.2682 22.2242C78.9998 22.1705 78.7314 22.0631 78.463 21.9021C78.8388 21.58 79.2682 21.4189 79.6977 21.0969C80.2882 20.6674 81.0397 20.6137 81.6302 20.3453C81.6302 20.4527 81.6302 20.56 81.6839 20.6674C82.3818 20.7748 82.9723 20.1306 83.6164 19.8085C83.9385 19.6475 84.3143 19.5401 84.7438 19.4864C85.4416 19.379 86.1395 19.3254 86.8373 19.3254C87.2131 19.3254 87.5889 19.379 87.8573 19.5938V19.7011C86.3542 20.0769 84.9048 20.9895 83.5628 21.7947C82.2207 22.6536 80.0198 23.6736 79.1072 25.0156Z" fill="black"/>
<path d="M61.7144 51.8027C62.2512 51.6417 62.788 51.3196 63.2175 50.9975C63.3248 50.8901 64.3448 49.9239 64.13 49.8702C63.969 49.8702 63.808 49.7628 63.6469 49.8165C63.3785 49.8165 63.1638 50.0849 62.9491 50.2996L62.8417 50.407C62.3586 50.8901 61.8217 51.2122 61.2849 51.5343C61.1776 51.588 61.1239 51.6417 61.0165 51.6953C60.6944 52.0174 61.5533 51.8564 61.7144 51.8027Z" fill="black"/>
<path d="M21.7753 49.4407C21.5606 49.2797 21.2922 49.1186 21.0238 49.0113C20.2185 48.6355 16.944 47.2398 16.085 46.9714C15.8166 46.864 15.5482 46.8103 15.2261 46.7566C14.9041 46.703 15.4409 47.0787 15.4945 47.0787C15.763 47.2398 15.9777 47.3471 16.2461 47.5082C17.1587 47.9376 18.0713 48.3134 18.9839 48.7429C19.628 49.0113 20.2185 49.2797 20.8627 49.5481C21.0238 49.6018 22.2047 50.1923 22.2584 50.0849C22.3121 50.0312 22.2047 49.8702 22.1511 49.8165C22.0437 49.6554 21.8827 49.5481 21.7753 49.4407Z" fill="black"/>
</svg>
