<svg xmlns="http://www.w3.org/2000/svg" width="138.857" height="44.148" viewBox="0 0 138.857 44.148">
  <g id="Marriott_International" transform="translate(0 0.003)">
    <path id="Path_11381" data-name="Path 11381" d="M1678.36,2501.285v-7.18h1.575v7.18Zm9.625,0-3.476-4.563v4.565h-1.554V2494.1h1.452l3.353,4.421V2494.1h1.554v7.18Zm6.993-5.723v5.723H1693.4v-5.723h-2.178V2494.1h5.931v1.456Zm4.084,5.723v-7.18h5.4v1.4h-3.844v1.429h3.374v1.4h-3.374v1.536h3.887v1.4Zm12.4,0-1.543-2.3h-1.237v2.3h-1.575V2494.1h3.265c1.688,0,2.7.892,2.7,2.369v.021a2.23,2.23,0,0,1-1.534,2.226l1.749,2.565Zm.032-4.729c0-.683-.47-1.026-1.237-1.026h-1.566v2.062h1.588c.767,0,1.207-.409,1.207-1.015Zm9.207,4.729-3.467-4.565v4.565h-1.554v-7.18h1.452l3.354,4.421V2494.1h1.554v7.18Zm9.189,0-.654-1.611H1726.2l-.654,1.611h-1.606l3.068-7.232h1.452l3.068,7.232Zm-2.174-5.332-.951,2.328h1.9Zm7.941-.389v5.723h-1.574v-5.726h-2.178V2494.1h5.931v1.456Zm4.252,5.723V2494.1h1.575v7.18Zm7.837.123a3.672,3.672,0,0,1-3.793-3.693v-.021a3.805,3.805,0,0,1,7.608-.021v.021a3.707,3.707,0,0,1-3.812,3.719Zm2.167-3.714a2.18,2.18,0,0,0-2.1-2.256h-.067a2.146,2.146,0,0,0-2.149,2.237v.021a2.18,2.18,0,0,0,2.1,2.256h.067a2.146,2.146,0,0,0,2.149-2.237Zm9.241,3.589-3.467-4.565v4.565h-1.547v-7.18h1.452l3.353,4.421V2494.1h1.554v7.18Zm9.189,0-.653-1.611h-3.02l-.653,1.611h-1.606l3.068-7.232h1.452l3.068,7.232Zm-2.156-5.332-.951,2.328h1.9Zm5.589,5.334V2494.1h1.575v5.744h3.569v1.436Z" transform="translate(-1653.652 -2457.269)"/>
    <path id="Path_11382" data-name="Path 11382" d="M74.134,13.906a6.209,6.209,0,0,0-2.7-.71A3.9,3.9,0,0,0,68.2,15.016V29.654H62.49V9.138h5.232l.327,2.148A5.151,5.151,0,0,1,72.337,8.7a5.77,5.77,0,0,1,1.8.312v4.9Zm13.552-4.9a5.773,5.773,0,0,0-1.8-.312,5.159,5.159,0,0,0-4.288,2.59l-.327-2.148H76.042V29.656h5.711V15.017A3.881,3.881,0,0,1,84.982,13.2a6.209,6.209,0,0,1,2.7.71ZM58.992,15.028V29.656H53.75l-.327-2.139A7.106,7.106,0,0,1,47.917,30.1c-3.267,0-5.523-2.5-5.523-5.874,0-7.259,8.536-8.281,10.891-8.52v-.583c0-1.188-.994-2.421-3.63-2.421a9.518,9.518,0,0,0-5.318,1.821V10.29A16.13,16.13,0,0,1,51.472,8.7C56.723,8.692,58.992,11.1,58.992,15.028Zm-5.711,4.686c-1.815,0-5.13.626-5.13,3.5a2.331,2.331,0,0,0,2.239,2.5c1.62,0,2.891-1.165,2.891-3.789ZM21.94,3.056l5.135,11.051L25.06,18.43,16.495,0,9.97,3.049,15.1,14.083c-.4.86-1.046,2.26-2.09,4.488-2.346,5.032-4.161,6.44-7.376,6.44a8.016,8.016,0,0,1-2.591-.48L0,31.071a13.126,13.126,0,0,0,4.86,1.013c3.8,0,6.6-2.48,9.03-7.71l2.995-6.44,5.445,11.729h7.941l-3.44-7.4,2.015-4.324,5.445,11.729h7.941L28.466,0ZM135.96,9.141V2.352l-5.711,2.672V9.141H128.42v3.568h1.831V29.658h5.711V12.707h2.9V9.138ZM89.824,29.658h5.711V9.138H89.824ZM123.832,2.35l-5.711,2.672V9.138H116.29v3.568h1.831V29.656h5.711V12.707h2.9V9.138h-2.9Zm-8.876,15.359v3.375c0,4.89-2.382,9.016-8.234,9.016s-8.234-4.1-8.234-9.016V17.711c0-4.911,2.382-9.016,8.234-9.016s8.234,4.126,8.234,9.016ZM109.2,16.9c0-2.453-.594-4.194-2.478-4.194s-2.478,1.741-2.478,4.194V21.9c0,2.453.583,4.194,2.478,4.194S109.2,24.356,109.2,21.9Z"/>
  </g>
</svg>
