<svg width="569" height="143" viewBox="0 0 569 143" fill="none" xmlns="http://www.w3.org/2000/svg">
<g clip-path="url(#clip0_7450_8036)">
<g clip-path="url(#clip1_7450_8036)">
<g clip-path="url(#clip2_7450_8036)">
<path d="M36.4117 129.876L53.8484 91.5631C56.6897 91.7933 58.6836 91.8624 61.9071 91.8624C63.6491 91.9044 65.3922 91.8552 67.1291 91.715C67.2051 91.715 67.5896 91.6367 68.2803 91.5631V93.359L65.4368 94.4089C61.442 95.8295 61.0621 96.4282 61.0621 101.141V132.197C61.0621 136.91 61.9071 137.953 66.8988 139.609L69.1276 140.281L69.054 142.077C65.1687 141.782 61.2711 141.683 57.3758 141.778C51.691 141.778 49.5474 141.854 46.6209 142.077V140.281L49.6924 139.008C53.3027 137.511 53.8369 136.613 53.8369 132.273V101.137L35.0302 142.448H34.031L15.6687 101.137V132.197C15.6687 136.91 16.0509 137.511 20.5039 139.307L22.8847 140.279V142.075C19.3335 141.789 15.7697 141.689 12.2081 141.776C9.3651 141.729 6.52159 141.829 3.68891 142.075L3.61523 140.279L5.84403 139.607C10.7598 138.032 11.6808 136.844 11.6808 132.195V101.137C11.6808 96.5733 11.0684 95.7513 6.53477 94.1027L4.46255 93.3521V91.5562C6.81014 91.804 9.17101 91.904 11.5312 91.8555C14.0942 91.8914 16.6574 91.7914 19.2099 91.5562L36.4117 129.876Z" fill="#002664"/>
<path d="M106.781 120.6H81.1247L81.0487 121.125C81.0487 127.71 82.0503 131.154 84.7326 134.368C85.8479 135.721 87.2572 136.802 88.8532 137.528C90.4492 138.254 92.1898 138.607 93.9426 138.559C97.961 138.401 101.917 137.514 105.618 135.941L106.463 138.112C101.558 140.876 96.0383 142.367 90.4083 142.45C80.1899 142.45 73.8926 135.791 73.8926 125.016C73.8926 112.895 81.2605 104.586 92.2525 104.586C94.1752 104.476 96.0996 104.771 97.9009 105.453C99.7022 106.134 101.34 107.186 102.709 108.541C104.078 109.895 105.147 111.522 105.847 113.317C106.547 115.111 106.862 117.032 106.772 118.956L106.781 120.6ZM98.7916 117.979C98.6373 110.496 96.2589 107.206 91.0322 107.206C89.5425 107.196 88.0712 107.535 86.7369 108.198C85.4027 108.861 84.2429 109.828 83.3512 111.021C81.857 113.029 81.0729 115.477 81.1224 117.979H98.7916Z" fill="#002664"/>
<path d="M141.663 142.9V138.785C137.858 141.157 133.469 142.426 128.985 142.451C119.46 142.451 113.16 135.568 113.16 125.166C113.16 112.516 121.304 104.287 133.747 104.287C136.472 104.189 139.182 104.727 141.663 105.86V95.6044C141.663 91.9411 140.661 90.9672 136.284 90.0784L133.212 89.4775V87.9832C138.378 87.0129 143.483 85.7389 148.499 84.168V132.957C148.499 136.324 149.116 136.92 154.025 137.896L156.097 138.269V139.619L155.33 139.766C151.106 140.481 146.925 141.43 142.807 142.609L141.663 142.9ZM141.663 108.851C139.341 107.554 136.723 106.884 134.064 106.905C125.92 106.905 120.772 113.566 120.772 124.192C120.772 133.245 125.227 138.859 132.45 138.859C135.272 138.792 138.057 138.208 140.668 137.136L141.669 136.763L141.663 108.851Z" fill="#002664"/>
<path d="M160.867 127.784H162.709C164.781 133.174 166.089 135.566 167.701 136.913C169.954 138.466 172.647 139.253 175.382 139.158C181.368 139.158 185.446 135.718 185.446 130.706C185.446 127.413 184.065 125.693 178.84 122.249L171.774 117.609C166.248 113.941 164.936 112.818 163.784 110.197C162.946 108.478 162.525 106.585 162.555 104.672C162.555 96.5898 168.541 91.2757 177.687 91.2757C179.307 91.2547 180.925 91.3803 182.522 91.651C182.676 91.651 183.825 91.8812 185.976 92.2519C187.117 92.4554 188.271 92.5808 189.429 92.6272H190.505C190.505 95.0195 190.735 100.11 190.889 102.952L190.965 104.001H189.273L188.812 103.03C185.359 95.7724 183.436 94.1998 177.76 94.1998C172.235 94.1998 168.551 97.4233 168.551 102.208C168.551 106.023 169.472 107.22 175.308 110.957L183.452 116.122C189.899 120.31 192.287 123.605 192.287 128.325C192.287 136.331 185.296 142.094 175.617 142.094C173.867 142.096 172.119 141.947 170.395 141.647L165.249 140.597C164.035 140.364 162.8 140.264 161.565 140.3H161.411V139.549C161.406 136.69 161.097 131 160.867 127.784Z" fill="#002664"/>
<path d="M203.343 107.879H197.734V106.377C200.178 105.449 202.403 104.022 204.267 102.189C205.833 100.324 207.055 98.1949 207.874 95.9011L208.183 95.1528H210.179V104.954H223.469V107.874H210.179V131.52C210.179 136.683 212.1 139.151 216.246 139.151C218.726 139.103 221.174 138.596 223.469 137.657L224.236 139.453C220.307 141.208 216.088 142.223 211.791 142.446C206.265 142.446 203.341 139.453 203.341 133.915L203.343 107.879Z" fill="#002664"/>
<path d="M250.469 121.65V110.874C250.469 107.881 249.011 106.534 245.634 106.534C242.641 106.534 241.637 106.981 240.64 108.777C238.567 112.594 237.336 113.718 235.114 113.718C234.655 113.753 234.193 113.691 233.76 113.537C233.326 113.382 232.93 113.138 232.597 112.82C232.264 112.503 232.001 112.119 231.826 111.693C231.65 111.267 231.566 110.81 231.579 110.35C231.579 106.76 237.336 104.287 245.636 104.287C253.464 104.287 257.312 107.207 257.312 113.117V132.2C257.234 132.836 257.293 133.482 257.487 134.093C257.68 134.704 258.003 135.267 258.433 135.742C258.863 136.218 259.391 136.595 259.979 136.849C260.568 137.103 261.205 137.227 261.845 137.213C262.921 137.197 263.976 136.915 264.917 136.393L265.762 137.588C260.616 141.18 258.003 142.451 255.7 142.451C253.241 142.451 251.857 140.956 251.164 137.588C245.408 141.18 241.793 142.451 237.877 142.451C236.646 142.524 235.414 142.344 234.257 141.921C233.099 141.498 232.041 140.842 231.147 139.993C230.254 139.144 229.544 138.12 229.063 136.986C228.582 135.851 228.339 134.63 228.349 133.397C228.299 131.649 228.808 129.93 229.802 128.49C230.796 127.051 232.222 125.965 233.875 125.392C237.329 123.969 240.322 123.294 249.315 121.8L250.469 121.65ZM250.469 123.745C247.049 124.239 243.681 125.04 240.405 126.14C239.094 126.537 237.95 127.351 237.145 128.459C236.341 129.567 235.921 130.907 235.95 132.276C235.94 133.095 236.102 133.907 236.426 134.66C236.749 135.413 237.226 136.09 237.827 136.647C238.428 137.204 239.139 137.629 239.914 137.894C240.689 138.16 241.511 138.26 242.327 138.189C245.167 138.066 247.946 137.324 250.469 136.015V123.745Z" fill="#002664"/>
<path d="M282.891 103.914V109.003C286.489 106.345 290.791 104.809 295.258 104.586C299.023 104.586 300.943 106.083 300.943 108.853C300.98 109.375 300.904 109.9 300.721 110.391C300.537 110.881 300.249 111.326 299.878 111.696C299.506 112.065 299.059 112.35 298.568 112.531C298.076 112.712 297.551 112.784 297.029 112.744C295.187 112.744 294.496 112.371 293.032 110.276C292.789 109.739 292.384 109.292 291.875 108.997C291.366 108.701 290.777 108.572 290.19 108.627C287.749 108.74 285.375 109.46 283.283 110.722V133.397C283.283 137.139 284.052 138.034 287.816 139.011L292.965 140.355V142.078C290.432 141.847 287.669 141.778 280.211 141.778C273.145 141.778 270.771 141.854 268.469 142.078V140.355L272.077 139.158C275.687 137.963 276.451 136.913 276.451 133.773V114.69C276.451 110.575 275.682 109.677 271.386 109.003L268.469 108.556V107.133C270.909 106.76 277.897 105.19 282.891 103.914Z" fill="#002664"/>
<path d="M338.897 117.305V132.041C338.897 136.754 339.279 137.279 344.736 139.445L346.965 140.27L346.884 142.066C344.121 141.835 341.432 141.766 334.518 141.766C328.909 141.766 326.604 141.842 323.696 142.066L323.62 140.27L325.849 139.519C330.765 137.873 331.686 136.675 331.686 132.038V101.367C331.686 96.8011 330.686 95.6108 325.849 94.0336L323.62 93.3589L323.696 91.563C326.459 91.7932 329.609 91.8623 335.832 91.8623C341.589 91.8623 344.283 91.7863 346.884 91.563L346.965 93.3589L344.736 94.0336C339.901 95.5302 338.897 96.7965 338.897 101.367V114.387H364.247V101.367C364.247 96.8011 363.248 95.5302 358.408 94.0336L356.179 93.3589V91.563C358.869 91.7932 361.936 91.8623 368.383 91.8623C373.991 91.8623 376.754 91.7863 379.435 91.563V93.3589L377.282 94.0336C372.366 95.6039 371.445 96.7965 371.445 101.367V132.05C371.445 136.763 371.753 137.21 377.282 139.455L379.435 140.279V142.075C376.591 141.845 373.909 141.775 366.835 141.775C361.613 141.775 359.385 141.851 356.159 142.075V140.279L358.388 139.455C363.764 137.286 364.227 136.761 364.227 132.05V117.314L338.897 117.305Z" fill="#002664"/>
<path d="M417.103 120.6H391.447L391.371 121.125C391.371 127.71 392.373 131.154 395.055 134.368C396.17 135.721 397.579 136.802 399.175 137.528C400.771 138.254 402.512 138.607 404.265 138.559C408.283 138.401 412.24 137.514 415.941 135.941L416.786 138.112C411.88 140.876 406.361 142.368 400.731 142.45C390.512 142.45 384.215 135.791 384.215 125.016C384.215 112.895 391.583 104.586 402.573 104.586C404.495 104.476 406.42 104.771 408.221 105.453C410.022 106.134 411.66 107.186 413.029 108.541C414.398 109.895 415.467 111.522 416.167 113.317C416.867 115.111 417.182 117.032 417.092 118.956L417.103 120.6ZM409.116 117.979C408.962 110.496 406.583 107.206 401.354 107.206C399.865 107.196 398.394 107.536 397.059 108.199C395.725 108.861 394.565 109.828 393.673 111.021C392.179 113.029 391.395 115.477 391.445 117.979H409.116Z" fill="#002664"/>
<path d="M444.761 121.65V110.874C444.761 107.881 443.303 106.534 439.926 106.534C436.932 106.534 435.929 106.981 434.932 108.777C432.859 112.594 431.628 113.718 429.406 113.718C428.947 113.753 428.485 113.691 428.052 113.537C427.618 113.382 427.222 113.138 426.889 112.82C426.556 112.503 426.293 112.119 426.118 111.693C425.942 111.267 425.858 110.81 425.871 110.35C425.871 106.76 431.628 104.287 439.928 104.287C447.756 104.287 451.604 107.207 451.604 113.117V132.2C451.526 132.836 451.586 133.482 451.779 134.093C451.972 134.704 452.295 135.267 452.725 135.742C453.155 136.218 453.683 136.595 454.271 136.849C454.86 137.103 455.497 137.227 456.137 137.213C457.213 137.197 458.268 136.915 459.209 136.393L460.054 137.588C454.908 141.18 452.295 142.451 449.992 142.451C447.533 142.451 446.149 140.956 445.456 137.588C439.7 141.18 436.085 142.451 432.169 142.451C430.938 142.524 429.706 142.344 428.549 141.921C427.391 141.498 426.333 140.842 425.439 139.993C424.546 139.144 423.836 138.12 423.355 136.986C422.874 135.851 422.631 134.63 422.641 133.397C422.591 131.649 423.1 129.93 424.094 128.49C425.088 127.051 426.514 125.965 428.167 125.392C431.621 123.969 434.614 123.294 443.607 121.8L444.761 121.65ZM444.761 123.745C441.341 124.239 437.973 125.04 434.697 126.14C433.386 126.537 432.242 127.351 431.437 128.459C430.633 129.567 430.213 130.907 430.241 132.276C430.232 133.095 430.394 133.907 430.718 134.66C431.041 135.413 431.518 136.09 432.119 136.647C432.72 137.204 433.431 137.629 434.206 137.894C434.981 138.16 435.803 138.26 436.619 138.189C439.459 138.066 442.238 137.324 444.761 136.015V123.745Z" fill="#002664"/>
<path d="M477.566 84.3057V133.095C477.566 137.362 478.411 138.333 482.793 139.68L485.249 140.353V142.075C481.715 141.845 479.795 141.776 474.264 141.776C467.587 141.776 465.584 141.852 462.752 142.075V140.353L466.286 139.082C469.74 137.806 470.741 136.461 470.741 133.095V95.7559C470.741 92.088 469.664 91.0381 465.446 90.2184L462.296 89.6198V88.2728L463.063 88.1209L469.825 86.5506C472.46 86.0038 475.048 85.2532 477.566 84.3057Z" fill="#002664"/>
<path d="M494.789 107.879H489.171V106.377C491.614 105.449 493.838 104.023 495.701 102.189C497.268 100.324 498.491 98.1951 499.311 95.9011L499.617 95.1528H501.616V104.954H514.906V107.874H501.616V131.52C501.616 136.683 503.536 139.151 507.683 139.151C510.162 139.103 512.611 138.596 514.906 137.657L515.672 139.453C511.744 141.208 507.525 142.223 503.228 142.446C497.702 142.446 494.777 139.453 494.777 133.915L494.789 107.879Z" fill="#002664"/>
<path d="M534.947 109.677V133.02C534.947 137.063 535.407 137.809 538.787 139.236L541.398 140.36V142.082C538.481 141.852 536.103 141.783 530.261 141.783C525.269 141.783 523.195 141.859 520.13 142.082V140.36L523.722 138.932C527.256 137.588 528.097 136.54 528.097 133.406V95.6803C528.097 92.0147 527.098 90.9671 522.801 90.1428L519.651 89.5442V88.1212L520.651 87.891C525.493 87.0024 530.268 85.7768 534.94 84.2231V107.729C539.604 105.53 544.685 104.352 549.841 104.275C557.064 104.275 560.663 108.39 560.663 116.773V132.937C560.663 135.329 560.893 136.602 561.584 137.277C562.889 138.274 564.375 139.011 565.959 139.446L568.261 140.344V142.066C565.42 141.836 562.885 141.767 557.739 141.767C551.752 141.767 548.902 141.843 546.6 142.066V140.344L549.363 139.298C553.436 137.65 553.818 137.125 553.818 132.937V119.103C553.818 111.247 550.749 107.879 543.754 107.879C540.73 107.907 537.74 108.517 534.947 109.677Z" fill="#002664"/>
<path d="M306.987 0.00830078H0V64.8346H306.987V0.00830078Z" fill="white"/>
<path d="M303.77 3.13916H153.492V61.7004H303.77V3.13916Z" fill="#FCD900"/>
<path d="M153.493 3.13916H3.21484V61.7004H153.493V3.13916Z" fill="#002664"/>
<path d="M3.21484 27.5244C31.8752 34.2759 61.2228 37.6757 90.6676 37.6553C145.29 37.7449 199.279 25.9605 248.896 3.11816H238.222C195.701 21.1802 149.969 30.4616 103.771 30.4048C69.7 30.4378 35.8125 25.4167 3.21484 15.5055V27.5244Z" fill="white"/>
<path fill-rule="evenodd" clip-rule="evenodd" d="M3.21484 47.1298C26.5146 51.096 50.1072 53.0908 73.7421 53.0932C142.927 53.2295 211.047 36.0533 271.896 3.12939H261.949C206.477 31.1576 145.176 45.7063 83.0256 45.594C56.2196 45.5934 29.4815 42.8975 3.21484 37.5468V47.1298Z" fill="white"/>
</g>
</g>
</g>
<defs>
<clipPath id="clip0_7450_8036">
<rect width="568.284" height="142.906" fill="white"/>
</clipPath>
<clipPath id="clip1_7450_8036">
<rect width="568.284" height="142.906" fill="white"/>
</clipPath>
<clipPath id="clip2_7450_8036">
<rect width="568.284" height="142.892" fill="white" transform="translate(0 0.00830078)"/>
</clipPath>
</defs>
</svg>
