<svg width="278" height="365" viewBox="0 0 278 365" fill="none" xmlns="http://www.w3.org/2000/svg">
<g clip-path="url(#clip0_7481_7010)">
<g clip-path="url(#clip1_7481_7010)">
<g clip-path="url(#clip2_7481_7010)">
<path fill-rule="evenodd" clip-rule="evenodd" d="M64.9181 202.928V229.933H58.8438V210.953L50.7188 224.531L42.5532 210.953V229.933H36.5195V202.928H44.3378L50.7188 213.916L56.9446 202.928H64.9181ZM70.0465 229.933H76.0839V202.928H70.0465V229.933ZM85.9935 208.559H78.7036V202.931H99.3577V208.559H92.0752V229.933H85.9972L85.9935 208.559ZM101.601 229.59V223.962C102.853 224.191 105.894 224.72 109.611 224.72C112.726 224.72 114.281 224.302 114.281 222.592C114.281 220.615 112.951 220.349 108.587 218.331C104.335 216.392 101.183 214.681 101.183 210.118C101.183 204.491 104.601 202.551 111.359 202.551C114.813 202.551 117.318 202.854 118.874 203.046V208.673C117.359 208.522 114.588 208.141 111.51 208.141C107.867 208.141 107.143 208.522 107.143 210.003C107.143 211.526 109.12 212.287 112.079 213.617C116.524 215.634 120.167 217.304 120.167 222.44C120.167 227.801 116.827 230.31 109.611 230.31C106.766 230.31 104.106 230.007 101.601 229.59ZM123.777 220.807V202.928H129.814V220.571C129.814 223.652 131.636 224.716 134.522 224.716C137.407 224.716 139.266 223.652 139.266 220.571V202.928H145.303V220.803C145.303 227.343 141.017 230.306 134.522 230.306C128.026 230.306 123.777 227.347 123.777 220.807ZM161.786 224.838C164.213 224.838 165.2 223.962 165.2 221.605C165.2 219.51 164.291 218.638 162.048 218.638H156.506V224.834L161.786 224.838ZM161.368 213.846C163.796 213.846 164.671 212.553 164.671 210.764C164.671 208.596 163.607 208.03 161.368 208.03H156.506V213.846H161.368ZM150.469 202.931H162.24C167.746 202.931 170.783 204.945 170.783 209.889C170.783 213.805 168.544 215.025 166.493 215.823C168.921 216.543 171.466 217.877 171.466 222.399C171.466 227.118 168.621 229.933 162.658 229.933H150.469V202.931ZM175.113 229.933H181.15V202.928H175.113V229.933ZM185.555 229.59V223.962C186.811 224.191 189.848 224.72 193.569 224.72C196.68 224.72 198.235 224.302 198.235 222.592C198.235 220.615 196.905 220.349 192.545 218.331C188.289 216.392 185.137 214.681 185.137 210.118C185.137 204.491 188.555 202.551 195.313 202.551C198.768 202.551 201.276 202.854 202.832 203.046V208.673C201.313 208.522 198.542 208.141 195.464 208.141C191.818 208.141 191.097 208.522 191.097 210.003C191.097 211.526 193.074 212.287 196.033 213.617C200.478 215.634 204.125 217.304 204.125 222.44C204.125 227.801 200.781 230.31 193.569 230.31C190.72 230.31 188.06 230.007 185.555 229.59ZM228.991 202.928V229.933H222.958V219.207H213.388V229.933H207.351V202.928H213.388V213.576H222.958V202.928H228.991ZM233.931 229.933H239.969V202.928H233.931V229.933ZM93.228 239.27V266.272H87.15V247.295L79.025 260.87L70.8594 247.295V266.272H64.8257V239.27H72.644L79.025 250.259L85.2508 239.27H93.228ZM114.34 252.771C114.34 247.255 113.391 244.48 108.983 244.48C104.579 244.48 103.633 247.251 103.633 252.771C103.633 258.321 104.579 261.136 108.986 261.136C113.391 261.136 114.34 258.321 114.34 252.771ZM97.3662 252.771C97.3662 243.109 101.05 238.89 108.986 238.89C116.923 238.89 120.603 243.109 120.603 252.771C120.603 262.429 116.923 266.649 108.986 266.649C101.05 266.649 97.3662 262.429 97.3662 252.771ZM128.883 244.897H121.597V239.27H142.251V244.897H134.961V266.272H128.887L128.883 244.897ZM160.208 252.771C160.208 247.255 159.259 244.48 154.854 244.48C150.45 244.48 149.5 247.251 149.5 252.771C149.5 258.321 150.45 261.136 154.858 261.136C159.259 261.136 160.208 258.321 160.208 252.771ZM143.238 252.771C143.238 243.109 146.918 238.89 154.854 238.89C162.791 238.89 166.475 243.109 166.475 252.771C166.475 262.429 162.791 266.649 154.854 266.649C146.918 266.649 143.238 262.429 143.238 252.771ZM181.206 251.363C183.94 251.363 184.775 249.996 184.775 247.938C184.775 245.847 183.94 244.48 181.206 244.48H176.691V251.363H181.206ZM170.653 239.27H181.59C187.358 239.27 191.042 241.435 191.042 247.938C191.042 252.121 188.954 254.825 185.499 255.66L192.143 266.272H185.082L179.384 256.61H176.687V266.272H170.653V239.27ZM194.651 265.925V260.301C195.904 260.527 198.937 261.059 202.662 261.059C205.773 261.059 207.332 260.641 207.332 258.93C207.332 256.954 206.002 256.688 201.638 254.67C197.386 252.73 194.23 251.02 194.23 246.457C194.23 240.829 197.648 238.89 204.41 238.89C207.864 238.89 210.369 239.193 211.925 239.381V245.012C210.41 244.86 207.639 244.48 204.561 244.48C200.914 244.48 200.194 244.86 200.194 246.342C200.194 247.864 202.167 248.625 205.13 249.956C209.571 251.969 213.214 253.643 213.214 258.779C213.214 264.136 209.874 266.649 202.662 266.649C199.817 266.649 197.157 266.342 194.651 265.925Z" fill="black"/>
<path fill-rule="evenodd" clip-rule="evenodd" d="M112.129 92.9506L137.952 137.751L163.775 92.9506L137.952 48.1543L112.129 92.9506ZM189.599 137.751H137.952L163.775 182.551H215.422L189.599 137.751ZM86.3057 137.751H137.952L112.125 182.551H60.4824L86.3057 137.751Z" fill="#ED0000"/>
<path fill-rule="evenodd" clip-rule="evenodd" d="M0 307.48H8.35035C14.081 307.48 17.6687 304.181 17.6687 297.024C17.6687 289.634 14.1106 286.571 8.46858 286.571H0V307.48ZM3.70593 304.007V290.044H8.5277C12.0563 290.044 13.8187 292.139 13.8187 296.939C13.8187 301.768 11.9972 304.003 8.40946 304.003L3.70593 304.007ZM20.9054 307.48H24.5781V296.673C25.8122 296.318 27.3123 295.967 30.1943 295.967V292.756C27.2827 292.756 25.5757 293.521 24.3121 294.049V293.052H20.9054V307.48ZM34.7796 290.961L37.366 288.337L34.7796 285.688L32.2227 288.337L34.7796 290.961ZM32.958 307.48H36.6307V293.052H32.958V307.48ZM45.1584 307.48H48.687C50.3607 304.886 53.9484 301.236 54.2144 293.052H50.5381C50.2425 299.026 48.1881 302.267 46.9208 304.092C45.6572 302.267 43.5992 299.03 43.3073 293.052H39.6309C39.8969 301.24 43.4846 304.886 45.1584 307.48ZM64.2385 307.776C67.0023 307.776 68.5283 307.506 69.4113 307.273V304.24C67.7927 304.621 66.1343 304.809 64.4713 304.798C61.8258 304.798 60.0929 304.003 59.9451 301.443H70.2353C70.2648 301.088 70.2648 300.442 70.2648 299.943C70.2648 295.317 68.7647 292.756 63.5919 292.756C58.5928 292.756 56.2725 295.258 56.2725 300.205C56.2725 305.267 59.1212 307.776 64.2385 307.776ZM59.9451 299.056C60.0929 296.821 60.9169 295.583 63.4737 295.583C66.4739 295.583 66.6771 296.998 66.7067 299.056H59.9451ZM83.1414 314.84L89.2563 306.361C89.962 305.389 94.0781 300.235 94.0781 293.052H90.4017C90.4017 298.734 87.5826 302.917 86.6995 304.181C85.6723 302.71 82.7904 298.646 82.7904 293.052H79.114C79.3505 300.648 82.7904 304.447 84.5528 307.037L80.4958 312.779L83.1414 314.84ZM103.633 307.772C108.603 307.772 111.244 305.152 111.244 300.264C111.244 295.287 108.603 292.756 103.633 292.756C98.693 292.756 96.0179 295.287 96.0179 300.264C96.0179 305.152 98.693 307.772 103.633 307.772ZM103.633 304.565C100.781 304.565 99.8125 303.061 99.8125 300.235C99.8125 297.319 100.781 295.904 103.633 295.904C106.485 295.904 107.483 297.319 107.483 300.235C107.483 303.061 106.485 304.565 103.633 304.565ZM128.211 293.052H124.535V303.856C123.304 304.21 121.801 304.565 120.334 304.565C119.096 304.565 117.895 304.033 117.895 302.178V293.052H114.219V302.355C114.219 306.183 116.45 307.772 118.922 307.772C121.83 307.772 123.537 307.007 124.801 306.479V307.48H128.211V293.052ZM132.209 307.48H135.885V296.673C137.119 296.318 138.619 295.967 141.501 295.967V292.756C138.59 292.756 136.883 293.521 135.619 294.049V293.052H132.209V307.48ZM161.14 287.074L160.844 286.571H155.464L155.231 287.044C153.085 291.371 149.438 296.466 149.438 304.975V307.451H153.203V305.359C153.203 304.181 153.258 303.12 153.377 302.119H163.227C163.345 303.12 163.404 304.21 163.404 305.389V307.48H167.166V305.182C167.166 296.673 163.523 291.193 161.14 287.074ZM153.909 298.882C154.906 294.729 156.761 292.139 158.198 289.165C159.669 292.195 161.579 294.818 162.64 298.882H153.909ZM170.72 307.48H174.4V296.702C175.25 296.289 177.249 295.993 178.454 295.993C179.81 295.993 180.744 296.643 180.744 298.468V307.48H184.424V297.94C184.424 297.497 184.395 297.087 184.306 296.702C185.101 296.259 187.159 295.963 188.393 295.993C189.715 296.026 190.717 296.643 190.717 298.468V307.48H194.364V297.97C194.364 294.23 192.184 292.76 189.449 292.76C187.48 292.76 184.598 293.344 183.22 294.256C182.396 293.225 180.985 292.756 179.514 292.756C177.46 292.756 174.895 293.58 174.138 294.049V293.052H170.724L170.72 307.48ZM206.941 292.756C204.709 292.756 203.061 293.432 202.093 293.787V285.984H198.413V293.817L198.443 307.48H202.089V306.508C203.002 306.919 204.321 307.772 206.937 307.772C210.942 307.772 213.322 304.742 213.322 300.264C213.322 295.79 210.946 292.756 206.941 292.756ZM206.121 304.535C204.325 304.535 203.124 304.122 202.123 303.885V296.584C203.154 296.318 204.325 295.937 206.121 295.937C208.677 295.937 209.649 297.615 209.649 300.264C209.649 302.917 208.618 304.535 206.121 304.535ZM218.469 290.961L221.055 288.337L218.469 285.688L215.912 288.337L218.469 290.961ZM216.647 307.48H220.32V293.052H216.647V307.48ZM231.349 307.776C232.494 307.776 233.728 307.658 234.405 307.539V304.214C233.813 304.299 232.904 304.358 232.077 304.358C230.2 304.358 229.317 304.062 229.317 302.296V296.082H233.965V293.052H229.317V289.076H225.67V293.052H223.024V296.082H225.67V303.15C225.67 306.568 227.639 307.776 231.349 307.776ZM239.256 290.961L241.842 288.337L239.256 285.688L236.695 288.337L239.256 290.961ZM237.431 307.48H241.107V293.052H237.431V307.48ZM252.014 307.776C256.984 307.776 259.626 305.152 259.626 300.264C259.626 295.287 256.984 292.756 252.014 292.756C247.074 292.756 244.399 295.287 244.399 300.264C244.399 305.152 247.074 307.772 252.01 307.772L252.014 307.776ZM252.014 304.561C249.162 304.561 248.194 303.061 248.194 300.238C248.194 297.319 249.162 295.904 252.014 295.904C254.867 295.904 255.864 297.319 255.864 300.235C255.864 303.061 254.867 304.561 252.014 304.561ZM262.744 307.48H266.42V296.673C267.654 296.318 269.155 295.967 270.625 295.967C271.859 295.967 273.064 296.495 273.064 298.35V307.48H276.74V298.173C276.74 294.345 274.505 292.756 272.037 292.756C269.125 292.756 267.418 293.521 266.154 294.049V293.052H262.744V307.48Z" fill="black"/>
</g>
</g>
</g>
<defs>
<clipPath id="clip0_7481_7010">
<rect width="277.113" height="364.623" fill="white"/>
</clipPath>
<clipPath id="clip1_7481_7010">
<rect width="277.113" height="364.623" fill="white"/>
</clipPath>
<clipPath id="clip2_7481_7010">
<rect width="277.113" height="269.724" fill="white" transform="translate(0 47.4492)"/>
</clipPath>
</defs>
</svg>
