<svg width="400" height="335" viewBox="0 0 400 335" fill="none" xmlns="http://www.w3.org/2000/svg">
<path d="M56.7653 110.329C77.6008 53.3903 135.215 15.1417 199.999 15.1417C264.867 15.1417 322.397 53.3903 343.233 110.329L343.401 110.803H389.037V105.677L370.057 103.626C358.332 102.364 355.886 97.5536 352.68 91.4022L351.921 89.9039C324.506 35.2518 264.867 0 199.999 0C135.131 0 75.492 35.3307 48.0768 89.9039L47.3176 91.4022C44.1122 97.4748 41.6659 102.364 29.9406 103.626L10.9609 105.677V110.803H56.5966L56.7653 110.329Z" fill="black"/>
<path d="M343.481 223.819L343.313 224.293C322.477 281.232 264.863 319.48 200.079 319.48C135.211 319.48 77.6809 281.232 56.8454 224.214L56.6767 223.741H11.041V228.867L30.0207 230.917C41.746 232.179 44.1923 236.99 47.3977 243.141L48.1569 244.639C75.5721 299.291 135.211 334.543 200.079 334.622C264.948 334.622 324.586 299.291 352.001 244.718L352.76 243.22C355.966 237.147 358.412 232.258 370.137 230.996L389.117 228.946V223.819H343.481Z" fill="black"/>
<rect x="80.8047" y="145.466" width="9.70016" height="43.6901" fill="black"/>
<path d="M54.3367 189.156V145.466H44.6365V178.036L12.4604 145.466H0V189.156H9.70016V156.349L42.1129 189.156H54.3367Z" fill="black"/>
<path d="M289.96 145.466L262.674 189.156H274.424L279.314 181.349H311.096L315.985 189.156H327.736L300.449 145.466H289.96ZM306.127 173.068H284.282L295.244 155.481L306.127 173.068Z" fill="black"/>
<path d="M232.455 180.008C232.14 180.087 230.957 180.087 230.484 180.087H191.604V189.077H231.114C231.43 189.077 233.717 189.077 234.269 188.998C242.313 188.288 246.02 181.585 246.02 175.67C246.02 169.677 242.234 163.21 234.9 162.5C233.48 162.342 232.297 162.342 231.745 162.342H205.957C204.774 162.342 203.591 162.264 203.118 162.106C201.067 161.554 200.358 159.74 200.358 158.321C200.358 156.98 201.067 155.166 203.197 154.535C203.828 154.377 204.459 154.377 205.878 154.377H243.18V145.466H205.326C203.749 145.466 202.566 145.545 201.541 145.624C195.074 146.491 190.5 151.775 190.5 158.321C190.5 163.762 193.891 170.071 201.383 171.096C202.724 171.254 204.616 171.254 205.484 171.254H230.641C231.114 171.254 232.218 171.254 232.455 171.333C235.294 171.727 236.319 173.857 236.319 175.671C236.083 177.563 234.979 179.614 232.455 180.008Z" fill="black"/>
<path d="M154.404 180.008C154.089 180.087 152.906 180.087 152.433 180.087H113.553V189.077H153.064C153.379 189.077 155.666 189.077 156.218 188.998C164.262 188.288 167.969 181.585 167.969 175.67C167.969 169.677 164.183 163.21 156.849 162.5C155.43 162.342 154.247 162.342 153.695 162.342H127.906C126.723 162.342 125.54 162.264 125.067 162.106C123.017 161.554 122.307 159.74 122.307 158.321C122.307 156.98 123.017 155.166 125.146 154.535C125.777 154.377 126.408 154.377 127.828 154.377H165.13V145.466H127.275C125.698 145.466 124.515 145.545 123.49 145.624C117.023 146.491 112.449 151.775 112.449 158.321C112.449 163.762 115.84 170.071 123.332 171.096C124.673 171.254 126.566 171.254 127.433 171.254H152.59C153.064 171.254 154.168 171.254 154.404 171.333C157.243 171.727 158.269 173.857 158.269 175.671C158.032 177.563 156.928 179.614 154.404 180.008Z" fill="black"/>
<path d="M400.001 189.156V145.466H390.301V178.036L358.124 145.466H345.664V189.156H355.364V156.349L387.777 189.156H400.001Z" fill="black"/>
</svg>
