<svg width="500" height="97" viewBox="0 0 500 97" fill="none" xmlns="http://www.w3.org/2000/svg">
<g clip-path="url(#clip0_7479_269)">
<g clip-path="url(#clip1_7479_269)">
<g clip-path="url(#clip2_7479_269)">
<mask id="mask0_7479_269" style="mask-type:luminance" maskUnits="userSpaceOnUse" x="0" y="0" width="500" height="97">
<path d="M499.967 0H0.0322266V96.3889H499.967V0Z" fill="white"/>
</mask>
<g mask="url(#mask0_7479_269)">
<path d="M83.6514 33.0231C83.6514 15.0027 93.9606 3.93848 110.64 3.93848C127.403 3.93848 137.543 15.086 137.543 33.0231C137.543 50.9601 127.317 62.1076 110.64 62.1076C93.9631 62.1076 83.6514 50.8742 83.6514 33.0231ZM126.575 33.0231C126.575 19.1107 119.786 12.1546 110.65 12.1546C101.515 12.1546 94.6373 19.1107 94.6373 33.0231C94.6373 46.8521 101.427 53.8107 110.648 53.8107C119.783 53.8107 126.575 46.9379 126.575 33.0231Z" fill="#003764"/>
<path d="M153.418 61.1001H143.525V21.5396L150.903 20.3681H152.166L152.923 25.4785C158.119 22.2087 162.142 20.2822 167.257 20.2822C174.213 20.2822 180.331 23.8878 180.331 34.3637V61.1026H170.431V35.5378C170.431 30.1749 168.159 28.4958 164.982 28.4958C160.861 28.951 156.902 30.3564 153.416 32.6013L153.418 61.1001Z" fill="#003764"/>
<path d="M222.338 59.4261C217.472 61.1814 212.341 62.0884 207.169 62.1076C195.014 62.1076 187.222 55.8205 187.222 40.9866C187.222 30.1749 193.842 20.2822 206.583 20.2822C219.238 20.2822 223.682 29.0816 223.682 37.4517C223.689 39.4127 223.577 41.3723 223.346 43.3196H197.847C198.099 52.0382 202.96 54.0455 209.916 54.0455C214.192 53.9483 218.408 53.0088 222.321 51.2807L222.338 59.4261ZM213.37 36.7952C213.37 31.9322 211.777 27.7434 206.497 27.7434C201.551 27.7434 198.533 31.2631 197.948 36.7952H213.37Z" fill="#003764"/>
<path d="M252.04 36.5428C250.197 33.1089 248.184 29.8391 246.341 26.4027C245.079 23.552 243.91 20.5348 242.652 17.6841H241.981V61.1128H231.505V4.94336H244.246L259.668 29.6699C263.188 36.2069 266.541 42.3248 269.725 49.3643H270.31V4.94336H280.786V61.1001H267.879L252.04 36.5428Z" fill="#8C9091"/>
<path d="M322.798 59.4261C317.932 61.1814 312.801 62.0884 307.629 62.1076C295.474 62.1076 287.682 55.8205 287.682 40.9866C287.682 30.1749 294.302 20.2822 307.043 20.2822C319.698 20.2822 324.141 29.0816 324.141 37.4517C324.149 39.4127 324.037 41.3723 323.806 43.3196H298.324C298.577 52.0382 303.437 54.0455 310.393 54.0455C314.67 53.9483 318.885 53.0088 322.798 51.2807V59.4261ZM313.83 36.7952C313.83 31.9322 312.236 27.7434 306.957 27.7434C302.011 27.7434 298.993 31.2631 298.407 36.7952H313.83Z" fill="#8C9091"/>
<path d="M346.263 52.2177H346.599L356.406 21.3682H366.967L352.298 61.9336H340.395L325.645 21.3682H336.373L346.263 52.2177Z" fill="#8C9091"/>
<path d="M402.17 60.8504L393.787 61.9412H392.949V56.7449H392.696C389.075 59.9352 384.445 61.7449 379.62 61.8553C378.158 61.8659 376.709 61.576 375.364 61.0035C374.019 60.431 372.806 59.5881 371.8 58.5272C370.794 57.4663 370.016 56.21 369.516 54.8362C369.016 53.4624 368.803 52.0005 368.892 50.5411C368.892 40.7369 377.608 39.3103 383.645 38.4745L392.277 37.2979V35.278C392.277 29.9151 390.098 28.1527 385.069 28.1527C380.62 28.3324 376.231 29.2382 372.075 30.8341L371.237 22.873C376.099 21.2234 381.19 20.3467 386.324 20.2749C395.964 20.2749 402.167 24.1305 402.167 35.6138L402.17 60.8504ZM392.277 43.4284L384.147 44.6909C381.716 45.0267 379.117 46.0341 379.117 49.7205C379.071 50.3337 379.154 50.9498 379.362 51.5284C379.571 52.107 379.899 52.6349 380.326 53.0776C380.753 53.5202 381.269 53.8675 381.839 54.0966C382.41 54.3256 383.023 54.4314 383.637 54.4068C386.802 54.0608 389.799 52.8089 392.27 50.8012L392.277 43.4284Z" fill="#8C9091"/>
<path d="M446.888 0V60.5981L438.758 62.1131H437.495V57.4142C433.817 60.2607 429.321 61.848 424.671 61.9414C415.872 61.9414 408.408 55.9901 408.408 42.752C408.408 29.4229 415.869 20.2802 429.529 20.2802C432.041 20.3275 434.54 20.6364 436.988 21.2018V1.26246L445.621 0H446.888ZM427.61 53.9778C431.186 53.7963 434.552 52.2339 436.998 49.6198V29.4204C434.94 28.6161 432.754 28.1885 430.544 28.1579C423.002 28.1579 418.642 32.9351 418.642 42.0703C418.642 50.5338 422.164 53.9727 427.613 53.9727" fill="#8C9091"/>
<path d="M485.863 60.8504L477.48 61.9412H476.642V56.7449H476.389C472.769 59.9346 468.139 61.7444 463.315 61.8553C461.853 61.8659 460.405 61.576 459.059 61.0035C457.714 60.431 456.501 59.5881 455.495 58.5272C454.489 57.4663 453.712 56.21 453.211 54.8362C452.711 53.4624 452.499 52.0005 452.587 50.5411C452.587 40.7369 461.305 39.3103 467.34 38.4745L475.973 37.2979V35.278C475.973 29.9151 473.794 28.1527 468.767 28.1527C464.318 28.3325 459.929 29.2382 455.773 30.8341L454.935 22.873C459.797 21.2235 464.888 20.3468 470.021 20.2749C479.659 20.2749 485.863 24.1305 485.863 35.6138V60.8504ZM475.97 43.4284L467.84 44.6909C465.408 45.0267 462.81 46.0341 462.81 49.7205C462.763 50.3346 462.847 50.9516 463.056 51.5309C463.265 52.1102 463.594 52.6387 464.022 53.0815C464.45 53.5243 464.967 53.8713 465.539 54.0998C466.111 54.3282 466.725 54.4328 467.34 54.4068C470.505 54.0611 473.502 52.8091 475.973 50.8012L475.97 43.4284Z" fill="#8C9091"/>
<path d="M494.456 31.2266C493.373 31.2201 492.317 30.8932 491.42 30.2872C490.524 29.6811 489.826 28.823 489.417 27.8212C489.007 26.8193 488.903 25.7186 489.118 24.6578C489.333 23.597 489.858 22.6236 490.625 21.8605C491.393 21.0974 492.369 20.5788 493.432 20.37C494.494 20.1612 495.594 20.2716 496.593 20.6873C497.593 21.103 498.446 21.8054 499.047 22.7058C499.648 23.6062 499.968 24.6644 499.968 25.7468C499.967 26.4688 499.823 27.1835 499.545 27.8498C499.268 28.5162 498.861 29.1212 498.349 29.6303C497.837 30.1393 497.229 30.5423 496.561 30.8162C495.893 31.0901 495.178 31.2296 494.456 31.2266ZM498.936 25.7468C498.917 24.8645 498.638 24.0074 498.134 23.283C497.63 22.5585 496.923 21.999 496.103 21.6745C495.282 21.35 494.384 21.2749 493.521 21.4588C492.657 21.6426 491.868 22.0771 491.251 22.7079C490.633 23.3387 490.216 24.1376 490.051 25.0045C489.886 25.8715 489.981 26.7678 490.323 27.5812C490.665 28.3947 491.24 29.0889 491.975 29.577C492.71 30.0652 493.573 30.3254 494.456 30.3251C495.051 30.3188 495.638 30.1954 496.185 29.9619C496.733 29.7284 497.228 29.3893 497.644 28.9642C498.06 28.539 498.389 28.036 498.61 27.484C498.832 26.9319 498.942 26.3416 498.936 25.7468ZM496.054 28.6003L494.612 26.3276H493.504V28.6003H492.585V22.6407H494.534C495.754 22.6407 496.514 23.2897 496.514 24.3352C496.504 24.6847 496.403 25.0254 496.219 25.323C496.035 25.6205 495.776 25.8643 495.468 26.0296L497.117 28.5978L496.054 28.6003ZM494.867 25.57C495.082 25.4512 495.26 25.2763 495.383 25.0642C495.505 24.852 495.568 24.6105 495.564 24.3655C495.564 23.8402 495.186 23.3983 494.41 23.3983H493.506V25.57H494.867Z" fill="#8C9091"/>
<path d="M61.0819 30.3147L59.062 29.9612L59.2766 31.9155L61.0819 37.1143L56.9713 33.6678L55.0271 27.3833L50.601 28.1862L49.0608 28.7796L49.3688 31.3272L51.5503 37.1749L46.1015 32.4584L44.1523 26.1612L41.2335 27.5777L40.6326 28.1054L41.5643 31.2389L39.567 29.681L39.1126 31.5999L41.837 36.0488L44.8795 42.293L30.9343 30.3147L28.4448 19.397L23.6954 20.4069L17.5548 23.5353L18.1456 25.5982L21.0745 29.6684L23.3924 34.9076L15.9666 28.5448L15.5273 22.8182L6.77084 26.5652L6.71024 27.5196L10.538 34.9555L5.07914 30.1733L4.64738 26.04L0.0292969 28.1408V46.3202L57.9459 96.1748L58.9408 94.6598L57.9459 85.0247L59.8169 84.848L60.8673 83.0982L62.3822 83.2724L63.0842 84.6738L64.3088 83.2724V29.9082L61.0819 30.3147Z" fill="#8C9091"/>
<path d="M64.2936 4.11572H0.0292969V28.1429L4.65748 26.0421L6.77084 26.5648L15.5273 22.8178L17.5472 23.5374L23.6954 20.3989L28.4448 19.389L32.1715 22.7244L33.0628 22.2194L41.2335 27.5571L44.1523 26.1406L50.601 28.1606L55.0271 27.3576H55.0448L57.6808 28.6428L61.0819 30.3017L64.3113 29.8952L64.2936 4.11572Z" fill="#003764"/>
<path d="M18.1472 25.5976L17.5563 23.5244L15.5361 22.8047L15.9755 28.532L23.3998 34.8956L21.0816 29.6557L18.1472 25.5976Z" fill="white"/>
<path d="M39.1141 31.5896L39.5686 29.6706L41.5658 31.226L40.6341 28.0951L41.235 27.5674L33.0644 22.2171L32.1705 22.7221L28.4463 19.3892L30.9359 30.3069L44.8835 42.2801L41.841 36.036L39.1141 31.5896Z" fill="white"/>
<path d="M6.77184 26.5642L4.6582 26.0415L5.09002 30.1753L10.5395 34.9582L6.71123 27.5213L6.77184 26.5642Z" fill="white"/>
<path d="M49.0614 28.7689L50.6018 28.1755L44.1523 26.1553L46.1018 32.4533L51.5513 37.1704L49.3695 31.3219L49.0614 28.7689Z" fill="white"/>
<path d="M59.053 29.9592L61.0732 30.3128L57.6717 28.6587L55.048 27.3784H55.0303L56.9747 33.6638L61.0858 37.1107L59.2676 31.9239L59.053 29.9592Z" fill="white"/>
<path d="M97.5197 79.3808C96.802 79.3481 96.0875 79.4951 95.441 79.8086C94.7946 80.1221 94.2368 80.5922 93.8181 81.1761C92.8618 82.6641 92.4021 84.4171 92.5052 86.183C92.5052 90.637 94.1767 92.8639 97.5197 92.8639C99.2644 92.7969 100.986 92.442 102.615 91.8136V95.3661C100.871 96.0689 99.0037 96.4174 97.1233 96.3912C95.8858 96.4718 94.6458 96.2764 93.493 95.8192C92.3402 95.362 91.3034 94.6544 90.4575 93.7477C88.7861 91.5848 87.9642 88.885 88.1472 86.1577C88.1057 84.2765 88.4934 82.4104 89.2808 80.7014C89.9791 79.2025 91.1146 77.95 92.538 77.1084C94.0529 76.2449 95.7738 75.8086 97.5171 75.846C99.5476 75.8672 101.547 76.348 103.365 77.2523L101.999 80.6938C101.264 80.3442 100.512 80.034 99.7441 79.7646C99.0294 79.5083 98.2765 79.3742 97.5171 79.3682" fill="#003764"/>
<path d="M132.571 88.4501V96.1158H128.337V76.1411H134.144C136.26 75.9812 138.372 76.5014 140.171 77.6258C141.22 78.571 141.896 79.8606 142.077 81.2611C142.258 82.6617 141.931 84.0806 141.156 85.2611C140.456 86.2187 139.506 86.9641 138.409 87.4149C141.415 91.9042 143.373 94.8045 144.282 96.1158H139.593L134.823 88.4501H132.571ZM132.571 85.0086H133.937C134.97 85.0844 136.002 84.8515 136.901 84.3395C137.226 84.0984 137.484 83.779 137.651 83.4112C137.818 83.0434 137.89 82.6391 137.858 82.2363C137.893 81.8427 137.821 81.4471 137.649 81.0914C137.477 80.7357 137.211 80.4333 136.881 80.2163C135.942 79.7509 134.897 79.5427 133.851 79.6129H132.569L132.571 85.0086Z" fill="#003764"/>
<path d="M176.984 96.1158H165.478V76.1411H176.981V79.6104H169.714V83.9961H176.476V87.4679H169.714V92.6188H176.981L176.984 96.1158Z" fill="#003764"/>
<path d="M217.258 85.938C217.349 87.324 217.146 88.7136 216.662 90.0156C216.178 91.3176 215.424 92.5026 214.45 93.4925C212.186 95.3775 209.282 96.3171 206.342 96.1159H200.687V76.1438H206.958C209.731 75.9718 212.46 76.8999 214.553 78.7268C215.484 79.6733 216.205 80.8043 216.671 82.0468C217.137 83.2893 217.338 84.6157 217.26 85.9405M212.862 86.049C212.862 81.76 210.967 79.6147 207.178 79.613H204.923V92.6189H206.739C210.821 92.6189 212.861 90.4306 212.859 86.0541" fill="#003764"/>
<path d="M243.798 76.1436H239.563V96.1182H243.798V76.1436Z" fill="#003764"/>
<path d="M277.66 96.116H273.426V79.6687H268.002V76.1338H283.083V79.6687H277.66V96.116Z" fill="#003764"/>
<path d="M337.966 76.1438V89.0689C337.997 90.4286 337.655 91.7708 336.977 92.9497C336.304 94.071 335.306 94.9613 334.116 95.5024C332.724 96.1251 331.211 96.4287 329.687 96.3911C327.513 96.527 325.37 95.8198 323.703 94.4167C322.982 93.7211 322.418 92.8787 322.051 91.9465C321.683 91.0143 321.52 90.014 321.572 89.0133V76.1362H325.794V88.3644C325.695 89.5681 326.024 90.768 326.723 91.7529C327.126 92.1457 327.61 92.4456 328.141 92.6319C328.673 92.8181 329.238 92.886 329.798 92.831C330.349 92.881 330.904 92.8097 331.425 92.6221C331.945 92.4346 332.418 92.1353 332.81 91.7453C333.515 90.7552 333.847 89.5478 333.747 88.3367V76.1438H337.966Z" fill="#003764"/>
<path d="M379.887 96.1158H374.504L365.823 81.0041H365.702C365.87 83.6738 365.954 85.5776 365.954 86.7155V96.1132H362.167V76.1411H367.507L376.183 91.1013H376.279C376.141 88.5057 376.073 86.6709 376.074 85.597V76.1411H379.884L379.887 96.1158Z" fill="#003764"/>
<path d="M407.34 76.1436H403.105V96.1182H407.34V76.1436Z" fill="#003764"/>
<path d="M449.305 86.1018C449.489 88.8635 448.609 91.5909 446.846 93.7245C444.899 95.4423 442.392 96.3902 439.795 96.3902C437.199 96.3902 434.691 95.4423 432.744 93.7245C430.982 91.5846 430.103 88.8526 430.288 86.0866C430.096 83.3246 430.978 80.5952 432.752 78.469C433.678 77.5571 434.787 76.8516 436.006 76.3986C437.224 75.9456 438.525 75.7554 439.822 75.8405C441.117 75.754 442.415 75.9459 443.63 76.4032C444.845 76.8605 445.947 77.5726 446.864 78.4917C448.618 80.6293 449.49 83.3556 449.303 86.1144M434.726 86.1144C434.599 87.8892 435.041 89.6582 435.989 91.1643C436.435 91.733 437.013 92.1844 437.673 92.4796C438.333 92.7748 439.055 92.9048 439.776 92.8585C443.155 92.8585 444.844 90.613 444.844 86.122C444.844 81.631 443.16 79.3813 439.794 79.3729C439.068 79.3258 438.342 79.4562 437.678 79.7527C437.015 80.0492 436.433 80.5029 435.984 81.0747C435.026 82.5768 434.576 84.3472 434.701 86.1245" fill="#003764"/>
<path d="M486.083 96.1158H480.7L472.012 81.0041H471.89C472.059 83.6738 472.143 85.5776 472.143 86.7155V96.1132H468.355V76.1411H473.696L482.371 91.1013H482.467C482.329 88.5057 482.261 86.6709 482.263 85.597V76.1411H486.083V96.1158Z" fill="#003764"/>
</g>
</g>
</g>
</g>
<defs>
<clipPath id="clip0_7479_269">
<rect width="500" height="96.3889" fill="white"/>
</clipPath>
<clipPath id="clip1_7479_269">
<rect width="500" height="96.3889" fill="white"/>
</clipPath>
<clipPath id="clip2_7479_269">
<rect width="499.935" height="96.3889" fill="white" transform="translate(0.0322266)"/>
</clipPath>
</defs>
</svg>
