<svg xmlns="http://www.w3.org/2000/svg" width="100%" height="100%" viewBox="0 0 192 63.863">
  <path id="Logo" d="M308.185,1122.825v-40.634a.808.808,0,0,0-.812-.805H296.7a.812.812,0,0,0-.641.312l-11.049,14.118-11.12-14.119a.815.815,0,0,0-.641-.31h-8.821a.813.813,0,0,0-.731.453.8.8,0,0,0,.094.851l20.593,25.882a.818.818,0,0,0,1.228.09h0a1.009,1.009,0,0,0,.073-.083l14.07-17.776v20.418h.018v2.754a2.181,2.181,0,0,0,.712,1.522s6.19,7.535,6.6,7.87a.688.688,0,0,0,1.1-.542m-42.636-26.91a14.227,14.227,0,0,0-14.3-14.12H232.632a.809.809,0,0,0-.812.805v1.234H231.8v28.226h.017v2.089a2.143,2.143,0,0,0,.7,1.493s6.078,7.4,6.482,7.728a.676.676,0,0,0,1.077-.531v-12.8h11.172a14.228,14.228,0,0,0,14.3-14.121m-8.257,0a6,6,0,0,1-6.043,5.941H240.074v-11.882h11.175a6,6,0,0,1,6.043,5.941M366,1139.149a2.633,2.633,0,0,0-.721-1.813,3.536,3.536,0,0,0-2.735-.992h-4.857v8.641h2.335v-3.044h2.522a3.586,3.586,0,0,0,2.6-.859,2.636,2.636,0,0,0,.854-1.932m-2.335,0a.984.984,0,0,1-.295.675.957.957,0,0,1-.693.238h-2.655v-1.839h2.655a.913.913,0,0,1,.988.926m-17.08,2.686v-5.492h-2.335v5.492c0,.966-.734,1.482-1.761,1.482a1.545,1.545,0,0,1-1.734-1.482v-5.492h-2.348v5.492c0,2.183,1.8,3.414,4.083,3.414,2.389,0,4.1-1.231,4.1-3.414m-18.734-1.192a4.8,4.8,0,0,0-5-4.565,4.6,4.6,0,1,0,0,9.17,4.8,4.8,0,0,0,5-4.605m-2.429,0a2.558,2.558,0,1,1-5.11,0,2.556,2.556,0,1,1,5.11,0m-86.706-4.3h-7.446v8.641h7.74v-1.946h-5.4v-1.521h3.07v-1.866h-3.07v-1.363h5.111Zm-20.9,1.945h2.869v-1.945h-8.086v1.945h2.882v6.7h2.335Zm-14.878,2.355a4.8,4.8,0,0,0-5-4.565,4.6,4.6,0,1,0,0,9.17,4.8,4.8,0,0,0,5-4.605m-2.428,0a2.558,2.558,0,1,1-5.11,0,2.556,2.556,0,1,1,5.11,0m-20.669,4.341h2.335v-8.641h-2.335v3.123h-3.5v-3.123H174v8.641h2.348v-3.639h3.5Zm72.255-8.641h-2.335v8.641H257v-1.946h-4.9Zm26.874,4.314a4.679,4.679,0,0,0,4.91,4.565,7.556,7.556,0,0,0,4.164-1.4v-3.97h-4.737v1.8h2.508v1.177a3.7,3.7,0,0,1-1.855.463,2.637,2.637,0,0,1-.134-5.266,4.709,4.709,0,0,1,2.722,1.006l1.481-1.429a7.231,7.231,0,0,0-4.217-1.523,4.7,4.7,0,0,0-4.844,4.579m25.032-4.314h-4.857v8.641h2.335v-3.044h2.068l1.669,3.044h2.642l-2-3.441a2.61,2.61,0,0,0,.854-4.234,3.524,3.524,0,0,0-2.709-.965m-2.521,1.879h2.655a.892.892,0,0,1,.987.913.906.906,0,0,1-.987.926h-2.655Z" transform="translate(-174.003 -1081.386)" fill="#192047"/>
</svg>
