<svg width="422" height="72" viewBox="0 0 422 72" fill="none" xmlns="http://www.w3.org/2000/svg">
<path d="M348.126 66.7559H350.013V69.7552H324.906V66.7559H326.39C327.781 66.7559 329.389 66.6632 330.255 65.3645C331.151 64.0659 331.151 61.3759 331.151 58.2839V33.2697C331.151 31.2909 331.368 28.4772 329.667 27.0858C328.678 26.1891 326.792 26.0963 324.998 26.0963H324.009V23.0044H343.427V58.253C343.427 61.345 343.334 64.035 344.323 65.3336C345.22 66.6323 346.704 66.725 348.126 66.725M394.815 66.725H395.805V69.7242H379.077C379.077 69.7242 378.984 62.1489 378.861 62.1489C378.057 66.0448 372.089 71.1156 365.411 71.1156C354.96 71.1156 351.651 63.7567 351.651 59.0569C351.651 48.0185 362.721 44.3081 377.933 41.3398V33.4862C377.933 28.1061 375.645 24.9214 368.564 24.9214C363.772 24.9214 359.69 27.7969 359.103 29.4975V29.683C359.69 28.7864 360.989 28.4772 361.979 28.4772C365.473 28.4772 367.853 30.456 367.853 33.95C367.853 36.64 365.071 39.6392 361.175 39.6392C357.99 39.6392 354.187 37.5367 354.187 32.6823C354.187 26.1273 361.855 21.613 371.718 21.613C380.469 21.613 390.054 24.0866 390.054 37.7531V60.6647C390.054 64.035 390.548 65.1481 391.352 65.7356C392.342 66.4467 393.517 66.7869 394.723 66.725H394.815ZM377.995 44.3391C369.121 46.0396 364.267 48.3277 364.267 57.3872C364.267 62.6745 366.957 65.3645 369.956 65.3645C374.13 65.3645 375.645 62.891 376.542 61.0976C377.531 59.3043 378.026 55.4084 378.026 51.8217V44.3391H377.995ZM318.536 64.0659C318.227 64.6225 317.763 65.0863 317.176 65.3955C316.619 65.7047 315.97 65.8593 315.351 65.8593C311.858 65.8593 311.456 62.7673 311.456 59.5825V26.1273H320.608V23.0353H311.239V1.51507H308.147C308.147 8.59572 302.365 23.0353 291.512 23.0353H290.708V26.1273H299.088V58.0984C299.088 63.8804 300.788 71.1466 310.837 71.1466C316.526 71.1466 320.299 69.446 322.277 65.2718C323.576 62.489 323.978 57.9129 323.978 52.44H320.299C320.299 56.0267 320.391 61.4068 318.505 64.0968L318.536 64.0659ZM287.554 65.3645C286.658 64.0659 286.751 62.3653 286.751 58.5003V37.2893C286.751 27.5187 284.153 21.6439 273.393 21.6439C266.22 21.6439 261.953 25.9108 260.252 30.3014H260.16L259.974 23.0353H242.257V26.0345H244.143C245.534 26.0345 247.019 26.1273 248.039 27.4259C248.936 28.7245 248.843 31.3218 248.843 34.3829V58.3767C248.843 62.3653 249.028 64.3442 248.132 65.3336C247.328 66.2303 245.936 66.725 243.741 66.725H242.257V69.7242H267.642V66.725H266.251C263.653 66.725 262.571 66.2303 261.767 65.3336C260.871 64.3442 261.056 62.3344 261.056 58.3767V41.1543C261.056 37.2584 261.767 33.3007 263.035 31.1054C264.519 28.7245 266.715 27.6114 268.601 27.6114C271.291 27.6114 274.568 28.1061 274.568 34.9703V69.7242H293.275V66.725H291.389C290.09 66.725 288.389 66.6323 287.493 65.3336L287.554 65.3645ZM84.6894 21.613C76.9286 21.613 73.5274 29.1883 73.0327 34.9703H72.9399L72.4452 23.0044H55.5011V26.0036H56.5833C59.2733 26.0036 60.4792 26.4055 61.2522 28.1061C61.9634 29.714 62.1489 34.1664 62.1489 40.1649V58.3767C62.1489 58.3767 62.3653 63.1692 61.2522 64.9317C60.4483 66.2303 58.8714 66.725 55.6866 66.725H52.6874V69.7242H84.1638V66.725H79.6804C78.3818 66.725 76.0937 66.6323 75.197 65.3336C74.3004 64.035 74.3004 61.5614 74.3004 58.4694V51.296C74.3004 45.4212 75.3826 30.2705 80.1751 26.3128H80.2679C79.8969 27.1167 79.7113 28.0134 79.7732 28.91C79.7732 30.8889 81.8757 33.3934 85.3388 33.3934C89.2346 33.4862 91.399 30.5179 91.399 27.5187C91.399 23.6228 88.8018 21.6439 84.6276 21.6439L84.6894 21.613ZM416.336 65.7356C415.532 65.0244 415.037 64.035 415.037 60.7575V0L395.898 1.48415V4.48338H397.691C398.804 4.48338 400.474 4.88533 401.37 5.78201C402.855 7.26616 402.855 10.3581 402.855 11.7495V60.7575C402.855 64.3442 402.36 65.0244 401.556 65.7356C400.659 66.4467 399.268 66.725 397.969 66.725H397.382V69.7242H421.592V66.725H420.788C418.902 66.725 417.201 66.4158 416.305 65.7356H416.336ZM336.964 15.7382C337.954 15.7382 338.943 15.5527 339.871 15.1507C340.798 14.7797 341.633 14.2231 342.314 13.512C343.025 12.8008 343.581 11.966 343.952 11.0693C344.323 10.1726 344.54 9.15227 344.54 8.16284C344.54 6.18397 343.705 4.26694 342.283 2.87555C340.86 1.48415 338.943 0.680237 336.964 0.680237C334.986 0.680237 333.068 1.45323 331.646 2.87555C330.224 4.26694 329.42 6.18397 329.389 8.16284C329.389 9.15227 329.575 10.1417 329.946 11.0693C330.317 11.9969 330.873 12.8317 331.584 13.512C332.296 14.2231 333.13 14.7797 334.027 15.1507C334.955 15.5218 335.944 15.7382 336.933 15.7382H336.964ZM193.929 66.7559H195.228V69.7552H177.387L177.202 62.489C176.305 65.581 171.822 71.1466 164.153 71.1466C149.405 71.1466 145.54 57.6964 145.54 46.3488C145.54 35.0013 152.311 21.6439 165.761 21.6439C172.44 21.6439 175.13 24.3339 176.119 26.3128V11.7805C176.119 9.18319 176.119 7.29708 174.635 5.81293C173.739 4.91625 172.347 4.5143 170.059 4.5143H169.162V1.51507L188.271 0.0309198V60.7884C188.271 64.0659 188.766 65.0553 189.57 65.7665C190.466 66.4777 192.167 66.7559 193.96 66.7559H193.929ZM176.119 41.1543C176.119 35.3723 175.315 25.5089 167.864 25.5089C159.392 25.5089 159.299 39.6392 159.299 46.3179C159.299 52.0999 159.701 65.7356 167.555 65.7356C170.554 65.7356 173.027 63.8495 174.233 61.0667C175.037 59.0569 176.119 56.0886 176.119 50.8013V41.1543ZM141.458 66.7559C140.067 66.7559 138.675 66.6632 137.779 65.3645C136.882 64.0659 136.697 61.5923 136.697 58.5003V23.0044H117.774V26.0036H118.763C121.855 26.0036 122.937 26.4055 123.741 27.3022C124.638 28.2917 124.545 31.6928 124.545 35.7743V50.4303C124.545 53.0275 124.545 55.5939 123.958 57.9129C122.968 61.9015 120.278 64.8698 116.877 64.8698C114.898 64.8698 110.817 64.6534 110.817 57.2017V23.0044H93.8726V26.0036H94.5838C97.181 26.0036 97.6758 26.5911 97.985 27.1167C98.3869 27.7042 98.5724 29.8995 98.5724 35.7743V55.9031C98.5724 64.5606 101.077 71.1466 112.332 71.1466C119.103 71.1466 124.174 66.2612 125.38 62.489C125.38 62.7982 125.473 62.489 125.473 62.489L125.658 69.7552H143.283V66.7559H141.489H141.458ZM210.379 44.8338C210.255 48.3586 210.471 51.9144 211.09 55.3774C212.079 61.0667 214.491 67.0342 221.139 67.0342C230.415 67.0342 234.774 58.8714 234.774 53.8005H238.67C238.67 60.4792 232.208 71.1466 219.438 71.1466C204.504 71.1466 197.145 60.6029 197.145 46.3488C197.145 32.0948 206.792 21.6439 219.067 21.6439C233.599 21.6439 239.289 32.1876 239.289 44.8647H210.41L210.379 44.8338ZM210.471 41.649H226.797C226.89 36.5782 226.488 24.2102 218.943 24.2102C210.781 24.2102 210.688 36.9492 210.471 41.649ZM22.5406 40.134V60.4483C22.5406 62.5508 22.7261 64.2205 23.7464 65.3336C24.6431 66.2303 26.2509 66.725 29.1265 66.725H31.631V69.7242H0.0309198V66.725H2.81371C5.19453 66.725 7.20432 66.3231 8.19376 65.5191C9.18319 64.6225 9.67791 63.1383 9.67791 60.4483V11.3785C9.67791 8.19376 9.18319 5.99845 7.57536 5.19453C6.58593 4.60706 4.69982 4.48338 2.10255 4.48338H0V1.48415H27.3022C41.2471 1.48415 53.3058 6.46225 53.3058 20.9018C53.3058 35.3414 41.4635 40.134 27.3022 40.134H22.5096H22.5406ZM22.5406 36.8565H27.3331C38.4024 36.8565 40.3813 28.9719 40.3813 20.9327C40.3813 12.8936 38.4024 4.5143 27.3331 4.5143H22.5406V36.8874V36.8565Z" fill="#001F45"/>
</svg>
