<svg width="216" height="176" viewBox="0 0 216 176" fill="none" xmlns="http://www.w3.org/2000/svg">
<g clip-path="url(#clip0_7481_7089)">
<g clip-path="url(#clip1_7481_7089)">
<g clip-path="url(#clip2_7481_7089)">
<path d="M186.377 4.68695H189.725V0.223145H143.636V4.68695H147.988C154.014 4.68695 158.925 9.59713 158.925 15.7349V40.8437C158.925 46.2003 154.684 50.4409 149.439 50.4409H118.192V54.9047H149.439C154.684 54.9047 158.925 59.2569 158.925 64.5019V96.5297C158.925 102.556 154.014 107.578 147.988 107.578H143.636V112.041H189.613V107.578H186.265C180.239 107.578 175.329 102.667 175.329 96.5297V15.7349C175.441 9.59713 180.351 4.68695 186.377 4.68695Z" fill="#7D9BC0"/>
<path d="M128.347 105.792C125.222 107.354 123.66 107.912 121.986 107.912C117.076 107.912 114.286 105.569 114.286 93.4051V84.2543C114.286 75.6615 111.385 68.073 105.916 62.3816C101.453 57.6947 97.1004 55.4628 88.0612 53.454C97.4352 52.0033 102.457 50.1062 107.702 46.0888C114.509 40.8438 117.969 34.2597 117.969 26.448C117.969 17.7436 114.509 10.9363 107.814 6.13773C101.341 1.45074 94.5337 0 78.5756 0H26.3491V4.4638H30.7013C36.7275 4.4638 41.6376 9.37399 41.6376 15.5117V96.5297C41.6376 102.667 36.7275 107.578 30.7013 107.578H26.3491V112.041H72.4379V107.578H69.09C63.0639 107.578 58.1537 102.667 58.1537 96.5297V15.6233C58.1537 9.59718 62.9523 4.68699 68.9784 4.5754H75.0046C91.967 4.5754 99.2207 11.3827 99.2207 27.4524C99.2207 42.4061 92.0786 49.7714 76.6785 50.441H70.9871V55.0164H76.5669C89.2887 56.0207 95.2033 62.6048 95.2033 75.7731V83.9195C95.2033 102.779 103.238 112.823 118.303 112.823C122.544 112.823 125.222 112.153 129.575 109.921L130.133 109.586L128.905 105.234L128.347 105.792Z" fill="#001E61"/>
<path d="M0.12429 161.032H4.4765V149.985C4.4765 146.19 6.7084 143.847 10.391 143.847C12.065 143.847 13.1809 144.293 14.0737 144.963L15.9708 141.169C14.7432 140.164 12.8461 139.495 11.0606 139.495C8.71711 139.495 6.81999 139.941 5.36926 142.396L4.58809 143.624L4.03012 140.164H0.0126953V161.032H0.12429Z" fill="#001E61"/>
<path d="M37.174 148.534H24.2289L24.4521 147.864C25.2333 144.963 27.6884 143.177 31.0362 143.177C34.4957 143.177 36.8392 144.963 37.174 147.864V148.534ZM30.7015 139.495C24.1173 139.495 19.7651 143.847 19.7651 150.431C19.7651 157.35 24.1173 161.59 31.1478 161.59C34.4957 161.59 37.7319 160.475 39.7407 158.577L37.0624 155.899C35.6116 157.127 33.1565 157.796 31.2594 157.796C27.4652 157.796 24.6753 155.788 24.2289 152.663L24.1173 152.105H41.1914C41.5262 148.087 40.6334 144.74 38.7363 142.619C36.9508 140.499 34.1609 139.495 30.7015 139.495Z" fill="#001E61"/>
<path d="M76.0078 161.034H80.36V149.763C80.36 145.299 78.9093 139.942 71.6556 139.942C68.5309 139.942 66.4106 141.058 64.8483 143.736L64.2903 144.629L63.9555 143.625C62.6164 140.389 59.7149 139.831 58.041 139.831C56.1439 139.831 53.8004 140.5 52.796 142.62L52.0148 144.071L51.4569 140.277H47.4395V161.145H51.7917V149.986C51.7917 146.973 53.5772 143.96 56.925 143.96C59.8265 143.96 61.8352 146.415 61.8352 149.986V161.145H66.1874V149.986C66.1874 146.638 68.4193 144.071 71.4324 144.071C74.3339 144.071 76.0078 146.303 76.0078 149.986V161.034Z" fill="#001E61"/>
<path d="M90.5176 130.788C89.2901 130.788 87.8394 131.569 87.8394 133.466C87.8394 135.252 89.1785 136.145 90.5176 136.145C91.8568 136.145 93.1959 135.363 93.1959 133.466C93.1959 131.681 91.7452 130.788 90.5176 130.788ZM88.3973 161.03H92.7495V140.05H88.3973V161.03Z" fill="#001E61"/>
<path d="M116.072 161.034H120.424V150.097C120.424 143.96 116.964 139.831 111.719 139.831C109.264 139.831 107.144 140.835 105.024 142.955L104.243 143.736L103.796 140.165H100.002V161.034H104.243V150.32C104.243 146.526 106.809 143.625 110.269 143.625C113.728 143.625 116.072 146.191 116.072 149.986V161.034Z" fill="#001E61"/>
<path d="M136.942 156.68C133.259 156.68 130.692 154.002 130.692 150.096C130.692 146.19 133.259 143.4 136.942 143.4C140.513 143.4 143.079 146.19 143.079 150.096C143.079 153.89 140.513 156.68 136.942 156.68ZM126.452 166.054C126.675 171.188 130.916 174.759 136.942 174.759C143.079 174.759 147.208 171.076 147.208 165.496C147.208 162.26 145.869 160.14 142.968 158.689L141.963 158.243L142.968 157.796C146.874 156.011 147.208 151.435 147.208 150.096C147.208 147.641 146.539 145.632 145.088 143.958L144.753 143.624L147.097 140.611L143.972 138.267L141.852 141.057L141.405 140.834C139.955 139.829 138.169 139.718 136.718 139.718C130.581 139.718 126.229 144.07 126.229 150.319C126.229 156.903 130.134 160.809 136.718 160.809C139.62 160.809 142.745 162.372 142.745 165.719C142.745 168.844 140.289 170.964 136.718 170.964C133.371 170.964 130.804 168.956 130.581 166.277H126.452V166.054Z" fill="#001E61"/>
<path d="M153.123 134.474V153.78C153.123 156.346 153.792 158.243 155.131 159.583C156.359 160.81 158.144 161.368 160.376 161.257C161.827 161.257 162.943 161.033 164.17 160.587L163.055 157.016C162.273 157.351 161.492 157.462 160.823 157.462C158.814 157.462 157.475 156.012 157.475 153.78V143.736H163.501V140.165H157.475V134.027L153.123 134.474Z" fill="#001E61"/>
<path d="M178.564 157.572C174.212 157.572 172.204 154 172.204 150.541C172.204 147.082 174.435 143.511 178.564 143.511C182.582 143.511 184.925 147.082 184.925 150.541C184.925 154 182.917 157.572 178.564 157.572ZM178.453 139.716C172.204 139.716 167.74 144.18 167.74 150.653C167.74 157.125 172.092 161.589 178.453 161.589C184.814 161.589 189.166 157.125 189.166 150.653C189.278 144.292 184.702 139.716 178.453 139.716Z" fill="#001E61"/>
<path d="M211.487 161.034H215.839V150.097C215.839 143.96 212.379 139.831 207.134 139.831C204.679 139.831 202.559 140.835 200.439 142.955L199.658 143.736L199.211 140.165H195.417V161.034H199.658V150.32C199.658 146.526 202.224 143.625 205.684 143.625C209.143 143.625 211.487 146.191 211.487 149.986V161.034Z" fill="#001E61"/>
</g>
</g>
</g>
<defs>
<clipPath id="clip0_7481_7089">
<rect width="215.85" height="174.758" fill="white"/>
</clipPath>
<clipPath id="clip1_7481_7089">
<rect width="215.85" height="174.758" fill="white"/>
</clipPath>
<clipPath id="clip2_7481_7089">
<rect width="215.825" height="174.758" fill="white" transform="translate(0.0126953)"/>
</clipPath>
</defs>
</svg>
