<svg xmlns="http://www.w3.org/2000/svg" width="153.726" height="38.078" viewBox="0 0 153.726 38.078">
  <g id="Group_13294" data-name="Group 13294" transform="translate(-187.268 -1038.929)">
    <g id="Group_13292" data-name="Group 13292" transform="translate(63.555 1006.122)">
      <path id="Path_10868" data-name="Path 10868" d="M136.762,32.854c-.5.926-7.173,13.418-10.05,18.786a.463.463,0,0,0,.005.5c2.818,5.259,8.53,15.929,8.589,16.028.059-.1,5.771-10.769,8.589-16.028a.462.462,0,0,0,.006-.5q-2.419-4.5-4.827-9a.481.481,0,0,1,0-.528c.443-.8.868-1.608,1.318-2.447.064.108,4.337,8.086,6.434,11.995a.421.421,0,0,1,.005.456q-4.975,9.285-9.936,18.577a.367.367,0,0,1-.379.237c-.819-.014-1.639-.01-2.458,0a.3.3,0,0,1-.3-.182q-4.987-9.339-9.983-18.672a.333.333,0,0,1,0-.36q5-9.333,9.991-18.668c.042-.078.141-.179.214-.18C134.883,32.849,135.8,32.854,136.762,32.854Z" transform="translate(0 -0.04)"/>
      <path id="Path_10869" data-name="Path 10869" d="M184.034,36.625c-1.525,2.842-5.727,10.692-8.018,14.967a.463.463,0,0,0,0,.5q2.419,4.5,4.827,9a.482.482,0,0,1,0,.529c-.443.8-.868,1.608-1.318,2.448-.06-.1-4.333-8.08-6.433-12a.421.421,0,0,1,0-.456q4.975-9.285,9.936-18.578a.367.367,0,0,1,.379-.237c.819.014,1.639.01,2.458,0a.294.294,0,0,1,.3.182q4.987,9.339,9.984,18.672a.333.333,0,0,1,0,.36q-5,9.333-9.991,18.668c-.042.078-.141.178-.215.179-.914.012-1.829.008-2.786.008.063-.122,6.744-12.627,10.044-18.786a.463.463,0,0,0-.006-.5c-2.818-5.259-8.53-15.928-8.589-16.027-.011.019-.22.407-.571,1.061" transform="translate(-43.483 0)"/>
    </g>
    <g id="Group_13293" data-name="Group 13293" transform="translate(174.435 659.185)">
      <path id="Path_10870" data-name="Path 10870" d="M55.52,407.394H52.05V392.311a.732.732,0,0,0-.065-.378.782.782,0,0,0-.326-.2l-.939-.365.287-1.513h8.768q3.392,0,4.88,1.292a5.241,5.241,0,0,1,1.487,4.162,5.714,5.714,0,0,1-.927,3.5,4.465,4.465,0,0,1-2.884,1.592l4.28,6.994H62.775l-3.889-6.6H55.52Zm0-9.212h3.862a3.984,3.984,0,0,0,2.571-.652,2.772,2.772,0,0,0,.77-2.218,2.737,2.737,0,0,0-.77-2.192,3.988,3.988,0,0,0-2.571-.652H55.52Z" transform="translate(0)"/>
      <path id="Path_10871" data-name="Path 10871" d="M123.983,389.858v2.662H114.8v4.671H122.1v2.558H114.8v4.984h9.395v2.662H111.327V392.311a.732.732,0,0,0-.065-.378.782.782,0,0,0-.326-.2l-.939-.365.287-1.513Z" transform="translate(-41.741)"/>
      <path id="Path_10872" data-name="Path 10872" d="M164.517,392.311a.732.732,0,0,0-.065-.378.78.78,0,0,0-.326-.2l-.939-.365.287-1.513h3.915a.931.931,0,0,1,.509.091,3.376,3.376,0,0,1,.431.509l9,12.187V389.858h3.21v17.536h-3.366l-9.447-12.787v12.787h-3.21Z" transform="translate(-79.195)"/>
      <path id="Path_10873" data-name="Path 10873" d="M238.775,389.858q.522.939,1.122,2.257t1.24,2.858q.639,1.54,1.266,3.21t1.187,3.315q.56,1.644,1.031,3.158t.783,2.74h-3.5q-.288-1.07-.6-2.088t-.6-2.009h-7.724q-.313.992-.613,2.009t-.587,2.088h-3.5q.313-1.227.783-2.74T230.1,401.5q.561-1.645,1.188-3.315t1.266-3.21q.639-1.539,1.24-2.858t1.122-2.257Zm-1.931,3.079q-1.67,3.758-3.027,7.8h6.055Q238.461,396.7,236.844,392.937Z" transform="translate(-125.034)"/>
      <path id="Path_10874" data-name="Path 10874" d="M288.893,392.311a.731.731,0,0,0-.065-.378.78.78,0,0,0-.326-.2l-.939-.365.287-1.513h4.28q.235,0,.235.261V400.27a5.034,5.034,0,0,0,1.07,3.6,6.065,6.065,0,0,0,6.955,0,5.078,5.078,0,0,0,1.057-3.6V389.858h3.471v10.673a10.282,10.282,0,0,1-.457,3.262,5.17,5.17,0,0,1-1.422,2.231,5.892,5.892,0,0,1-2.492,1.279,16.588,16.588,0,0,1-7.281,0,5.89,5.89,0,0,1-2.492-1.279,5.162,5.162,0,0,1-1.422-2.231,10.273,10.273,0,0,1-.457-3.262Z" transform="translate(-166.776)"/>
      <path id="Path_10875" data-name="Path 10875" d="M356.637,392.311a.728.728,0,0,0-.065-.378.78.78,0,0,0-.326-.2l-.94-.365.287-1.513h4.28q.235,0,.235.261v14.614h8.012v2.662H356.637Z" transform="translate(-214.478)"/>
      <path id="Path_10876" data-name="Path 10876" d="M397.778,392.52h-5.689v-2.662h14.849v2.662h-5.689v14.875h-3.47Z" transform="translate(-240.379)"/>
    </g>
  </g>
</svg>
