<?xml version="1.0" encoding="UTF-8"?>
<svg id="Layer_1" data-name="Layer 1" xmlns="http://www.w3.org/2000/svg" xmlns:xlink="http://www.w3.org/1999/xlink" viewBox="0 0 300 153">
  <defs>
    <linearGradient id="exterior_fin_gradient_2" data-name="exterior fin gradient 2" x1="203.58" y1="260.79" x2="203.58" y2="400.33" gradientTransform="translate(112.8 -149.01) rotate(21.84) scale(.53)" gradientUnits="userSpaceOnUse">
      <stop offset="0" stop-color="#78c8d7"/>
      <stop offset=".25" stop-color="#00aff0"/>
      <stop offset="1" stop-color="#00000f"/>
    </linearGradient>
    <linearGradient id="interior_fin_gradient" data-name="interior fin gradient" x1="360.94" y1="371.87" x2="360.94" y2="464.82" gradientTransform="translate(115.25 -124.13) rotate(21.84) scale(.33)" gradientUnits="userSpaceOnUse">
      <stop offset="0" stop-color="#ffe600"/>
      <stop offset=".4" stop-color="#f5af13"/>
      <stop offset=".8" stop-color="#ee7f24"/>
      <stop offset="1" stop-color="#eb6d2b"/>
    </linearGradient>
    <linearGradient id="wordmark_gradient" data-name="wordmark gradient" x1="-192.97" y1="655.04" x2="-192.97" y2="700.33" gradientTransform="translate(105.07 -82.91) scale(.3)" gradientUnits="userSpaceOnUse">
      <stop offset="0" stop-color="#009be1"/>
      <stop offset=".09" stop-color="#0094d8"/>
      <stop offset=".24" stop-color="#0084bf"/>
      <stop offset=".44" stop-color="#006897"/>
      <stop offset=".66" stop-color="#004260"/>
      <stop offset=".91" stop-color="#00121b"/>
      <stop offset="1" stop-color="#000"/>
    </linearGradient>
    <linearGradient id="wordmark_gradient-2" data-name="wordmark gradient" x1="-99.52" y1="651.88" x2="-99.52" y2="701.29" xlink:href="#wordmark_gradient"/>
    <linearGradient id="wordmark_gradient-3" data-name="wordmark gradient" x1="-2.66" y1="643.73" x2="-2.66" y2="700.04" xlink:href="#wordmark_gradient"/>
    <linearGradient id="wordmark_gradient-4" data-name="wordmark gradient" x1="76.85" y1="642.15" x2="76.85" y2="698.67" xlink:href="#wordmark_gradient"/>
    <linearGradient id="wordmark_gradient-5" data-name="wordmark gradient" x1="133.44" y1="641.95" x2="133.44" y2="698.67" xlink:href="#wordmark_gradient"/>
    <linearGradient id="wordmark_gradient-6" data-name="wordmark gradient" x1="222.13" y1="642.14" x2="222.13" y2="700.4" xlink:href="#wordmark_gradient"/>
    <linearGradient id="wordmark_gradient-7" data-name="wordmark gradient" x1="305.95" y1="645.69" x2="305.95" y2="698.34" xlink:href="#wordmark_gradient"/>
    <linearGradient id="linear-gradient" x1="382.33" y1="650.48" x2="382.33" y2="698.33" gradientTransform="translate(105.07 -82.91) scale(.3)" gradientUnits="userSpaceOnUse">
      <stop offset="0" stop-color="#009bdf"/>
      <stop offset=".1" stop-color="#0094d6"/>
      <stop offset=".26" stop-color="#0082bd"/>
      <stop offset=".46" stop-color="#006495"/>
      <stop offset=".7" stop-color="#003b5e"/>
      <stop offset=".96" stop-color="#000719"/>
      <stop offset="1" stop-color="#00000f"/>
    </linearGradient>
    <linearGradient id="wordmark_gradient-8" data-name="wordmark gradient" x1="466.82" y1="653.98" x2="466.82" y2="700.23" xlink:href="#wordmark_gradient"/>
  </defs>
  <rect y="3" width="300" height="150" style="fill: none;"/>
  <path d="M226.53,59.12C146.22-.81,100.37,3.8,110.47,11.32c10.1,7.51,24.16,13.67-7.05,26.69-30.11,12.55-40.48,21.09-40.48,21.09,25.16-5.55,48.12-8.27,68.39-9.23-1.29.79-2.74,1.62-4.34,2.49-23.06,12.46-30.71,20.1-30.71,20.1,76.89-25.37,130.23-13.33,130.23-13.33,0,0,0,0,0,0,0,0,.02,0,.02,0Z" style="fill: url(#exterior_fin_gradient_2);"/>
  <path d="M130.7,30.52c8,4.82,18.66,8.41.66,19.35,58.5-2.78,94.42,9.01,95.16,9.25-68.26-41.17-104.41-33.75-95.83-28.6Z" style="fill: url(#interior_fin_gradient);"/>
  <path d="M44.43,107.3c.8.42,1.55.81,2.26,1.18,2.47,1.28,4.33,2.32,5.33,3.87,2.62-.27,5.4-.54,8.34-.8-.16-1.16-.48-2.18-.96-3.07-1.96-3.64-6.24-5.34-9.5-7.09-4-2.13-8-3.63-8-8,0-2.88,2.3-4.69,5.02-4.69,3.14,0,5.31,1.81,6.64,2.77l.87,5.07h3.29s0-8.7,0-8.7c-1.21-.32-5.5-1.24-11.41-1.24-6.45,0-10.77,4.65-10.77,9.98,0,6.61,5.39,8.84,8.89,10.71Z"/>
  <path d="M52.01,112.35c.5.8.78,1.72.78,2.9,0,3.36-2.72,6.01-6.33,6.01-3.09,0-4.8-1.75-5.92-2.5l-1.29-5.03s-.09,0-.13.01l-3.56.42s-.04,0-.05,0l.39,8c1.71.43,4.7,1.39,11.35,1.39s13.19-4.37,13.19-10.66c0-.47-.03-.92-.08-1.35-2.94.26-5.72.53-8.34.8Z" style="fill: url(#wordmark_gradient);"/>
  <path d="M71.38,110.61c-.04-.67-.07-1.38-.08-2.09h16.87c0-7.94-4.66-11.75-12.45-11.75s-13.2,6.05-13.2,13.47c0,.38,0,.75.04,1.1,2.82-.24,5.76-.49,8.82-.73ZM75.77,98.81c3.13,0,3.95,4.01,4.13,7.66h-8.42c.12-4.01,1.53-7.66,4.29-7.66Z"/>
  <path d="M77.78,120.49c-4.64-.63-6.09-4.66-6.4-9.88-3.06.24-6,.49-8.82.73.51,7.51,6.22,12.5,13.29,12.5,7.42,0,11.32-2.83,12.85-4.06l-1.23-1.96c-1.13.72-5.61,3.26-9.68,2.67Z" style="fill: url(#wordmark_gradient-2);"/>
  <path d="M97.18,104.71l.62-4.83c1.47-.12,1.82-.53,4.83,0,2.65.47,3.19,2.24,3.24,4.81v3.83h-.02c2.7-.11,5.44-.22,8.23-.32v-4.81c0-3.64-2.87-6.94-8.33-6.88-6.96.06-10.66,1.59-13.06,2.48l.22,5.72h4.26Z"/>
  <path d="M114.1,108.2c-2.79.09-5.53.2-8.23.32l-5.94.61c-5,.35-9.28,2.92-9.28,7.65s3.46,6.69,7.28,6.69c4.24,0,6.79-1.83,8.02-2.82l.4,2.82,11.57-.59v-1.3l-3.83-.93v-12.45ZM105.88,118.6c-1.06.75-2.36,1.45-3.83,1.51-2.59,0-3.96-1.46-3.96-4.09,0-2.81,2.12-4.62,5.31-4.96l2.48-.29v7.84Z" style="fill: url(#wordmark_gradient-3);"/>
  <path d="M148.33,107.68c1.19,0,2.38,0,3.56.02l6.56-18.37h.02s3.35-.85,3.35-.85v-1.28h-11.72v1.28l4.08.86-5.85,18.34Z"/>
  <path d="M134.71,100.36l-2.41,7.4c.89,0,1.78-.02,2.67-.03l1.17-3.37,1.09,3.35c2.61-.03,5.24-.03,7.89-.04l-5.96-18.33,3.34-.86v-1.28h-14.43v1.18l2.9.9,3.75,11.08Z"/>
  <path d="M114.31,89.33l6.34,18.68c2.63-.08,5.28-.13,7.96-.18l-5.77-18.49,3.01-.86v-1.28h-14.6v1.28l3.02.86h.03Z"/>
  <path d="M132.3,107.76l-1.88,5.82-1.8-5.75c-2.68.05-5.33.11-7.96.18l5.13,15.05h3.87l5.31-15.34c-.89.01-1.78.02-2.67.03Z" style="fill: url(#wordmark_gradient-4);"/>
  <path d="M148.33,107.68l-1.6,4.99-1.62-5c-2.65,0-5.28.01-7.89.04l5.02,15.36h4.18l5.47-15.37c-1.18-.01-2.37-.02-3.56-.02Z" style="fill: url(#wordmark_gradient-5);"/>
  <path d="M164.68,107.88c.43-5.16,2.46-9.27,6.13-9.27s5.78,4.28,6.16,9.6c2.97.1,5.88.21,8.75.34,0-.03-.02-.05-.02-.08-.8-7.96-7.89-11.9-14.89-11.9s-13.66,3.7-14.81,11.16c2.93.04,5.83.08,8.68.15Z"/>
  <path d="M176.96,108.22c0,.08,0,.17,0,.26.03.51.05,1.02.05,1.54,0,6.11-2.06,11.53-6.21,11.53s-6.21-5.41-6.21-11.53c0-.52,0-1.04.04-1.54,0-.2.03-.4.05-.59-2.85-.07-5.75-.11-8.68-.15-.03.24-.07.49-.08.74-.06.5-.09,1.01-.09,1.54,0,8.64,7.54,13.57,14.98,13.57s14.98-4.92,14.98-13.57c0-.5-.03-.99-.07-1.46-2.87-.12-5.79-.24-8.75-.34Z" style="fill: url(#wordmark_gradient-6);"/>
  <path d="M190.53,108.78c2.8.13,5.54.27,8.21.43v-3.9c1.41-1.3,3.07-2.29,5.35-2.29,1.82,0,2.77.59,3.52,1.18l2.54-5.69c-.65-.76-2.06-1.94-4.78-1.94-3.35,0-6.1,4.76-7.05,6.57l-.64-6.57-11.11.65v1.23l3.94,1.01v9.34Z"/>
  <path d="M198.74,109.21c-2.68-.15-5.41-.3-8.21-.43v12.01l-3.94.94v1.23h18.04v-1.41l-5.88-.93v-11.41Z" style="fill: url(#wordmark_gradient-7);"/>
  <path d="M214.12,110.2c2.84.21,5.58.42,8.22.64v-25.9l-12.15.76v1.24l3.93.94v22.32Z"/>
  <path d="M222.34,110.84c-2.64-.21-5.38-.43-8.22-.64v10.59l-3.93.94v1.23h16.02v-1.23l-3.88-.94v-9.96Z" style="fill: url(#linear-gradient);"/>
  <path d="M235.73,112.03c-.03-.54-.04-1.1-.04-1.68,0-.64.04-1.28.09-1.88.43-4.84,2.32-8.5,6.08-8.54,2.83,0,4.35.82,5.29,1.35v11.94c3.07.34,5.82.67,8.21.96v-29.24l-13.62.76v1.41l5.4,1v10.77c-1.89-1.06-4.82-2.29-8.69-2.29-6.56,0-10.73,4.79-11.37,11.9-.05.64-.1,1.31-.1,2,0,.25,0,.51.02.76,3.06.27,5.97.53,8.73.8Z"/>
  <path d="M255.36,114.17c-2.4-.29-5.14-.61-8.21-.96v5.22c-1.12.65-2.36,1.58-4.88,1.58-4.25,0-6.23-2.92-6.54-7.98-2.76-.27-5.66-.54-8.73-.8.26,8.01,4.66,12.3,11.5,12.3,3.41,0,6.64-1.23,8.64-2.81l.28,2.75,11.98-.53v-1.12l-4.05-1.04v-6.61Z" style="fill: url(#wordmark_gradient-8);"/>
  <path d="M261.39,121.4h0c0-1.83,1.46-3.33,3.33-3.33s3.28,1.49,3.28,3.28v.04c0,1.78-1.45,3.29-3.32,3.29s-3.29-1.5-3.29-3.28ZM267.7,121.4v-.04c0-1.66-1.3-3.01-2.98-3.01s-3.03,1.39-3.03,3.05h0c0,1.64,1.3,2.99,2.99,2.99s3.02-1.36,3.02-2.99ZM263.4,119.59h1.51c.44,0,.79.14,1.01.37.17.13.29.37.29.65h0c0,.56-.37.91-.9.99l1.07,1.36h-.63l-.96-1.28h-.89v1.28h-.5v-3.36ZM264.86,121.24c.49,0,.83-.2.83-.6h0c0-.36-.32-.58-.8-.58h-1v1.19h.97Z"/>
</svg>