<svg width="500" height="86" viewBox="0 0 500 86" fill="none" xmlns="http://www.w3.org/2000/svg">
<g clip-path="url(#clip0_7465_1133)">
<path d="M38.3501 31.9401C38.3501 35.5603 35.4364 38.4843 31.8289 38.4843C28.2214 38.4843 25.3076 35.5603 25.3076 31.9401C25.3076 28.32 28.2214 25.396 31.8289 25.396C35.4364 25.396 38.3501 28.32 38.3501 31.9401Z" fill="#A4957D"/>
<path d="M43.5962 18.9923L46.843 15.7063C47.1482 15.3999 47.6477 15.3999 47.953 15.7063C48.286 16.0404 48.286 16.5695 47.953 16.9037L44.7617 20.1062H45.067C48.2582 20.1062 51.1165 20.8859 53.5862 22.0555C55.2512 16.6252 54.6685 11.3899 54.3077 9.35706C52.3097 9.02289 47.0372 8.3824 41.626 10.0532C42.847 12.6431 43.624 15.6227 43.5685 18.9923H43.5962Z" fill="#A4957D"/>
<path d="M20.0646 44.9187L16.8734 48.1211C16.5404 48.4832 16.0131 48.4832 15.6801 48.1211C15.3749 47.8148 15.3749 47.3136 15.6801 47.0072L18.8991 43.777H18.7049C15.4304 43.777 12.5444 42.9972 10.0191 41.8276C8.35412 47.2579 8.99237 52.521 9.32537 54.526C11.3511 54.8881 16.5959 55.5007 22.0071 53.802C20.8139 51.2401 20.0369 48.2604 20.0646 44.9187Z" fill="#A4957D"/>
<path d="M18.5658 20.1054H18.871L15.6798 16.9029C15.319 16.5688 15.319 16.0397 15.6798 15.7055C15.985 15.3992 16.4845 15.3992 16.7898 15.7055L20.0365 18.9636C20.0088 15.622 20.7858 12.6144 21.979 10.0525C16.54 8.38163 11.2953 8.99427 9.29727 9.32844C8.93652 11.3613 8.35377 16.5966 10.0188 22.0269C12.5163 20.8573 15.3468 20.0775 18.538 20.0775L18.5658 20.1054Z" fill="#A4957D"/>
<path d="M44.9546 43.8053H44.7603L47.9794 47.0356C48.2846 47.3419 48.2846 47.8432 47.9794 48.1495C47.6464 48.5115 47.1191 48.5115 46.7861 48.1495L43.5671 44.947C43.6226 48.2887 42.8456 51.2405 41.6523 53.8303C47.0636 55.5012 52.2806 54.9164 54.3064 54.5544C54.6394 52.5494 55.2776 47.2862 53.6126 41.856C51.0874 43.0255 48.2014 43.8053 44.9268 43.8053H44.9546Z" fill="#A4957D"/>
<path d="M42.8193 21.2476C42.8193 21.2476 42.5695 21.2754 42.4585 21.3033C42.4585 21.164 42.4863 21.0805 42.514 20.9412C43.9015 9.41242 34.522 1.92147 31.8303 0C29.083 1.92147 19.8422 9.44027 21.1465 21.0248C21.1465 21.1362 21.1742 21.2197 21.202 21.3033C21.091 21.3033 20.98 21.2754 20.869 21.2476C9.38049 19.8552 1.91573 29.2398 0.000976562 31.9688C1.91573 34.7257 9.40824 43.9989 20.9522 42.6901C21.0355 42.6901 21.1187 42.6901 21.202 42.6344C21.202 42.7179 21.1742 42.8014 21.1742 42.885C19.8422 54.4695 29.083 61.9883 31.858 63.9098C34.5498 61.9883 43.9015 54.4974 42.5418 42.9685C42.5418 42.8571 42.4863 42.7458 42.4863 42.6344C42.5695 42.6344 42.6528 42.6622 42.7638 42.6901C54.3078 44.0267 61.7725 34.7257 63.715 31.9688C61.8003 29.2676 54.3355 19.883 42.847 21.2476H42.8193ZM53.836 32.7764H41.404C41.293 33.8346 41.0988 34.8092 40.7103 35.7282H47.4535C47.9253 35.7561 48.286 36.1459 48.3415 36.6193C48.3138 37.037 47.953 37.3712 47.5645 37.3991H39.7668C39.073 38.4294 38.2405 39.2648 37.2415 39.9332V47.6469C37.2415 48.0925 36.8808 48.4266 36.4645 48.4545C35.9928 48.4545 35.6043 48.0925 35.632 47.619V40.8243C34.6885 41.2141 33.6895 41.4091 32.6628 41.4926V54.0518C32.6905 54.4974 32.3298 54.8594 31.9135 54.8315C31.4418 54.8315 31.0533 54.4695 31.081 53.9961V41.4926C30.0265 41.4091 29.0553 41.1863 28.1395 40.7964V47.5634C28.1118 48.0368 27.7233 48.3988 27.2515 48.4545C26.8353 48.4266 26.5023 48.0646 26.4745 47.6747V39.8496C25.5033 39.1813 24.6707 38.3459 24.0047 37.3991H16.2347C15.8185 37.3434 15.4855 37.0092 15.4577 36.5915C15.5132 36.1181 15.874 35.7282 16.3457 35.7004H23.089C22.7005 34.7814 22.4785 33.7789 22.3952 32.7485H9.96324C9.49149 32.7485 9.10299 32.3587 9.13074 31.8853C9.13074 31.4676 9.49149 31.0777 9.90774 31.0777H22.3952C22.4785 30.0752 22.6728 29.0448 23.0613 28.1259H16.318C15.8462 28.1259 15.4577 27.736 15.4855 27.2626C15.5132 26.8449 15.8462 26.5107 16.2902 26.455H23.9215C24.5875 25.4804 25.4478 24.5893 26.4745 23.9209V16.1515C26.53 15.7338 26.863 15.3996 27.2793 15.3718C27.751 15.3996 28.1395 15.7895 28.1673 16.2629V22.9741C29.083 22.5842 30.082 22.3893 31.1088 22.3058V9.83013C31.1088 9.35673 31.4973 8.96686 31.969 8.99471C32.3853 8.99471 32.746 9.35673 32.746 9.77444V22.2779C33.745 22.3615 34.744 22.5564 35.6598 22.9463V16.2072C35.6598 15.7338 36.0483 15.3439 36.52 15.3718C36.9363 15.3996 37.2693 15.7338 37.3248 16.1793V23.8374C38.3238 24.5336 39.2118 25.4525 39.9333 26.4829H47.5645C48.0085 26.4829 48.3415 26.8449 48.3693 27.2626C48.3693 27.736 48.0085 28.1259 47.5368 28.098H40.7935C41.182 29.0448 41.3763 30.0473 41.4595 31.1055H53.947C54.391 31.0777 54.7518 31.4397 54.724 31.8853C54.724 32.3587 54.3633 32.7485 53.8915 32.7207L53.836 32.7764Z" fill="#A4957D"/>
<path d="M70.4287 12.7817H74.7577L86.9955 45.8088L99.2887 12.7817H103.479L88.6882 51.3782H85.2472L70.4565 12.7817H70.4287Z" fill="#695F55"/>
<path d="M110.224 12.7817H135.088V16.7361H114.109V29.8243H132.868V33.7787H114.109V47.2011H135.337V51.1555H110.224V12.7817Z" fill="#695F55"/>
<path d="M143.136 12.7817H147.021V47.1176H166.39V51.0998H143.136V12.7817Z" fill="#695F55"/>
<path d="M186.286 12.5034H189.921L205.6 51.0999H201.41L197.386 40.9635H178.655L174.576 51.0999H170.607L186.286 12.5034ZM195.86 37.037L188.034 17.5438L180.181 37.037H195.86Z" fill="#695F55"/>
<path d="M209.402 45.5311L211.817 42.3565C215.396 45.9766 218.837 47.7867 223.61 47.7867C228.383 47.7867 231.269 45.0576 231.269 41.2704V41.159C231.269 37.5945 229.549 35.5617 222.334 33.8908C214.425 31.9694 210.79 29.1289 210.79 22.8354V22.724C210.79 16.709 215.563 12.2534 222.084 12.2534C227.107 12.2534 230.687 13.8407 234.183 16.9596L231.935 20.3013C228.744 17.4052 225.553 16.1521 222.001 16.1521C217.533 16.1521 214.675 18.8811 214.675 22.3342V22.4456C214.675 26.0657 216.451 28.0986 223.999 29.8808C231.658 31.7466 235.21 34.8655 235.21 40.7135V40.8248C235.21 47.3968 230.298 51.6575 223.472 51.6575C218.005 51.6575 213.537 49.6246 209.43 45.5311H209.402Z" fill="#695F55"/>
<path d="M257.492 12.7813H271.7C273.892 12.7813 275.807 13.1154 277.472 13.7281C279.137 14.3686 280.469 15.2597 281.523 16.4293C282.3 17.3482 282.911 18.4064 283.355 19.6039C283.799 20.8013 284.021 22.1101 284.021 23.5582V23.6696C284.021 25.2847 283.771 26.7328 283.244 27.9859C282.716 29.2669 281.967 30.353 280.996 31.2719C280.025 32.1909 278.887 32.9149 277.555 33.4719C276.223 34.0288 274.78 34.363 273.198 34.5022L284.631 51.0993H282.522L271.311 34.725H259.129V51.0993H257.464V12.7534L257.492 12.7813ZM271.256 33.0542C273.032 33.0542 274.586 32.8314 275.973 32.358C277.361 31.9124 278.498 31.2719 279.47 30.4365C280.413 29.6011 281.135 28.6264 281.634 27.5125C282.134 26.3708 282.383 25.1455 282.383 23.781V23.6696C282.383 20.7735 281.44 18.5178 279.553 16.9027C277.666 15.2875 275.03 14.48 271.616 14.48H259.184V33.0542H271.256Z" fill="#695F55"/>
<path d="M293.069 12.7817H317.295V14.4804H294.734V30.9661H315.13V32.6648H294.734V49.4289H317.517V51.1276H293.041V12.7817H293.069Z" fill="#695F55"/>
<path d="M337.246 51.6561C334.554 51.6561 332.085 51.127 329.865 50.0966C327.617 49.0663 325.508 47.5347 323.565 45.5296L324.703 44.1651C326.535 46.0866 328.477 47.5625 330.531 48.5093C332.584 49.484 334.86 49.9574 337.385 49.9574C338.856 49.9574 340.188 49.7346 341.409 49.3169C342.63 48.8992 343.656 48.3144 344.517 47.5347C345.377 46.7549 346.043 45.8638 346.515 44.8613C346.959 43.8309 347.208 42.7171 347.208 41.5196V41.4082C347.208 40.2665 347.042 39.264 346.709 38.4007C346.376 37.5096 345.821 36.7299 345.016 36.0337C344.211 35.3375 343.129 34.697 341.742 34.1401C340.354 33.5831 338.634 33.054 336.58 32.5806C334.471 32.1072 332.695 31.5502 331.197 30.9376C329.698 30.325 328.505 29.6009 327.561 28.7655C326.618 27.9301 325.952 26.9833 325.536 25.9251C325.119 24.839 324.897 23.6137 324.897 22.2214V22.11C324.897 20.7733 325.175 19.4923 325.73 18.267C326.285 17.0696 327.062 16.0114 328.033 15.0924C329.004 14.1735 330.198 13.4773 331.557 12.9482C332.917 12.4469 334.416 12.1685 336.053 12.1685C338.412 12.1685 340.548 12.5583 342.435 13.338C344.322 14.1178 346.098 15.2317 347.736 16.6519L346.709 18.1278C343.49 15.2874 339.91 13.8671 335.942 13.8671C334.527 13.8671 333.25 14.0899 332.085 14.5355C330.919 14.981 329.92 15.5658 329.115 16.3177C328.311 17.0696 327.672 17.9329 327.228 18.8797C326.784 19.8543 326.562 20.8568 326.562 21.915V22.0264C326.562 23.1125 326.729 24.115 327.062 24.9783C327.395 25.8694 327.95 26.6491 328.755 27.3731C329.559 28.0972 330.642 28.7098 332.029 29.2946C333.417 29.8516 335.137 30.3807 337.246 30.8541C339.383 31.3275 341.187 31.8844 342.685 32.5249C344.184 33.1654 345.377 33.9173 346.293 34.7527C347.208 35.5881 347.874 36.5349 348.291 37.5931C348.707 38.6513 348.901 39.8488 348.901 41.2133V41.3247C348.901 42.8284 348.624 44.193 348.069 45.4182C347.514 46.6714 346.737 47.7574 345.738 48.6764C344.739 49.5954 343.518 50.3194 342.102 50.8485C340.687 51.3497 339.078 51.6004 337.302 51.6004L337.246 51.6561Z" fill="#695F55"/>
<path d="M372.848 51.767C370.239 51.767 367.881 51.2379 365.772 50.1518C363.663 49.0658 361.887 47.6177 360.36 45.8076C358.862 43.9697 357.696 41.8812 356.892 39.5141C356.087 37.1471 355.698 34.6408 355.698 32.0232V31.9118C355.698 29.2941 356.114 26.7879 356.919 24.393C357.752 22.026 358.89 19.9096 360.388 18.0995C361.887 16.2616 363.69 14.8135 365.799 13.7553C367.908 12.6692 370.267 12.1401 372.903 12.1401C375.54 12.1401 377.843 12.6692 379.952 13.7553C382.061 14.8413 383.865 16.2894 385.391 18.0995C386.889 19.9374 388.055 22.026 388.86 24.393C389.664 26.76 390.053 29.2663 390.053 31.9118C390.108 31.9118 390.108 31.9396 390.053 32.0232C390.053 34.6408 389.637 37.1471 388.832 39.5141C387.999 41.8812 386.862 43.9976 385.363 45.8076C383.865 47.6456 382.061 49.0936 379.924 50.1518C377.787 51.2379 375.429 51.767 372.848 51.767ZM372.931 50.0683C375.234 50.0683 377.316 49.5949 379.203 48.6202C381.09 47.6456 382.699 46.3367 384.059 44.6937C385.419 43.0507 386.445 41.1293 387.222 38.9293C387.972 36.7294 388.36 34.4459 388.36 32.0232V31.9118C388.36 29.4891 387.972 27.2056 387.222 25.0056C386.473 22.8057 385.419 20.8842 384.031 19.2412C382.671 17.5704 381.034 16.2616 379.119 15.259C377.205 14.2844 375.123 13.7831 372.82 13.7831C370.517 13.7831 368.408 14.2565 366.521 15.2312C364.606 16.2059 362.997 17.5147 361.637 19.1577C360.277 20.8007 359.25 22.7221 358.473 24.9221C357.724 27.122 357.336 29.4055 357.336 31.8282V31.9396C357.336 34.3624 357.724 36.6458 358.473 38.8458C359.222 41.0457 360.305 42.9672 361.665 44.6381C363.052 46.3089 364.689 47.6177 366.604 48.6202C368.519 49.5949 370.6 50.0961 372.903 50.0961H372.931V50.0683Z" fill="#695F55"/>
<path d="M398.739 12.7813H412.947C415.139 12.7813 417.054 13.1154 418.719 13.7281C420.384 14.3686 421.716 15.2597 422.77 16.4293C423.547 17.3482 424.185 18.4064 424.602 19.6039C425.046 20.8013 425.268 22.1101 425.268 23.5582V23.6696C425.268 25.2847 425.018 26.7328 424.491 27.9859C423.963 29.2669 423.214 30.353 422.243 31.2719C421.272 32.1909 420.134 32.9149 418.802 33.4719C417.47 34.0288 416.027 34.363 414.445 34.5022L425.878 51.0993H423.769L412.558 34.725H400.376V51.0993H398.711V12.7534L398.739 12.7813ZM412.475 33.0542C414.251 33.0542 415.805 32.8314 417.192 32.358C418.58 31.9124 419.718 31.2719 420.689 30.4365C421.633 29.6011 422.354 28.6264 422.853 27.5125C423.353 26.3708 423.603 25.1455 423.603 23.781V23.6696C423.603 20.7735 422.659 18.5178 420.772 16.9027C418.885 15.2875 416.249 14.48 412.836 14.48H400.404V33.0542H412.475Z" fill="#695F55"/>
<path d="M443.278 14.4804H431.04V12.7817H457.236V14.4804H444.943V51.1276H443.278V14.4804Z" fill="#695F55"/>
<path d="M475.663 51.6561C472.971 51.6561 470.502 51.127 468.282 50.0966C466.034 49.0663 463.925 47.5347 461.982 45.5296L463.12 44.1651C464.952 46.0866 466.894 47.5625 468.948 48.5093C471.001 49.484 473.277 49.9574 475.802 49.9574C477.273 49.9574 478.605 49.7346 479.826 49.3169C481.047 48.8992 482.073 48.3144 482.934 47.5347C483.794 46.7549 484.46 45.8638 484.932 44.8613C485.376 43.8309 485.625 42.7171 485.625 41.5196V41.4082C485.625 40.2665 485.459 39.264 485.126 38.4007C484.793 37.5096 484.238 36.7299 483.433 36.0337C482.628 35.3375 481.546 34.697 480.159 34.1401C478.771 33.5831 477.051 33.054 474.997 32.5806C472.888 32.1072 471.112 31.5502 469.614 30.9376C468.115 30.325 466.922 29.6009 465.978 28.7655C465.035 27.9301 464.369 26.9833 463.953 25.9251C463.536 24.839 463.314 23.6137 463.314 22.2214V22.11C463.314 20.7733 463.592 19.4923 464.147 18.267C464.702 17.0696 465.479 16.0114 466.45 15.0924C467.421 14.1735 468.615 13.4773 469.974 12.9482C471.334 12.4469 472.833 12.1685 474.47 12.1685C476.829 12.1685 478.965 12.5583 480.852 13.338C482.739 14.1178 484.515 15.2317 486.153 16.6519L485.126 18.1278C481.907 15.2874 478.327 13.8671 474.359 13.8671C472.944 13.8671 471.667 14.0899 470.502 14.5355C469.336 14.981 468.337 15.5658 467.532 16.3177C466.728 17.0696 466.089 17.9329 465.645 18.8797C465.201 19.8543 464.979 20.8568 464.979 21.915V22.0264C464.979 23.1125 465.146 24.115 465.479 24.9783C465.812 25.8694 466.367 26.6491 467.172 27.3731C467.976 28.0972 469.059 28.7098 470.446 29.2946C471.834 29.8516 473.554 30.3807 475.663 30.8541C477.8 31.3275 479.604 31.8844 481.102 32.5249C482.601 33.1654 483.794 33.9173 484.71 34.7527C485.625 35.5881 486.291 36.5349 486.708 37.5931C487.124 38.6513 487.318 39.8488 487.318 41.2133V41.3247C487.318 42.8284 487.041 44.193 486.486 45.4182C485.931 46.6714 485.154 47.7574 484.155 48.6764C483.156 49.5954 481.935 50.3194 480.519 50.8485C479.104 51.3497 477.495 51.6004 475.719 51.6004L475.663 51.6561Z" fill="#695F55"/>
<path d="M175.491 71.0107H177.489L182.706 83.0408L187.923 71.0107H189.81V85.3521H188.478V72.7094H188.45L183.011 85.3521H182.429L176.906 72.7094H176.879V85.3521H175.547V71.0107H175.491Z" fill="#695F55"/>
<path d="M205.685 71.0104H214.426V72.2357H207.017V77.3318H213.954V78.5571H207.017V84.1544H214.759V85.3797H205.685V71.0383V71.0104ZM210.652 67.1953H212.261L209.57 70.1193H208.571L210.68 67.1953H210.652Z" fill="#695F55"/>
<path d="M233.211 77.8055L228.327 71.0107H229.909L234.016 76.8308L238.067 71.0107H239.649L234.793 77.8055L240.093 85.3521H238.428L233.905 78.8637L229.382 85.3521H227.8L233.156 77.8055H233.211Z" fill="#695F55"/>
<path d="M254.22 71.0107H255.552V85.3521H254.22V71.0107Z" fill="#695F55"/>
<path d="M283.357 83.0962C282.663 84.0152 281.886 84.6835 280.97 85.1012C280.055 85.5189 279.083 85.7139 278.057 85.7139C277.03 85.7139 275.975 85.5189 275.06 85.1569C274.144 84.7949 273.367 84.2658 272.729 83.5975C272.09 82.9291 271.591 82.1216 271.202 81.2026C270.842 80.2836 270.647 79.2811 270.647 78.1672C270.647 77.0533 270.842 76.0787 271.202 75.1597C271.563 74.2407 272.063 73.461 272.729 72.7927C273.367 72.1243 274.144 71.5952 275.06 71.2332C275.975 70.8434 276.974 70.6763 278.057 70.6763C279.028 70.6763 279.944 70.8434 280.776 71.2054C281.609 71.5395 282.358 72.1243 282.996 72.9319L281.914 73.8509C281.47 73.1825 280.887 72.6813 280.221 72.375C279.527 72.0686 278.806 71.9016 278.084 71.9016C277.169 71.9016 276.308 72.0686 275.559 72.375C274.81 72.7091 274.172 73.1547 273.644 73.7116C273.117 74.2686 272.729 74.9369 272.423 75.7167C272.146 76.4964 272.007 77.3318 272.007 78.1951C272.007 79.0583 272.146 79.9216 272.423 80.6735C272.701 81.4532 273.117 82.1216 273.644 82.6785C274.172 83.2354 274.81 83.681 275.559 84.0152C276.308 84.3493 277.141 84.4886 278.084 84.4886C278.445 84.4886 278.834 84.4329 279.222 84.3493C279.611 84.2658 279.999 84.1266 280.36 83.9316C280.721 83.7645 281.081 83.5139 281.414 83.2354C281.747 82.957 282.053 82.6228 282.302 82.2329L283.385 83.0684H283.357V83.0962Z" fill="#695F55"/>
<path d="M296.98 78.1672C296.98 77.0812 297.175 76.0787 297.535 75.1597C297.896 74.2407 298.396 73.461 299.062 72.7927C299.7 72.1243 300.477 71.5952 301.393 71.2332C302.308 70.8434 303.307 70.6763 304.39 70.6763C305.472 70.6763 306.471 70.8712 307.387 71.2332C308.302 71.6231 309.079 72.1243 309.718 72.7927C310.356 73.461 310.856 74.2407 311.244 75.1597C311.605 76.0787 311.799 77.0812 311.799 78.1672C311.799 79.2533 311.605 80.2836 311.244 81.2026C310.883 82.1216 310.384 82.9291 309.718 83.5975C309.079 84.2658 308.302 84.7949 307.387 85.1569C306.471 85.5189 305.472 85.7139 304.39 85.7139C303.307 85.7139 302.308 85.5189 301.393 85.1569C300.477 84.7949 299.7 84.2658 299.062 83.5975C298.423 82.9291 297.924 82.1216 297.535 81.2026C297.175 80.2836 296.98 79.2811 296.98 78.1672ZM298.312 78.1672C298.312 79.0583 298.451 79.8938 298.729 80.6456C299.006 81.4254 299.422 82.0937 299.95 82.6507C300.477 83.2076 301.115 83.6532 301.864 83.9873C302.614 84.3215 303.446 84.4607 304.39 84.4607C305.333 84.4607 306.166 84.2936 306.915 83.9873C307.664 83.6532 308.302 83.2076 308.83 82.6507C309.357 82.0937 309.746 81.4254 310.051 80.6456C310.356 79.8659 310.467 79.0583 310.467 78.1672C310.467 77.2761 310.328 76.4407 310.051 75.6888C309.773 74.9369 309.357 74.2407 308.83 73.6838C308.302 73.1268 307.664 72.6813 306.915 72.3471C306.166 72.0129 305.333 71.8737 304.39 71.8737C303.446 71.8737 302.614 72.0408 301.864 72.3471C301.115 72.6813 300.477 73.1268 299.95 73.6838C299.422 74.2407 299.034 74.9091 298.729 75.6888C298.451 76.4685 298.312 77.304 298.312 78.1672Z" fill="#695F55"/>
<path d="M495.616 47.703H495.117V49.1789C495.117 49.1789 495.172 49.346 495.256 49.3738C495.339 49.4017 495.478 49.4295 495.672 49.4574C495.727 49.4574 495.755 49.5131 495.755 49.5688V49.6802H494.007V49.5688C494.007 49.5688 494.007 49.4852 494.09 49.4574C494.257 49.4574 494.368 49.4017 494.451 49.3738C494.506 49.346 494.562 49.2625 494.562 49.1789V45.7815C494.562 45.7815 494.562 45.6423 494.451 45.5866C494.395 45.5309 494.257 45.5031 494.09 45.5031C494.035 45.5031 494.035 45.4474 494.035 45.3917V45.2803H495.755C496.227 45.2803 496.588 45.3917 496.837 45.5866C497.087 45.8094 497.198 46.0878 497.198 46.4499C497.198 46.5334 497.198 46.6448 497.143 46.7562C497.143 46.8676 497.059 46.979 497.004 47.0625C496.948 47.1739 496.837 47.2574 496.726 47.341C496.615 47.4245 496.477 47.5081 496.338 47.5638L497.448 49.0954C497.448 49.0954 497.614 49.2903 497.725 49.346C497.836 49.4017 497.92 49.4295 498.003 49.4574C498.003 49.4574 498.058 49.4852 498.058 49.5409V49.6523H497.281C497.281 49.6523 497.087 49.6245 497.004 49.5409C496.921 49.4574 496.81 49.346 496.726 49.2346L495.672 47.703H495.616ZM495.478 47.4524C495.783 47.4524 496.033 47.3967 496.199 47.2574C496.366 47.1182 496.449 46.8954 496.449 46.5613C496.449 46.422 496.449 46.2828 496.393 46.1714C496.393 46.06 496.31 45.9486 496.227 45.8651C496.144 45.7815 496.06 45.7258 495.922 45.6701C495.783 45.6144 495.644 45.5866 495.45 45.5866H495.117V47.4245H495.478V47.4524Z" fill="#695F55"/>
<path d="M495.921 44.1097C497.808 44.1097 499.362 45.6692 499.362 47.5628C499.362 49.4564 497.808 51.0159 495.921 51.0159C494.034 51.0159 492.48 49.4564 492.48 47.5628C492.48 45.6692 494.034 44.1097 495.921 44.1097ZM495.921 43.4692C493.673 43.4692 491.842 45.3072 491.842 47.5628C491.842 49.8184 493.673 51.6564 495.921 51.6564C498.169 51.6564 500 49.8184 500 47.5628C500 45.3072 498.169 43.4692 495.921 43.4692Z" fill="#695F55"/>
</g>
<defs>
<clipPath id="clip0_7465_1133">
<rect width="500" height="85.7143" fill="white"/>
</clipPath>
</defs>
</svg>
