<svg xmlns="http://www.w3.org/2000/svg" width="48" height="48" fill="none"><path fill="#8A8A8A" d="M45.604 7.076c-.03-.578 0-1.158-.117-1.734-.068-.329-.243-.616-.286-.917-.28-.353-.577-.654-.946-.844-.315-.162-.587-.38-.901-.567-.095-.24-.218-.477-.473-.665l-.603-.212c-.16-.111-.308-.228-.469-.321-.303-.175-.604-.384-.952-.432a3.517 3.517 0 0 1-.947-.284c-.379-.168-.804-.203-1.16-.425-.334-.041-.622-.236-.946-.295-.854-.153-1.712-.285-2.59-.226a.77.77 0 0 0-.664-.127l-.454.212c-.213-.022-.44-.037-.664-.07-.375-.056-.743.011-1.113.037a.541.541 0 0 0-.29.098c-.24.195-.529.226-.81.286a2.356 2.356 0 0 0-.3.077c-.312.11-.623.224-.992.358-.05.036-.148.112-.252.18-.26.17-.527.33-.779.509-.075.054-.113.16-.168.243a.724.724 0 0 0-.385.275c-.14.204-.289.401-.439.598-.049.063-.107.13-.239.09l-.103-.166c-.093.05-.164.119-.184.228l.016.232-.603.699c-.224.153-.511.326-.596.68-.166.098-.245.264-.298.434-.117.37-.322.667-.64.848-.049.103-.091.175-.117.253-.053.156-.098.314-.142.46.015.078.031.137.038.198.01.08.012.16.015.203-.1.223-.328.129-.454.28-.091.127-.201.273-.178.505l.296-.021c-.162.42-.403.797-.613 1.204l-.253-.122c-.086.16-.178.319-.258.483-.064.13-.12.264-.168.4-.2.567-.388 1.139-.595 1.702-.107.291-.203.6-.38.846-.187.256-.343.513-.413.82-.187.14-.328.323-.546.426a.628.628 0 0 1-.315-.237c-.067-.166-.104-.366-.228-.543-.358-.505-.693-1.025-1.051-1.563l-.251-.162c-.636-.927-1.097-1.971-1.672-2.974-.312-.074-.534-.291-.737-.529-.161-.189-.315-.384-.47-.578-.17-.21-.319-.438-.508-.627a6.119 6.119 0 0 1-.75-.91 2.016 2.016 0 0 0-.675-.631c-.125-.072-.266-.135-.361-.238-.218-.232-.492-.374-.743-.548-.12-.144-.246-.29-.403-.386-.429-.261-.777-.619-1.151-.944a3.916 3.916 0 0 0-1.933-.936c-.183-.032-.365-.077-.546-.121-.581-.142-1.157-.316-1.764-.324-.1-.001-.199-.055-.3-.077a2.141 2.141 0 0 0-.987-.01c-.097.137-.19.268-.279.391h-.213c-.09-.081-.18-.162-.275-.25-.086.016-.166.03-.247.043a1.867 1.867 0 0 0-1.078.57c-.317.326-.675.614-1.01.922-.089.082-.164.18-.217.239-.066.292.095.537-.022.82l-.375.333c-.27.591-.311 1.142-.262 1.706.004.04-.011.081-.022.145l-.25.568c.207.805.319 1.573.022 2.34a6.89 6.89 0 0 1 .517 1.666c.077.447.098.91.28 1.336.015.036.007.082.011.158-.05.144-.113.318-.183.515.055.123.098.262.173.382.234.376.367.787.454 1.216.044.224.09.447.129.638l.327.553c.026.178.02.354.08.502.155.384.184.811.405 1.172.03.05.043.117.045.177.023.493.215.919.494 1.319.092.132.163.292.2.45a6.11 6.11 0 0 0 .594 1.562c.07.127.146.257.18.396.07.287.209.54.359.788.26.426.465.878.671 1.33.12.263.274.512.421.761.17.286.35.565.433.892.053.206.166.378.303.536.081.094.172.18.245.281.477.654.853 1.372 1.291 2.05.062.25.23.439.37.642.176.253.429.451.532.756.261.249.38.59.58.877.2.289.392.584.58.88.142.228.257.475.41.696.378.55.677 1.139.93 1.754.055.135.1.28.184.394.281.386.44.846.751 1.214a.89.89 0 0 1 .13.212c.178.4.434.753.655 1.127.306.517.631 1.021.933 1.54.31.535.715 1.014 1.078 1.517.012.017.03.03.045.043.232.185.387.43.535.681.031.054.069.103.098.145.155.123.3.238.368.29l.836 1.15c.579.396 1.324 1.026 2.135 1.802l.41.164.452-.036c.075.313.177.6.045.911-.074.174-.148.343-.098.483.122.24.377.269.457.453-.006.12-.087.14-.157.17-.04.198-.143.386-.094.68.038.294.332.515.537.78l.483.225c.12.291.068.635.441.769a6.661 6.661 0 0 0 1.16-.404l.519.289c.187-.024.242-.163.318-.287.027-.044.092-.065.138-.095l.295.2h.589c.142-.068.285-.16.441-.207.185-.056.332-.16.492-.301.416.028.772-.198 1.141-.343l.39-.52c.264-.057.527-.11.787-.175.055-.013.1-.066.152-.102l.084-.451c.127-.214.304-.43.312-.714.008-.294.086-.571.162-.852.037-.136.024-.285.038-.429.008-.08.026-.16.04-.241.166-.165.386-.247.522-.442.2-.288.446-.546.662-.823.164-.213.319-.433.469-.657.228-.34.433-.7.679-1.03.272-.364.529-.74.804-1.099.383-.498.7-1.025.92-1.621.408-.3.708-.68.865-1.176.08-.255.219-.49.331-.736l.38-.453-.073-.286c.23-.48.434-.975.62-1.482.149-.405.363-.785.48-1.209.064-.235.2-.452.306-.676.15-.317.258-.654.475-.94a.98.98 0 0 0 .202-.645l-.221-.234c.03-.133.043-.28.097-.41.207-.497.44-.981.63-1.485.087-.232.21-.448.248-.699.013-.085.074-.143.184-.16.03.038.098.081.1.127.004.143-.017.287-.028.43-.013.177-.06.355.006.55.377-.498.46-.66.597-1.092.062-.197.131-.393.214-.583.323-.74.67-1.47.977-2.216.267-.651.497-1.317.802-1.953.097-.204.15-.43.233-.64.214-.54.364-1.1.615-1.627a9.1 9.1 0 0 0 .456-1.084c.16-.49.382-.96.53-1.457.04-.137.11-.267.167-.4.033-.076.097-.147.102-.224.023-.424.28-.767.376-1.15l.228-.128c.114-.273.228-.54.333-.809.014-.035-.02-.088-.05-.196-.109.205-.18.353-.265.492-.02.033-.087.038-.156.066.025-.368.11-.688.217-.997.234-.67.37-1.358.397-2 .08-.217.164-.367.189-.526.068-.428.121-.858.198-1.286.102-.57.11-1.154.236-1.722a.53.53 0 0 0 .01-.185c-.069-.472.035-.946.01-1.42Zm-5.084 7.21c.07.167-.018.285-.095.41-.146.102-.294.118-.46-.014-.01-.218.03-.37.165-.499.13.034.263.07.39.102Zm-.342 1.766c-.034.137-.052.287-.24.378-.114-.244.01-.387.126-.533.13-.014.136.07.114.155Zm-.23-4.119c.14.16.137.269.036.374-.14-.085-.14-.085-.035-.374Zm-.364 1.441c.006.038.014.074.016.112 0 .008-.024.018-.037.026-.024-.05-.045-.1.021-.138Zm-5.46-12.358.224.021-.001.05-.223.01v-.081Zm.274 1.307h-.357c.074-.18.074-.18.357 0Zm-2.807-.95c.033.002.064.038.095.059-.034.042-.061.106-.105.12-.08.027-.152-.004-.192-.154.09-.013.147-.03.203-.025Zm-.97 1.895c.12-.114.242-.226.424-.394.506-.336 1.15-.55 1.832-.644.182-.026.373-.046.541.066.057.12.007.199-.111.27-.144.008-.31-.004-.468.03-.16.034-.31.113-.465.173-.02.007-.038.016-.058.021a3.584 3.584 0 0 0-1.385.676 1.013 1.013 0 0 1-.516.196c-.034.004-.073-.027-.116-.043.03-.188.208-.242.323-.351Zm-.7.715c.077.025.166.03.192.166-.038.038-.091.09-.13.126-.138-.013-.144-.107-.177-.178l-.611.018-.735.78c-.046-.056-.079-.095-.106-.13.244-.46.662-.735.994-1.122.225.073.385.233.574.34Zm-.369.98-.292.207-.153-.088c.036-.194.084-.364.302-.445.04.028.112.052.127.096.024.07.014.153.016.23Zm-.825-2.993.048.203-.122.063c-.102-.127.013-.189.074-.266Zm-2.185 3.467c.053-.11.137-.205.207-.307l.401-.585.194-.715c.147-.13.292-.28.458-.399.15-.108.324-.182.529-.295l.327-.583c.148-.136.335-.256.551-.325.027.057.064.096.057.125-.012.058-.032.133-.076.163-.605.427-.979 1.06-1.416 1.549l-.548 1.184-1.056 1.263c-.142.001-.164-.08-.14-.164a.697.697 0 0 1 .125-.279c.172-.188.28-.407.387-.632Zm-.278 2.365c-.07.01-.093.02-.106.014-.015-.01-.034-.034-.032-.05.038-.28.073-.56.122-.837.013-.077.066-.148.185-.141.1.376-.164.678-.17 1.014Zm-.175-2.867.115-.33.148.07c.097.148.067.289-.01.417-.07.119-.142.255-.321.24-.113-.157.022-.27.068-.397Zm-.19 3.756c.002-.011.04-.028.049-.023.028.02.075.06.07.071-.022.045-.06.083-.144.186.013-.132.015-.184.025-.234Zm-.356-2.684c.028.14.028.14-.14.213-.018-.156-.018-.156.14-.213Zm-.4 3.936.362-.53.116.048c-.08.474-.08.474-.37.835-.137-.115-.125-.217-.108-.353Zm-.405-2.25c0-.002 0-.002 0 0Zm-3.53 9.342c.038-.01.075-.022.114-.026.017-.003.036.012.081.03.097.276-.01.535-.112.804l-.175.01c-.056-.52-.056-.52.092-.818Zm-.43-2.84c.18.106.18.106.106.308-.166-.079-.166-.079-.106-.309Zm-.755-1.59c.176.012.226.168.346.292.013.095.026.218.046.339.017.099.04.196.06.284l-.144.092-.302-.478c.004-.207-.08-.366-.006-.53Zm-.157-.574c.012.003.018.032.028.048-.012.014-.022.037-.034.038-.016.002-.043-.01-.048-.024-.02-.047.002-.073.054-.062ZM5.234 2.172c-.04-.007-.064-.005-.08-.015-.084-.05-.092-.125-.056-.242.185-.143.353-.355.645-.436l.184.201a2.142 2.142 0 0 1-.693.492Zm6.434 23.501c-.015.001-.03-.015-.045-.024l.05-.06.024.047c-.01.013-.02.037-.03.037Zm2.995 5.556c-.128.026-.177-.026-.16-.19.117.056.175.096.16.19Zm7.904 14.777v-.033l.036.017-.036.016Zm1.77-2.204.044-.285.315-.096c.02.08.057.142.04.18-.06.138-.156.242-.398.201Zm.72 1.004c-.033.05-.082.09-.144.156v.448c-.107-.03-.153-.03-.18-.053-.138-.11-.157-.279-.21-.433.045-.205.138-.379.253-.527.196 0 .283.105.35.258-.02.045-.036.103-.069.15Zm2.36-5.72c-.23.461-.303.981-.548 1.455-.155.194-.31.413-.494.606a2.67 2.67 0 0 1-.518.436c-.253.156-.436.375-.643.611l-.299.721-.204.03-.029-.402c.276-.298.36-.723.643-1.03.112-.122.215-.252.318-.38.155-.194.316-.385.396-.625.104-.308.319-.537.558-.73.228-.183.438-.372.61-.608.055-.075.145-.122.222-.18 0 .034.001.068-.012.096Zm1.256 2.708a4.403 4.403 0 0 0-.09-.134c.035-.175.145-.24.299-.248.136.024.212.1.214.24-.103.156-.246.188-.423.142Zm.2.263-.064.065c-.017-.025-.037-.05-.05-.077-.003-.007.027-.038.033-.036.029.012.054.031.08.048Zm.467.281c-.09.16-.198.309-.296.46l.129.401-.157.166-.252-.07c-.142-.16-.17-.314-.111-.526.042-.047.113-.12.175-.2.076-.094.157-.188.213-.294.047-.09.064-.196.213-.23.133.096.138.2.086.293Zm1.797-.753c-.058.153-.113.31-.189.456-.056.108-.143.199-.215.295l-.601.038c-.13-.082-.162-.195-.153-.343.047-.19.264-.287.317-.502.044-.175.164-.33.284-.556l.157-.699c.163-.138.163-.138.338-.097l-.15.322c.153.134.319-.075.488.04-.09.344-.147.703-.276 1.046Zm-.804-3.123c.068-.312.281-.537.498-.813l.145.077c-.057.364-.358.573-.532.846-.107.01-.124-.05-.11-.11Zm.833.872c-.131-.141-.04-.246.023-.391.106-.075.237-.171.374-.26.027-.017.073-.002.11-.002.01.016.032.04.027.05-.067.148-.138.294-.206.436l-.328.167Zm-.09-2.104v-.483c.105-.156.212-.245.384-.267.018.049.061.103.055.151-.03.237-.167.407-.44.6Zm1.612 1.632c-.104.127-.235.233-.33.366-.082.116-.13.256-.188.373-.161.121-.315.212-.51.19.082-.111.188-.215.23-.34a1.46 1.46 0 0 1 .507-.697c.107-.301.167-.642.51-.79.026.018.055.029.055.04.003.315-.073.609-.274.858Zm.048-3.346c.094.11.066.22-.017.35-.04-.04-.097-.071-.108-.114-.021-.09-.011-.093.125-.236Zm1.1 1.633c-.13-.237-.12-.257.105-.323.114.128.016.206-.105.323Zm1.525-2.203c-.033.023-.064.054-.102.066-.036.012-.078.006-.117.008-.103-.063-.091-.172-.114-.268l.184-.202c.214.116.213.116.149.396Zm-.68-3.578a.43.43 0 0 1 .078-.26.376.376 0 0 1-.078.26Zm.457-.757c-.079.186-.189.353-.367.46l.074-.526c.05-.092.087-.194.219-.194.118.06.115.166.074.26Zm1.4-2.17c-.038.136-.101.313-.135.494-.066.347-.13.693-.255 1.024-.022.058-.048.12-.047.18 0 .505-.216.962-.32 1.484l.132.31c-.016.512-.28.987-.28 1.525l.314.135c.102.258-.038.456-.187.684l-.444-.331c-.143-.36-.022-.712-.038-1.061-.015-.331-.038-.66-.06-1.031.148-.28.24-.618.304-.965.064-.34.052-.658-.137-.958-.043-.068-.067-.149-.085-.19.027-.38.373-.45.541-.647-.021-.181-.184-.088-.183-.086-.18-.237-.181-.38-.023-.52h.378l.079-.432c-.033-.22-.261-.385-.217-.629.041-.221.11-.437.168-.662-.062-.105-.13-.037-.194.007-.017.012-.037.027-.043.045-.154.471-.499.854-.612 1.345-.033.14-.108.27-.14.41-.109.474-.408.808-.79 1.076-.192.135-.357.281-.409.443 0 .232.008.395-.002.557-.01.141-.039.282-.056.397.156.198.348-.035.415.038.168.136.152.236.134.341-.013.078-.025.165.095.22l.22-.22c-.029.155.04.294.081.406-.151.508-.294.98-.43 1.454-.016.055.007.122.012.188l.162.13.335-.242c.146.476.3.922.196 1.402-.373.453-.79.865-1.196 1.275-.17-.049-.075-.177-.127-.283l-.237-.126c-.101-.176-.057-.357-.023-.604l.446-.397-.33.063c-.233-.165-.197-.473-.343-.69-.174.108-.16.291-.224.433-.015.213.184.376.138.596-.102.167-.297.118-.425.178l-.352.258-.205-.06-.143-.42c-.225.01-.402.11-.605.21-.115.226-.25.459-.355.704-.222.517-.526.985-.848 1.443-.154.218-.32.424-.432.676-.08.181-.251.323-.379.48l-.14.449c-.072.015-.115.037-.15.03-.136-.03-.246-.147-.398-.121l-.105.386c.04.135.124.18.231.207a.912.912 0 0 1 .284.108c.06.04.087.127.113.17-.046.208-.235.204-.326.318-.102.13-.234.234-.345.357-.097.107-.179.228-.276.335-.082.09-.175.17-.327.136a2.48 2.48 0 0 1 .05-.862c-.118-.059-.135.067-.2.09-.049.017-.108.003-.154.003-.066-.141.055-.202.1-.327v-.357l.26-.394-.276-.208.086-.386.434-.53c.084-.244.097-.467.09-.672-.111-.082-.178-.034-.25.016a6.857 6.857 0 0 1-1.853 2.377l-.314.052-.686.762-.378.752c-.192.22-.433.443-.758.475l-.419.48c-.255-.006-.407-.153-.575-.273-.064-.105-.13-.21-.19-.311-.037-.032-.066-.063-.1-.085a3.895 3.895 0 0 1-.778-.709c-.35-.408-.748-.776-1.107-1.178-.332-.37-.632-.766-.96-1.14a15.44 15.44 0 0 1-.947-1.23c-.165-.23-.412-.403-.63-.592-.409-.495-.726-1.045-.999-1.627-.148-.317-.37-.598-.562-.892-.045-.07-.108-.127-.153-.196-.306-.467-.617-.93-.908-1.406-.215-.35-.411-.713-.6-1.079-.239-.46-.491-.91-.838-1.319l-.1-.443c-.113-.243-.307-.372-.476-.529l-.328-.552c-.007-.297-.12-.577-.303-.841-.164-.238-.3-.497-.439-.751-.08-.145-.177-.294-.202-.45-.06-.367-.269-.645-.472-.933-.191-.27-.38-.543-.552-.825-.28-.46-.547-.928-.888-1.35a1.626 1.626 0 0 1-.179-.253c-.424-.804-.86-1.603-1.26-2.42-.108-.222-.206-.447-.354-.647-.026-.515-.254-.962-.433-1.424l-.445-1.16c-.06-.155-.122-.308-.181-.462-.06-.154-.133-.304-.176-.463-.126-.465-.344-.891-.585-1.3a3.235 3.235 0 0 1-.465-1.426l-.323-.68.112-.766c-.09-.27-.189-.585-.298-.898-.11-.31-.378-.55-.413-.916l.168-.363c-.039-.35-.088-.74-.123-1.132a2.814 2.814 0 0 1-.008-.556c.068-.617.151-1.234.23-1.85.032-.246.068-.493.1-.734.27-.887.674-1.693 1.335-2.341.204-.137.431-.182.653-.226.348-.07.702-.087 1.042.049.288.115.588.213.856.365a8.99 8.99 0 0 1 1.61 1.16 18.756 18.756 0 0 1 1.604 1.649c.23.266.467.528.722.771.287.274.538.574.782.884.14.178.296.345.441.52.106.128.21.257.306.392.298.424.6.845.886 1.278.262.397.502.808.758 1.209.156.244.31.49.49.716.248.309.461.635.65.984.235.436.43.899.695 1.2.23.482.408.879.607 1.265.083.164.193.32.319.456.17.186.298.399.412.618.231.44.452.886.675 1.33.038.074.075.148.106.225.238.581.237.585.009 1.222l.316.735c.186.992.33 2.08.255 3.158l.25.43-.084.435.189.339v.5c.213.118.367-.105.56-.048.026.016.073.03.092.06.098.159.188.322.287.493l.363.219.153.423.243.08.254-.175c.04-.003.083-.016.121-.007.2.042.4.09.593.135l.298-.255.543-.216c.16-.183-.079-.343.048-.515.04-.004.107-.03.152-.01a.426.426 0 0 1 .188.149c.051.086.076.19.096.29a.65.65 0 0 0 .295.421c.36.023.74.17 1.166.018l.234-.385-.028-.462.315.02.26-.14h.591c.234-.116.385-.252.515-.464-.015-.072-.033-.168-.052-.268l-.383-.13c-.037-.057-.102-.121-.123-.196a2.538 2.538 0 0 0-.412-.83 2.055 2.055 0 0 1-.23-.439c-.32-.788-.636-1.576-.943-2.368a15.16 15.16 0 0 1-.43-1.232c-.087-.296-.118-.608-.188-.987-.316-.354-.521-.835-.622-1.38-.162-.875-.382-1.739-.543-2.614-.055-.3-.128-.607-.083-.922.034-.236-.054-.448-.185-.644a.534.534 0 0 1-.07-.49l.23.054c.12-.326.232-.65.248-1.008.008-.181.083-.36.134-.54.095-.338.3-.64.315-1.003.22-.283.192-.677.428-.953.045-.331.28-.586.358-.912.05-.21.213-.394.34-.615l-.03-.271.378-.098.37-.738c.177-.036.222.066.242.166a.825.825 0 0 1-.07.546c-.047.091-.098.18-.134.246-.026.154-.013.269.055.366.148-.009.2-.108.244-.196.17-.339.237-.703.26-1.068a51.24 51.24 0 0 1-.171-.216c.008-.422.363-.602.608-.91.063.09.12.134.12.18.003.143-.016.287-.028.43-.01.1-.023.202-.031.278.09.14.18.134.277.074.144-.255.282-.507.425-.756a.921.921 0 0 0 .113-.525l.553-.155.462-.404.202-.356c.364-.243.723-.489 1.088-.722.156-.1.32-.197.494-.257.509-.176 1.023-.327 1.573-.334.519-.006 1.034-.016 1.55.072.591.102 1.19.16 1.773.317.32.087.64.17.94.315.185.09.39.136.677.232l.343.273c.032.082.06.138.074.197.117.49.1.991.08 1.487-.028.724-.087 1.447-.13 2.17-.035.62-.109 1.236-.25 1.87l.121.448-.21.876c.04.137.103.29.129.45.023.141.004.289.004.39.087.17.152.297.223.439l-.219.315.15.195c.098.313.12.634 0 .963-.04.112-.035.243-.05.365-.022.164-.023.334-.071.49-.09.292-.087.57.082.844-.13.358-.187.723-.144 1.113-.276.518-.267 1.111-.396 1.722l-.592 1.476c-.06.519-.078 1.133-.162 1.753.088-.134.182-.266.262-.406.153-.269.297-.543.453-.828l-.19-.586c-.02-.38.166-.68.371-.99l.324-.124c.267-.244.279-.6.42-.902l.415-.374c.045-.18.076-.365.138-.539.047-.135.123-.268.312-.243.124.158.073.348-.006.467-.177.268-.244.572-.342.863-.075.22-.164.422-.303.548-.084.223.137.415-.067.573l.187.322c-.016.177-.249.257-.16.473l.275.124.025.179-.4.194c-.116.225.017.352.094.492-.014.039-.018.083-.043.111-.15.18-.23.387-.276.616-.106.53-.29 1.036-.491 1.535-.03.073-.087.135-.147.225-.054-.058-.109-.092-.127-.14-.048-.129.046-.297-.109-.399-.212.47-.304.98-.524 1.516-.32.403-.566.926-.834 1.437-.008.015.002.04.006.092l.321.229c.097.133.094.28.059.42-.143.566-.373 1.099-.633 1.617-.073.144-.203.26-.336.428Zm1.562.073.023-.369c.004-.091-.096-.189.062-.314.078.504.076.504-.085.683Zm1.037-1.728c-.123-.12-.087-.19.131-.322l-.13.322Zm.5-2.818-.554.503c-.119.527-.255 1.026-.338 1.534-.048.289-.166.504-.356.633-.113.233-.21.415-.292.605-.181.419-.34.845-.322 1.314.005.165-.003.332-.025.496-.016.12-.065.234-.09.322-.174.139-.332.136-.497.081a.503.503 0 0 1-.208-.49c.047-.412.084-.827.336-1.182a.966.966 0 0 0 .199-.45.26.26 0 0 1 .032-.119c.305-.405.398-.904.605-1.35.146-.317.355-.604.547-.898.142-.3.227-.612.26-.949.04-.433.148-.857.392-1.231a.808.808 0 0 0 .106-.224c.154-.582.425-1.117.663-1.665.09-.206.136-.433.2-.647l.221-.177c.1-.255.2-.48.279-.713.06-.176.09-.361.144-.539.054-.177.112-.354.186-.523a.374.374 0 0 1 .272-.217c.013.205-.03.395-.109.588a5.486 5.486 0 0 0-.25.764c-.039.157-.029.326-.042.513l-.23.247-.17.819c-.247.422-.407.884-.43 1.3l-.53 1.655Zm.96.663c-.06-.157-.047-.246.026-.328.09.092.09.092-.025.328Zm.566-2.982-.028.604c-.07.169-.142.315-.328.377l-.18-.077-.095-.401c.107-.122.2-.229.306-.348.069-.348.088-.729.337-1.032.121-.038.193.017.248.155-.001.23-.187.425-.26.722Zm.146-1.388c-.04-.201-.043-.374.153-.497.019.196.015.194-.153.497Zm.096-2.208a.367.367 0 0 1 .08-.255.425.425 0 0 1-.08.255Zm.723-1.817a4.752 4.752 0 0 1-.62 1.49c.12-.671.242-1.342.427-2 .076-.275.154-.549.247-.878.066.084.127.128.122.163-.051.41-.09.822-.176 1.225Z"/><path fill="#8A8A8A" d="m28.677 38.854.01-.002.002-.01-.012.012Zm-6.843 6.527-.015.141.265.018c-.051-.1-.101-.203-.25-.159Zm.251.159.008.016a.26.26 0 0 1 .012-.005l.002-.01-.022-.002Zm5.601-42.913.13-.125-.014-.014-.128.125-.121.127.008.014c.002 0 .003-.002.003-.002l.122-.125Zm8.464 18.06c-.153.13-.308.265-.454.39-.077.229-.124.456-.228.655-.145.28-.259.563-.326.87-.031.14-.088.276-.144.41-.135.325-.278.647-.422.98-.039.275-.016.572-.18.869-.132.138-.29.301-.441.46l-.186.904-.384.362-.103.58c-.128.175-.255.315-.343.477-.254.473-.495.952-.846 1.365-.121.142-.216.302-.216.488.02.03.027.055.043.061.09.036.18.069.272.103l-.433.737.048.693c.184-.15.202-.39.313-.59.164-.2.353-.393.45-.653.18-.485.375-.965.556-1.45.074-.2.178-.371.345-.505.08-.064.152-.138.228-.207.117-.363.177-.73.205-1.1.105-.205.212-.397.255-.63.047-.26.164-.512.277-.755.14-.3.266-.604.38-.915.114-.307.32-.579.416-.9.102-.336.206-.672.315-1.007.09-.274.187-.545.291-.844.123-.205.267-.432.396-.668.033-.061.05-.162-.085-.18Zm-3.947 8.92c0-.002 0-.002 0 0Zm.001.015.005-.016-.005.016Zm-.396 1.493-.002-.025c-.005.004-.008.008-.012.01l.014.015Zm2.759-4.173.01-.006-.003-.048-.005.035-.002.02Z"/><path fill="#8A8A8A" d="M34.182 27.474a2.149 2.149 0 0 1-.291.606c-.177.49-.295.866-.45 1.227-.218.513-.462 1.016-.698 1.521-.307.654-.673 1.286-.762 2.02-.003.028.033.06.051.091.156-.071.119-.255.211-.36.108-.125.221-.243.359-.392l.152-.75c.17-.361.369-.706.494-1.076.09-.264.237-.478.39-.69.075-.448.324-.814.494-1.212.207-.488.397-.981.436-1.517-.211.117-.321.318-.386.532Zm2.508-4.141a.56.56 0 0 0 .275.424c.086.055.188.091.307.016.128-.114.088-.294.13-.45.044-.159.104-.314.147-.443l.326-.409c-.022-.197.059-.383-.07-.544-.03-.003-.055-.014-.068-.006-.218.146-.418.32-.672.412-.067.024-.11.12-.146.162l-.229.838Zm-8.04 13.388.234.364c.044-.023.1-.034.106-.059.027-.098.05-.2.053-.302.01-.242.083-.444.296-.582.028-.018.031-.072.046-.11l-.114-.066c-.215.238-.445.47-.62.755Zm8.292-17.911c-.02.004-.048 0-.059.012-.122.136-.241.275-.362.413-.108.442-.11.442-.016.636.061-.062.138-.109.169-.176.116-.26.22-.525.322-.79.008-.023-.035-.063-.054-.095Zm-6.199 16.386-.356.392c-.043.31-.04.31.043.519.062-.066.118-.12.167-.18.102-.126.2-.256.275-.352.021-.15.024-.251-.129-.379Zm3.905-1.28c-.073-.119-.16-.11-.223-.056a1.508 1.508 0 0 0-.498.736l.27-.044c.23-.18.403-.374.451-.636Zm-.721.681a1.42 1.42 0 0 1-.022.003l-.027.025.043-.008a.185.185 0 0 0 .006-.02Zm-.014.012Zm-4.081.402a.655.655 0 0 0-.094.223c-.017.088.02.157.15.16.038-.055.1-.114.126-.186.108-.303.173-.617.21-1.018-.08.11-.132.152-.142.202a1.686 1.686 0 0 1-.25.619Zm7.068-8.734c-.256.432-.256.432-.13.666l.177-.032c.12-.205.095-.367.061-.526-.008-.04-.068-.07-.109-.108Zm-7.874 11.496c-.036-.01-.08.003-.123.007a.44.44 0 0 0-.195.425c.005.051.06.097.094.148l.18-.041a.585.585 0 0 0 .14-.466c-.033-.026-.06-.062-.096-.073Zm4.109-4.598c.027.095.095.12.21.103.18-.093.248-.27.258-.481-.23-.062-.242-.053-.468.378Zm5.092-17.401c-.295.169-.295.169-.318.35.265-.003.27-.007.318-.35Zm-4.219 17.157c-.148-.002-.228.07-.238.22.206.078.258.03.238-.22Zm-1.368-.242.097.106c.124-.078.194-.16.115-.293-.12-.004-.17.074-.212.187Zm1.552-.706c-.156.029-.252.122-.312.358.334-.2.334-.2.312-.358Zm-8.085 7.259c.212-.086.212-.086.177-.242-.132-.012-.183.056-.177.242Zm5.243-7.239c-.009.02.025.059.044.086.003.004.043-.008.049-.02.024-.05.043-.101.063-.152l-.068-.047c-.03.044-.07.084-.089.133Zm7.106-17.262-.212.15.228.075-.016-.225Zm-.228.148-.003-.004.005.037-.002.013.002-.013.003.02-.002-.02.003-.024.01-.007-.019-.006.003.004Zm.423 7.139-.142.185c.044-.023.089-.044.127-.074.016-.011.009-.054.015-.111Zm-.166.215.024-.03-.033.017.005.008-.005-.008a.278.278 0 0 1 .005.024.119.119 0 0 0 .004-.01Zm-.003.441-.003.018h.001l.005-.01a.03.03 0 0 0-.003-.008Zm.001-.431a.639.639 0 0 0-.001.431.904.904 0 0 0 0-.43Zm-7.936 11.604-.002-.051-.041.034.043.017Zm-.034-1.697-.032.01.019.038.013-.048Zm4.061-5.272.025-.168-.035-.002.01.17Zm3.653-11.953c-.002.013-.002.017 0 0Zm.006.006c0 .006 0 .005 0 0ZM23.572 41.578l.002-.02.07-.028-.076.013.004.035Zm13.707-23.421-.012.023.02-.013-.008-.01Z"/></svg>