<svg width="466" height="40" viewBox="0 0 466 40" fill="none" xmlns="http://www.w3.org/2000/svg">
<g clip-path="url(#clip0_9520_35)">
<path d="M37.0793 32.3189L37.3008 5.78538C37.3008 2.14744 34.5666 0.391892 32.0809 0.391892C29.1479 0.237325 27.6068 2.33342 26.8611 4.24275L16.3432 34.4339L21.9453 6.31773C22.6913 2.71199 20.3911 0.355864 16.7592 0.355864C12.7047 0.330181 7.88006 0.391892 5.09559 0.391892C5.09559 0.391892 3.1692 0.473945 1.61567 1.90381C-0.0201661 3.40943 0.0132063 5.37113 0.0132063 5.37113C-0.0444437 8.2015 0.105323 19.858 0.105323 19.858C0.105323 32.3189 7.2115 36.3198 12.4261 37.0997C15.411 37.5461 17.5399 36.2442 18.7967 34.4339L35.9337 9.19506C32.9302 16.4484 27.234 29.7288 26.9504 30.4043C25.3075 34.6324 28.8146 37.6504 31.8595 37.6504C35.6851 37.6504 37.1001 34.0961 37.0793 32.3189Z" fill="black"/>
<path d="M58.5824 5.81818H64.3864L72.1591 24.7898H72.4659L80.2386 5.81818H86.0426V32H81.4915V14.0128H81.2486L74.0128 31.9233H70.6122L63.3764 13.9744H63.1335V32H58.5824V5.81818ZM95.2134 32.3963C93.9691 32.3963 92.8484 32.1747 91.8512 31.7315C90.8626 31.2798 90.0785 30.6151 89.4989 29.7372C88.9279 28.8594 88.6424 27.777 88.6424 26.4901C88.6424 25.3821 88.8469 24.4659 89.256 23.7415C89.6651 23.017 90.2234 22.4375 90.9307 22.0028C91.6381 21.5682 92.435 21.2401 93.3214 21.0185C94.2162 20.7884 95.141 20.6222 96.0955 20.5199C97.2461 20.4006 98.1793 20.294 98.8952 20.2003C99.6111 20.098 100.131 19.9446 100.455 19.7401C100.787 19.527 100.953 19.1989 100.953 18.7557V18.679C100.953 17.7159 100.668 16.9702 100.097 16.4418C99.5259 15.9134 98.7035 15.6491 97.6296 15.6491C96.4961 15.6491 95.5969 15.8963 94.9322 16.3906C94.2759 16.8849 93.8327 17.4687 93.6026 18.142L89.2816 17.5284C89.6225 16.3352 90.185 15.3381 90.9691 14.5369C91.7532 13.7273 92.712 13.1222 93.8455 12.7216C94.979 12.3125 96.2319 12.108 97.604 12.108C98.5501 12.108 99.4918 12.2188 100.429 12.4403C101.367 12.6619 102.223 13.0284 102.999 13.5398C103.774 14.0426 104.397 14.7287 104.865 15.598C105.343 16.4673 105.581 17.554 105.581 18.858V32H101.132V29.3026H100.979C100.698 29.848 100.301 30.3594 99.7901 30.8366C99.2873 31.3054 98.6523 31.6847 97.8853 31.9744C97.1268 32.2557 96.2361 32.3963 95.2134 32.3963ZM96.4151 28.9957C97.3441 28.9957 98.1495 28.8125 98.8313 28.446C99.5131 28.071 100.037 27.5767 100.404 26.9631C100.779 26.3494 100.966 25.6804 100.966 24.956V22.642C100.821 22.7614 100.574 22.8722 100.225 22.9744C99.8839 23.0767 99.5003 23.1662 99.0742 23.2429C98.6481 23.3196 98.2262 23.3878 97.8086 23.4474C97.391 23.5071 97.0287 23.5582 96.7219 23.6009C96.0316 23.6946 95.4137 23.848 94.8682 24.0611C94.3228 24.2741 93.8924 24.5724 93.577 24.956C93.2617 25.331 93.104 25.8168 93.104 26.4134C93.104 27.2656 93.4151 27.9091 94.0373 28.3438C94.6594 28.7784 95.452 28.9957 96.4151 28.9957ZM116.082 32.3452C114.539 32.3452 113.158 31.9489 111.94 31.1562C110.721 30.3636 109.758 29.2131 109.05 27.7045C108.343 26.196 107.989 24.3636 107.989 22.2074C107.989 20.0256 108.347 18.1847 109.063 16.6847C109.788 15.1761 110.763 14.0384 111.991 13.2713C113.218 12.4957 114.586 12.108 116.094 12.108C117.245 12.108 118.191 12.304 118.932 12.696C119.674 13.0795 120.262 13.544 120.697 14.0895C121.131 14.6264 121.468 15.1335 121.707 15.6108H121.898V5.81818H126.539V32H121.988V28.9062H121.707C121.468 29.3835 121.123 29.8906 120.671 30.4276C120.219 30.956 119.623 31.4077 118.881 31.7827C118.14 32.1577 117.207 32.3452 116.082 32.3452ZM117.373 28.5483C118.353 28.5483 119.188 28.2841 119.879 27.7557C120.569 27.2187 121.093 26.473 121.451 25.5185C121.809 24.5639 121.988 23.4517 121.988 22.1818C121.988 20.9119 121.809 19.8082 121.451 18.8707C121.102 17.9332 120.582 17.2045 119.891 16.6847C119.209 16.1648 118.37 15.9048 117.373 15.9048C116.342 15.9048 115.481 16.1733 114.79 16.7102C114.1 17.2472 113.58 17.9886 113.231 18.9347C112.881 19.8807 112.707 20.9631 112.707 22.1818C112.707 23.4091 112.881 24.5043 113.231 25.4673C113.589 26.4219 114.113 27.1761 114.803 27.7301C115.502 28.2756 116.359 28.5483 117.373 28.5483ZM138.724 32.3835C136.755 32.3835 135.055 31.9744 133.623 31.1562C132.2 30.3295 131.104 29.1619 130.337 27.6534C129.57 26.1364 129.187 24.3509 129.187 22.2969C129.187 20.277 129.57 18.5043 130.337 16.9787C131.113 15.4446 132.195 14.2514 133.584 13.3991C134.974 12.5384 136.606 12.108 138.481 12.108C139.691 12.108 140.833 12.304 141.907 12.696C142.989 13.0795 143.944 13.6761 144.771 14.4858C145.606 15.2955 146.262 16.3267 146.739 17.5795C147.217 18.8239 147.455 20.3068 147.455 22.0284V23.4474H131.36V20.3281H143.019C143.011 19.4418 142.819 18.6534 142.444 17.9631C142.069 17.2642 141.545 16.7145 140.871 16.3139C140.207 15.9134 139.431 15.7131 138.545 15.7131C137.599 15.7131 136.768 15.9432 136.052 16.4034C135.336 16.8551 134.778 17.4517 134.377 18.1932C133.985 18.9261 133.785 19.7315 133.776 20.6094V23.3324C133.776 24.4744 133.985 25.4545 134.403 26.2727C134.82 27.0824 135.404 27.7045 136.154 28.1392C136.904 28.5653 137.782 28.7784 138.788 28.7784C139.461 28.7784 140.07 28.6847 140.616 28.4972C141.161 28.3011 141.634 28.0156 142.035 27.6406C142.435 27.2656 142.738 26.8011 142.942 26.2472L147.263 26.733C146.991 27.875 146.471 28.8722 145.704 29.7244C144.945 30.5682 143.974 31.2244 142.789 31.6932C141.604 32.1534 140.249 32.3835 138.724 32.3835ZM161.473 32L155.924 12.3636H160.642L164.093 26.1705H164.272L167.801 12.3636H172.467L175.995 26.0938H176.187L179.588 12.3636H184.318L178.757 32H173.937L170.255 18.7301H169.987L166.305 32H161.473ZM186.109 32V12.3636H190.737V32H186.109ZM188.436 9.5767C187.703 9.5767 187.072 9.33381 186.544 8.84801C186.015 8.35369 185.751 7.76136 185.751 7.07102C185.751 6.37216 186.015 5.77983 186.544 5.29403C187.072 4.79971 187.703 4.55256 188.436 4.55256C189.177 4.55256 189.808 4.79971 190.328 5.29403C190.856 5.77983 191.12 6.37216 191.12 7.07102C191.12 7.76136 190.856 8.35369 190.328 8.84801C189.808 9.33381 189.177 9.5767 188.436 9.5767ZM203.861 12.3636V15.9432H192.573V12.3636H203.861ZM195.36 7.65909H199.987V26.0938C199.987 26.7159 200.081 27.1932 200.269 27.5256C200.465 27.8494 200.72 28.071 201.036 28.1903C201.351 28.3097 201.701 28.3693 202.084 28.3693C202.374 28.3693 202.638 28.348 202.877 28.3054C203.124 28.2628 203.311 28.2244 203.439 28.1903L204.219 31.8082C203.972 31.8935 203.618 31.9872 203.158 32.0895C202.706 32.1918 202.152 32.2514 201.496 32.2685C200.337 32.3026 199.293 32.1278 198.364 31.7443C197.435 31.3523 196.698 30.7472 196.152 29.929C195.615 29.1108 195.351 28.0881 195.36 26.8608V7.65909ZM211.341 20.4943V32H206.713V5.81818H211.239V15.7003H211.469C211.929 14.5923 212.641 13.7187 213.604 13.0795C214.576 12.4318 215.811 12.108 217.311 12.108C218.675 12.108 219.864 12.3935 220.878 12.9645C221.892 13.5355 222.676 14.3707 223.23 15.4702C223.793 16.5696 224.074 17.9119 224.074 19.4972V32H219.446V20.2131C219.446 18.892 219.105 17.8651 218.424 17.1321C217.75 16.3906 216.804 16.0199 215.585 16.0199C214.767 16.0199 214.034 16.1989 213.387 16.5568C212.747 16.9062 212.245 17.4134 211.878 18.0781C211.52 18.7429 211.341 19.5483 211.341 20.4943ZM247.357 23.7415V12.3636H251.985V32H247.497V28.5099H247.293C246.85 29.6094 246.121 30.5085 245.107 31.2074C244.101 31.9062 242.861 32.2557 241.387 32.2557C240.1 32.2557 238.962 31.9702 237.973 31.3991C236.993 30.8196 236.226 29.9801 235.672 28.8807C235.118 27.7727 234.841 26.4347 234.841 24.8665V12.3636H239.469V24.1506C239.469 25.3949 239.81 26.3835 240.492 27.1165C241.174 27.8494 242.068 28.2159 243.176 28.2159C243.858 28.2159 244.519 28.0497 245.158 27.7173C245.797 27.3849 246.321 26.8906 246.73 26.2344C247.148 25.5696 247.357 24.7386 247.357 23.7415ZM259.931 20.4943V32H255.303V12.3636H259.727V15.7003H259.957C260.409 14.6009 261.129 13.7273 262.117 13.0795C263.115 12.4318 264.346 12.108 265.812 12.108C267.167 12.108 268.348 12.3977 269.353 12.9773C270.367 13.5568 271.151 14.3963 271.705 15.4957C272.268 16.5952 272.545 17.929 272.536 19.4972V32H267.909V20.2131C267.909 18.9006 267.568 17.8736 266.886 17.1321C266.213 16.3906 265.279 16.0199 264.086 16.0199C263.276 16.0199 262.556 16.1989 261.926 16.5568C261.303 16.9062 260.813 17.4134 260.455 18.0781C260.106 18.7429 259.931 19.5483 259.931 20.4943ZM275.801 32V12.3636H280.429V32H275.801ZM278.128 9.5767C277.395 9.5767 276.764 9.33381 276.236 8.84801C275.707 8.35369 275.443 7.76136 275.443 7.07102C275.443 6.37216 275.707 5.77983 276.236 5.29403C276.764 4.79971 277.395 4.55256 278.128 4.55256C278.869 4.55256 279.5 4.79971 280.02 5.29403C280.548 5.77983 280.812 6.37216 280.812 7.07102C280.812 7.76136 280.548 8.35369 280.02 8.84801C279.5 9.33381 278.869 9.5767 278.128 9.5767ZM292.313 32.3835C290.353 32.3835 288.67 31.9531 287.263 31.0923C285.866 30.2315 284.787 29.0426 284.029 27.5256C283.279 26 282.904 24.2443 282.904 22.2585C282.904 20.2642 283.287 18.5043 284.055 16.9787C284.822 15.4446 285.904 14.2514 287.302 13.3991C288.708 12.5384 290.37 12.108 292.287 12.108C293.881 12.108 295.292 12.402 296.519 12.9901C297.755 13.5696 298.739 14.392 299.472 15.4574C300.205 16.5142 300.623 17.75 300.725 19.1648H296.302C296.123 18.2187 295.697 17.4304 295.023 16.7997C294.358 16.1605 293.468 15.8409 292.351 15.8409C291.405 15.8409 290.574 16.0966 289.858 16.608C289.143 17.1108 288.584 17.8352 288.184 18.7812C287.792 19.7273 287.596 20.8608 287.596 22.1818C287.596 23.5199 287.792 24.6705 288.184 25.6335C288.576 26.5881 289.126 27.3253 289.833 27.8452C290.549 28.3565 291.388 28.6122 292.351 28.6122C293.033 28.6122 293.643 28.4844 294.18 28.2287C294.725 27.9645 295.181 27.5852 295.547 27.0909C295.914 26.5966 296.165 25.9957 296.302 25.2884H300.725C300.614 26.6776 300.205 27.9091 299.498 28.983C298.79 30.0483 297.827 30.8835 296.608 31.4886C295.39 32.0852 293.958 32.3835 292.313 32.3835ZM311.65 32.3835C309.733 32.3835 308.071 31.9616 306.665 31.1179C305.258 30.2741 304.167 29.0937 303.392 27.5767C302.625 26.0597 302.241 24.2869 302.241 22.2585C302.241 20.2301 302.625 18.4531 303.392 16.9276C304.167 15.402 305.258 14.2173 306.665 13.3736C308.071 12.5298 309.733 12.108 311.65 12.108C313.568 12.108 315.23 12.5298 316.636 13.3736C318.042 14.2173 319.129 15.402 319.896 16.9276C320.672 18.4531 321.059 20.2301 321.059 22.2585C321.059 24.2869 320.672 26.0597 319.896 27.5767C319.129 29.0937 318.042 30.2741 316.636 31.1179C315.23 31.9616 313.568 32.3835 311.65 32.3835ZM311.676 28.6761C312.716 28.6761 313.585 28.3906 314.284 27.8196C314.983 27.2401 315.503 26.4645 315.844 25.4929C316.193 24.5213 316.368 23.4389 316.368 22.2457C316.368 21.044 316.193 19.9574 315.844 18.9858C315.503 18.0057 314.983 17.2259 314.284 16.6463C313.585 16.0668 312.716 15.777 311.676 15.777C310.611 15.777 309.724 16.0668 309.017 16.6463C308.318 17.2259 307.794 18.0057 307.444 18.9858C307.103 19.9574 306.933 21.044 306.933 22.2457C306.933 23.4389 307.103 24.5213 307.444 25.4929C307.794 26.4645 308.318 27.2401 309.017 27.8196C309.724 28.3906 310.611 28.6761 311.676 28.6761ZM323.547 32V12.3636H328.035V15.6364H328.239C328.597 14.5028 329.211 13.6293 330.08 13.0156C330.958 12.3935 331.959 12.0824 333.084 12.0824C333.34 12.0824 333.625 12.0952 333.941 12.1207C334.265 12.1378 334.533 12.1676 334.746 12.2102V16.4673C334.55 16.3991 334.239 16.3395 333.813 16.2884C333.395 16.2287 332.991 16.1989 332.599 16.1989C331.755 16.1989 330.996 16.3821 330.323 16.7486C329.658 17.1065 329.134 17.6051 328.75 18.2443C328.367 18.8835 328.175 19.6207 328.175 20.456V32H323.547ZM341.009 20.4943V32H336.381V12.3636H340.804V15.7003H341.034C341.486 14.6009 342.206 13.7273 343.195 13.0795C344.192 12.4318 345.423 12.108 346.889 12.108C348.244 12.108 349.425 12.3977 350.431 12.9773C351.445 13.5568 352.229 14.3963 352.783 15.4957C353.345 16.5952 353.622 17.929 353.614 19.4972V32H348.986V20.2131C348.986 18.9006 348.645 17.8736 347.963 17.1321C347.29 16.3906 346.357 16.0199 345.163 16.0199C344.354 16.0199 343.634 16.1989 343.003 16.5568C342.381 16.9062 341.891 17.4134 341.533 18.0781C341.183 18.7429 341.009 19.5483 341.009 20.4943ZM359.729 32.2812C358.954 32.2812 358.289 32.0085 357.735 31.4631C357.181 30.9176 356.908 30.2528 356.917 29.4688C356.908 28.7017 357.181 28.0455 357.735 27.5C358.289 26.9545 358.954 26.6818 359.729 26.6818C360.479 26.6818 361.131 26.9545 361.685 27.5C362.248 28.0455 362.533 28.7017 362.542 29.4688C362.533 29.9886 362.397 30.4616 362.133 30.8878C361.877 31.3139 361.536 31.6548 361.11 31.9105C360.692 32.1577 360.232 32.2812 359.729 32.2812ZM381.4 17.554L377.181 18.0142C377.062 17.5881 376.853 17.1875 376.554 16.8125C376.265 16.4375 375.873 16.1349 375.378 15.9048C374.884 15.6747 374.279 15.5597 373.563 15.5597C372.6 15.5597 371.79 15.7685 371.134 16.1861C370.486 16.6037 370.167 17.1449 370.175 17.8097C370.167 18.3807 370.375 18.8452 370.802 19.2031C371.236 19.5611 371.952 19.8551 372.949 20.0852L376.299 20.8011C378.157 21.2017 379.537 21.8366 380.441 22.706C381.353 23.5753 381.813 24.7131 381.821 26.1193C381.813 27.3551 381.451 28.446 380.735 29.392C380.027 30.3295 379.043 31.0625 377.782 31.5909C376.52 32.1193 375.071 32.3835 373.435 32.3835C371.032 32.3835 369.097 31.8807 367.631 30.875C366.165 29.8608 365.292 28.4503 365.01 26.6435L369.523 26.2088C369.728 27.0952 370.162 27.7642 370.827 28.2159C371.492 28.6676 372.357 28.8935 373.422 28.8935C374.522 28.8935 375.404 28.6676 376.069 28.2159C376.742 27.7642 377.079 27.206 377.079 26.5412C377.079 25.9787 376.861 25.5142 376.427 25.1477C376 24.7812 375.336 24.5 374.432 24.304L371.083 23.6009C369.199 23.2088 367.806 22.5483 366.902 21.6193C365.999 20.6818 365.552 19.4972 365.56 18.0653C365.552 16.8551 365.88 15.8068 366.544 14.9205C367.218 14.0256 368.151 13.3352 369.344 12.8494C370.546 12.3551 371.931 12.108 373.499 12.108C375.8 12.108 377.611 12.598 378.932 13.5781C380.262 14.5582 381.084 15.8835 381.4 17.554ZM394.003 12.3636V15.9432H382.715V12.3636H394.003ZM385.501 7.65909H390.129V26.0938C390.129 26.7159 390.223 27.1932 390.411 27.5256C390.607 27.8494 390.862 28.071 391.178 28.1903C391.493 28.3097 391.842 28.3693 392.226 28.3693C392.516 28.3693 392.78 28.348 393.019 28.3054C393.266 28.2628 393.453 28.2244 393.581 28.1903L394.361 31.8082C394.114 31.8935 393.76 31.9872 393.3 32.0895C392.848 32.1918 392.294 32.2514 391.638 32.2685C390.479 32.3026 389.435 32.1278 388.506 31.7443C387.577 31.3523 386.84 30.7472 386.294 29.929C385.757 29.1108 385.493 28.0881 385.501 26.8608V7.65909ZM408.949 23.7415V12.3636H413.577V32H409.09V28.5099H408.885C408.442 29.6094 407.713 30.5085 406.699 31.2074C405.693 31.9062 404.453 32.2557 402.979 32.2557C401.692 32.2557 400.554 31.9702 399.565 31.3991C398.585 30.8196 397.818 29.9801 397.264 28.8807C396.71 27.7727 396.433 26.4347 396.433 24.8665V12.3636H401.061V24.1506C401.061 25.3949 401.402 26.3835 402.084 27.1165C402.766 27.8494 403.661 28.2159 404.769 28.2159C405.45 28.2159 406.111 28.0497 406.75 27.7173C407.389 27.3849 407.913 26.8906 408.323 26.2344C408.74 25.5696 408.949 24.7386 408.949 23.7415ZM424.183 32.3452C422.64 32.3452 421.259 31.9489 420.041 31.1562C418.822 30.3636 417.859 29.2131 417.151 27.7045C416.444 26.196 416.09 24.3636 416.09 22.2074C416.09 20.0256 416.448 18.1847 417.164 16.6847C417.889 15.1761 418.864 14.0384 420.092 13.2713C421.319 12.4957 422.687 12.108 424.195 12.108C425.346 12.108 426.292 12.304 427.033 12.696C427.775 13.0795 428.363 13.544 428.798 14.0895C429.232 14.6264 429.569 15.1335 429.808 15.6108H429.999V5.81818H434.64V32H430.089V28.9062H429.808C429.569 29.3835 429.224 29.8906 428.772 30.4276C428.32 30.956 427.724 31.4077 426.982 31.7827C426.241 32.1577 425.308 32.3452 424.183 32.3452ZM425.474 28.5483C426.454 28.5483 427.289 28.2841 427.979 27.7557C428.67 27.2187 429.194 26.473 429.552 25.5185C429.91 24.5639 430.089 23.4517 430.089 22.1818C430.089 20.9119 429.91 19.8082 429.552 18.8707C429.202 17.9332 428.683 17.2045 427.992 16.6847C427.31 16.1648 426.471 15.9048 425.474 15.9048C424.443 15.9048 423.582 16.1733 422.891 16.7102C422.201 17.2472 421.681 17.9886 421.332 18.9347C420.982 19.8807 420.808 20.9631 420.808 22.1818C420.808 23.4091 420.982 24.5043 421.332 25.4673C421.69 26.4219 422.214 27.1761 422.904 27.7301C423.603 28.2756 424.46 28.5483 425.474 28.5483ZM438.131 32V12.3636H442.759V32H438.131ZM440.458 9.5767C439.725 9.5767 439.095 9.33381 438.566 8.84801C438.038 8.35369 437.773 7.76136 437.773 7.07102C437.773 6.37216 438.038 5.77983 438.566 5.29403C439.095 4.79971 439.725 4.55256 440.458 4.55256C441.2 4.55256 441.83 4.79971 442.35 5.29403C442.879 5.77983 443.143 6.37216 443.143 7.07102C443.143 7.76136 442.879 8.35369 442.35 8.84801C441.83 9.33381 441.2 9.5767 440.458 9.5767ZM454.643 32.3835C452.726 32.3835 451.064 31.9616 449.658 31.1179C448.251 30.2741 447.161 29.0937 446.385 27.5767C445.618 26.0597 445.234 24.2869 445.234 22.2585C445.234 20.2301 445.618 18.4531 446.385 16.9276C447.161 15.402 448.251 14.2173 449.658 13.3736C451.064 12.5298 452.726 12.108 454.643 12.108C456.561 12.108 458.223 12.5298 459.629 13.3736C461.036 14.2173 462.122 15.402 462.889 16.9276C463.665 18.4531 464.053 20.2301 464.053 22.2585C464.053 24.2869 463.665 26.0597 462.889 27.5767C462.122 29.0937 461.036 30.2741 459.629 31.1179C458.223 31.9616 456.561 32.3835 454.643 32.3835ZM454.669 28.6761C455.709 28.6761 456.578 28.3906 457.277 27.8196C457.976 27.2401 458.496 26.4645 458.837 25.4929C459.186 24.5213 459.361 23.4389 459.361 22.2457C459.361 21.044 459.186 19.9574 458.837 18.9858C458.496 18.0057 457.976 17.2259 457.277 16.6463C456.578 16.0668 455.709 15.777 454.669 15.777C453.604 15.777 452.717 16.0668 452.01 16.6463C451.311 17.2259 450.787 18.0057 450.438 18.9858C450.097 19.9574 449.926 21.044 449.926 22.2457C449.926 23.4389 450.097 24.5213 450.438 25.4929C450.787 26.4645 451.311 27.2401 452.01 27.8196C452.717 28.3906 453.604 28.6761 454.669 28.6761Z" fill="black"/>
</g>
<defs>
<clipPath id="clip0_9520_35">
<rect width="466" height="40" fill="white"/>
</clipPath>
</defs>
</svg>
